<svg width="30" height="30" viewBox="0 0 30 30" fill="none" xmlns="http://www.w3.org/2000/svg">
<g clip-path="url(#clip0_307_172426)">
<path d="M28.7093 3.82761C28.3849 3.82761 28.1177 3.58386 28.0811 3.2698C27.5899 2.67824 23.2296 1.56543 15.0011 1.56543C6.77269 1.56543 2.41332 2.67824 1.92207 3.2698C1.88551 3.58386 1.61832 3.82761 1.29395 3.82761C0.944258 3.82761 0.661133 3.54449 0.661133 3.1948C0.661133 0.381367 13.533 0.299805 15.0011 0.299805C16.4693 0.299805 29.3421 0.38043 29.3421 3.1948C29.3421 3.54449 29.0589 3.82761 28.7093 3.82761ZM28.0764 3.1948C28.0764 3.19574 28.0764 3.19574 28.0764 3.1948V3.1948ZM1.92676 3.1948C1.92676 3.19574 1.92676 3.19574 1.92676 3.1948V3.1948Z" fill="#65B1EF"/>
<path d="M15 30C23.2843 30 30 23.2843 30 15C30 6.71573 23.2843 0 15 0C6.71573 0 0 6.71573 0 15C0 23.2843 6.71573 30 15 30Z" fill="#FFD93B"/>
<path d="M29.9998 15.0003C29.9998 23.2878 23.2826 30.0003 14.9998 30.0003C10.2842 30.0003 6.0748 27.8253 3.32324 24.4175C5.89668 26.4987 9.17324 27.7409 12.7404 27.7409C21.0232 27.7409 27.7404 21.0284 27.7404 12.7409C27.7404 9.17373 26.4982 5.89717 24.417 3.32373C27.8201 6.07529 29.9998 10.2847 29.9998 15.0003Z" fill="#F4C534"/>
<path d="M15.0011 6.09688C13.5339 6.09688 0.661133 6.01625 0.661133 3.19531C0.661133 2.84563 0.944258 2.5625 1.29395 2.5625C1.61832 2.5625 1.88551 2.80625 1.92207 3.12031C2.41238 3.71375 6.77269 4.83125 15.0011 4.83125C23.2296 4.83125 27.5899 3.71375 28.0811 3.12031C28.1177 2.80625 28.3849 2.5625 28.7093 2.5625C29.0589 2.5625 29.3421 2.84563 29.3421 3.19531C29.3421 6.01532 16.4683 6.09688 15.0011 6.09688ZM28.0764 3.19438C28.0764 3.19531 28.0764 3.19531 28.0764 3.19438V3.19438ZM1.92676 3.19438C1.92676 3.19531 1.92676 3.19531 1.92676 3.19438V3.19438Z" fill="#65B1EF"/>
<path d="M13.6444 13.7426C13.6444 16.2392 11.6147 18.2689 9.10785 18.2689C6.60098 18.2689 4.57129 16.2392 4.57129 13.7426C4.57129 11.2357 6.60098 9.20605 9.10785 9.20605C11.6157 9.20605 13.6444 11.2357 13.6444 13.7426Z" fill="white"/>
<path d="M11.28 13.7425C11.28 14.9303 10.3059 15.9044 9.10871 15.9044C7.91152 15.9044 6.93652 14.9303 6.93652 13.7425C6.93652 12.5453 7.91059 11.5713 9.10871 11.5713C10.3059 11.5704 11.28 12.5444 11.28 13.7425Z" fill="#3E4347"/>
<path d="M10.2762 13.407C10.114 13.5692 9.79899 13.5082 9.56555 13.2748C9.34242 13.0414 9.28148 12.7264 9.43336 12.5642C9.59555 12.4123 9.91055 12.4732 10.144 12.7067C10.3774 12.9401 10.4384 13.2551 10.2762 13.407Z" fill="white"/>
<path d="M25.4286 13.7426C25.4286 16.2392 23.3989 18.2689 20.892 18.2689C18.3852 18.2689 16.3555 16.2392 16.3555 13.7426C16.3555 11.2357 18.3852 9.20605 20.892 9.20605C23.3989 9.20605 25.4286 11.2357 25.4286 13.7426Z" fill="white"/>
<path d="M23.0632 13.7425C23.0632 14.9303 22.0891 15.9044 20.8919 15.9044C19.6947 15.9044 18.7197 14.9303 18.7197 13.7425C18.7197 12.5453 19.6938 11.5713 20.8919 11.5713C22.0891 11.5704 23.0632 12.5444 23.0632 13.7425Z" fill="#3E4347"/>
<path d="M22.0584 13.407C21.8962 13.5692 21.5812 13.5082 21.3478 13.2748C21.1246 13.0414 21.0637 12.7264 21.2156 12.5642C21.3778 12.4123 21.6928 12.4732 21.9262 12.7067C22.1597 12.9401 22.2206 13.2551 22.0584 13.407Z" fill="white"/>
<path d="M22.5242 21.4305C20.9698 24.5899 18.192 26.6955 15.0026 26.6955C11.8132 26.6955 9.02512 24.5899 7.47075 21.4305C7.25981 20.9992 7.61137 20.508 8.09231 20.568C12.6954 21.1492 17.2986 21.1492 21.912 20.568C22.3939 20.508 22.7445 20.9992 22.5242 21.4305Z" fill="#3E4347"/>
<path d="M8.31934 20.5933C9.77059 22.5883 12.2193 22.9061 14.9981 22.9061C17.7768 22.9061 20.2293 22.5883 21.6797 20.5942C17.22 21.137 12.7697 21.137 8.31934 20.5933Z" fill="white"/>
<path d="M11.3818 25.7121C12.4881 26.3346 13.7087 26.6956 15.0025 26.6956C16.2962 26.6956 17.5159 26.3346 18.6193 25.7121C18.159 24.3462 16.72 24.469 14.9996 24.469C13.2784 24.468 11.8421 24.3462 11.3818 25.7121Z" fill="#E24B4B"/>
</g>
<defs>
<clipPath id="clip0_307_172426">
<rect width="30" height="30" fill="white"/>
</clipPath>
</defs>
</svg>
