<svg width="30" height="30" viewBox="0 0 30 30" fill="none" xmlns="http://www.w3.org/2000/svg">
<g clip-path="url(#clip0_307_171793)">
<path d="M15 30C23.2843 30 30 23.2843 30 15C30 6.71573 23.2843 0 15 0C6.71573 0 0 6.71573 0 15C0 23.2843 6.71573 30 15 30Z" fill="#FFD93B"/>
<path d="M29.9998 15.0003C29.9998 23.2878 23.2826 30.0003 14.9998 30.0003C10.2842 30.0003 6.0748 27.8253 3.32324 24.4175C5.89668 26.4987 9.17324 27.7409 12.7404 27.7409C21.0232 27.7409 27.7404 21.0284 27.7404 12.7409C27.7404 9.17373 26.4982 5.89717 24.417 3.32373C27.8201 6.07529 29.9998 10.2847 29.9998 15.0003Z" fill="#F4C534"/>
<path d="M20.5699 16.49C23.1126 16.49 25.1739 14.9777 25.1739 13.1122C25.1739 11.2467 23.1126 9.73438 20.5699 9.73438C18.0271 9.73438 15.9658 11.2467 15.9658 13.1122C15.9658 14.9777 18.0271 16.49 20.5699 16.49Z" fill="#F4C534"/>
<path d="M25.1737 13.112C25.1737 14.9777 23.2527 16.3108 20.8827 16.0905C18.5127 15.8702 16.5918 14.1789 16.5918 12.3133C16.5918 10.4477 18.5127 9.11453 20.8827 9.33485C23.2527 9.5561 25.1737 11.2464 25.1737 13.112Z" fill="white"/>
<path d="M25.3009 13.1108C25.0056 12.0383 23.1447 9.82669 22.0281 9.87075C20.4297 9.94763 18.8425 12.5201 15.46 11.5564L16.1603 10.4183C17.2553 10.3639 18.2734 10.0676 19.6965 8.71013C21.9297 6.55387 25.5747 7.4295 25.3009 13.1108Z" fill="#3E4347"/>
<path d="M19.9781 15.0958C20.7216 15.0958 21.3243 14.4066 21.3243 13.5565C21.3243 12.7063 20.7216 12.0171 19.9781 12.0171C19.2346 12.0171 18.6318 12.7063 18.6318 13.5565C18.6318 14.4066 19.2346 15.0958 19.9781 15.0958Z" fill="#3E4347"/>
<path d="M20.7695 13.1667C20.671 13.2548 20.4742 13.1995 20.3204 13.0242C20.1779 12.8601 20.1451 12.652 20.2548 12.5638C20.3532 12.4767 20.5613 12.531 20.7038 12.7063C20.8463 12.8704 20.8791 13.0785 20.7695 13.1667Z" fill="#5A5F63"/>
<path d="M9.43121 16.49C11.974 16.49 14.0353 14.9777 14.0353 13.1122C14.0353 11.2467 11.974 9.73438 9.43121 9.73438C6.88846 9.73438 4.82715 11.2467 4.82715 13.1122C4.82715 14.9777 6.88846 16.49 9.43121 16.49Z" fill="#F4C534"/>
<path d="M4.82617 13.112C4.82617 14.9777 6.74711 16.3108 9.11711 16.0905C11.4871 15.8702 13.408 14.1789 13.408 12.3133C13.408 10.4477 11.4871 9.11453 9.11711 9.33485C6.74711 9.5561 4.82617 11.2464 4.82617 13.112Z" fill="white"/>
<path d="M4.69817 13.1108C4.99348 12.0383 6.85442 9.82669 7.97098 9.87075C9.56942 9.94763 11.1566 12.5201 14.5391 11.5564L13.8388 10.4183C12.7438 10.3639 11.7257 10.0676 10.3025 8.71013C8.06942 6.55387 4.42442 7.4295 4.69817 13.1108Z" fill="#3E4347"/>
<path d="M10.0211 15.0958C10.7646 15.0958 11.3673 14.4066 11.3673 13.5565C11.3673 12.7063 10.7646 12.0171 10.0211 12.0171C9.27754 12.0171 8.6748 12.7063 8.6748 13.5565C8.6748 14.4066 9.27754 15.0958 10.0211 15.0958Z" fill="#3E4347"/>
<path d="M9.23037 13.1667C9.32881 13.2548 9.52569 13.1995 9.67944 13.0242C9.82194 12.8601 9.85475 12.652 9.74506 12.5638C9.64662 12.4767 9.4385 12.531 9.296 12.7063C9.15349 12.8704 9.12068 13.0785 9.23037 13.1667Z" fill="#5A5F63"/>
<path d="M20.7601 24.2929C20.7986 21.0088 19.1673 15.7822 15.722 17.541C12.2514 19.6822 8.98605 22.7122 9.06386 24.0847C13.2657 25.3307 17.4639 20.7463 20.7601 24.2929Z" fill="#F4C534"/>
<path d="M9.80859 23.7598C10.3533 22.5486 12.9914 19.6198 15.7158 18.193C18.2095 17.0211 19.748 19.9873 20.0676 22.8983C18.7336 22.0414 17.2514 22.092 15.5995 22.5589C13.8398 23.0127 11.9161 24.0195 9.80859 23.7598Z" fill="#3E4347"/>
<path d="M21.651 24.5446C21.651 24.5436 21.5348 24.5033 21.3801 24.4564C21.2273 24.4189 21.0285 24.3552 20.8616 24.3861C20.5195 24.3758 20.2316 24.7096 20.2129 24.7039C20.2176 24.7124 20.2007 24.5474 20.2738 24.3636C20.3104 24.2736 20.3629 24.1649 20.4501 24.0993C20.5335 24.0261 20.6404 23.9811 20.7529 23.9596C20.9873 23.9455 21.2282 24.0721 21.3932 24.2286C21.561 24.3852 21.652 24.5464 21.651 24.5446Z" fill="#F4C534"/>
<path d="M9.59523 24.9001C9.59523 24.8991 9.51554 24.7922 9.40773 24.646C9.29617 24.4997 9.16867 24.3104 9.01211 24.1388C8.7393 23.8041 8.30617 23.4282 8.29492 23.4038C8.29492 23.4076 8.38867 23.4272 8.56586 23.5313C8.65117 23.5857 8.76367 23.6504 8.87336 23.746C8.98586 23.8379 9.09742 23.9457 9.19961 24.0535C9.39273 24.2766 9.51367 24.4988 9.55961 24.6563C9.60929 24.8129 9.59523 24.8982 9.59523 24.9001Z" fill="#F4C534"/>
<path d="M10.9941 23.7945C12.6413 23.6483 14.177 22.9395 15.5992 22.5599C16.2901 22.3686 16.9445 22.2514 17.5782 22.2364C17.5332 22.0911 17.4967 21.9449 17.4413 21.7986C16.4495 19.258 14.7207 21.523 14.7395 21.4602C14.2426 20.7842 11.6373 22.347 10.9941 23.7945Z" fill="#E24B4B"/>
<path d="M16.4312 17.9883L16.4199 17.9648C16.193 18.0042 15.9624 18.0783 15.7168 18.1936C14.4887 18.8377 13.2812 19.7827 12.2715 20.7417L12.2874 20.7548C13.6093 20.5008 16.8624 19.1789 16.4312 17.9883Z" fill="white"/>
</g>
<defs>
<clipPath id="clip0_307_171793">
<rect width="30" height="30" fill="white"/>
</clipPath>
</defs>
</svg>
