<svg width="30" height="30" viewBox="0 0 30 30" fill="none" xmlns="http://www.w3.org/2000/svg">
<g clip-path="url(#clip0_307_171828)">
<path d="M15 30C23.2843 30 30 23.2843 30 15C30 6.71573 23.2843 0 15 0C6.71573 0 0 6.71573 0 15C0 23.2843 6.71573 30 15 30Z" fill="#FFD93B"/>
<path d="M29.9998 14.9998C29.9998 23.2873 23.2826 29.9998 14.9998 29.9998C10.2842 29.9998 6.0748 27.8248 3.32324 24.417C5.89668 26.4982 9.17324 27.7404 12.7404 27.7404C21.0232 27.7404 27.7404 21.0279 27.7404 12.7404C27.7404 9.17324 26.4982 5.89668 24.417 3.32324C27.8201 6.0748 29.9998 10.2842 29.9998 14.9998Z" fill="#F4C534"/>
<path d="M14.0214 14.0334C14.0214 15.1359 11.8118 16.0256 9.09113 16.0256C6.36301 16.0256 4.15332 15.135 4.15332 14.0334C4.15332 12.9366 6.36301 12.0469 9.09113 12.0469C11.8118 12.0469 14.0214 12.9366 14.0214 14.0334Z" fill="white"/>
<path d="M8.87109 14.0322C8.87109 14.8713 9.28453 15.5978 9.89297 15.9972C10.9252 15.9288 11.8514 15.7328 12.563 15.4478C12.8433 15.0569 13.0186 14.5694 13.0186 14.0322C13.0186 13.4978 12.8442 13.0131 12.5639 12.6231C11.8523 12.3381 10.9261 12.1431 9.89297 12.0747C9.28453 12.4731 8.87109 13.1978 8.87109 14.0322Z" fill="#3E4347"/>
<path d="M12.3162 14.2678C12.1333 14.325 11.9093 14.0916 11.823 13.7531C11.7368 13.4137 11.8212 13.0922 12.004 13.035C12.1868 12.9778 12.4108 13.2112 12.4971 13.5506C12.5777 13.89 12.4999 14.2106 12.3162 14.2678Z" fill="white"/>
<path d="M15.9775 14.0334C15.9775 15.1359 18.1872 16.0256 20.9079 16.0256C23.636 16.0256 25.8457 15.135 25.8457 14.0334C25.8457 12.9366 23.636 12.0469 20.9079 12.0469C18.1872 12.0469 15.9775 12.9366 15.9775 14.0334Z" fill="white"/>
<path d="M21.1289 14.0322C21.1289 14.8713 20.7155 15.5978 20.1071 15.9972C19.0749 15.9288 18.1486 15.7328 17.4371 15.4478C17.1568 15.0569 16.9814 14.5694 16.9814 14.0322C16.9814 13.4978 17.1558 13.0131 17.4361 12.6231C18.1477 12.3381 19.0739 12.1431 20.1071 12.0747C20.7155 12.4731 21.1289 13.1978 21.1289 14.0322Z" fill="#3E4347"/>
<path d="M20.3914 14.2678C20.2085 14.325 19.9845 14.0916 19.8982 13.7531C19.812 13.4137 19.8964 13.0922 20.0792 13.035C20.262 12.9778 20.486 13.2112 20.5723 13.5506C20.6529 13.89 20.5742 14.2106 20.3914 14.2678Z" fill="white"/>
<path d="M13.8443 10.6604C14.1161 10.876 14.163 11.2791 13.938 11.551C13.7093 11.8313 13.3118 11.8576 13.0568 11.6448C11.0318 10.0238 8.97865 9.05726 6.77552 8.70101C6.42865 8.65414 6.19427 8.32601 6.25052 7.97914C6.30677 7.63226 6.6349 7.39789 6.98177 7.45414C9.40052 7.84789 11.6505 8.88851 13.8443 10.6604Z" fill="#3E4347"/>
<path d="M24.5514 6.6854C24.5702 7.03227 24.3077 7.33227 23.9608 7.35102C21.3639 7.50102 19.1983 8.15727 17.3233 9.36665C17.0552 9.53633 16.6464 9.47915 16.4514 9.17915C16.2639 8.87915 16.3483 8.4854 16.6389 8.2979C18.7014 6.96665 21.0733 6.24477 23.8858 6.09477C24.2233 6.06665 24.5327 6.33852 24.5514 6.6854Z" fill="#3E4347"/>
<path d="M19.8642 22.9125C19.8642 23.6475 19.2736 24.2504 18.5386 24.2504H11.4614C10.7264 24.2504 10.1357 23.6475 10.1357 22.9125C10.1357 22.1775 10.7264 21.5869 11.4614 21.5869H18.5386C19.2736 21.5869 19.8642 22.1775 19.8642 22.9125Z" fill="#3E4347"/>
</g>
<defs>
<clipPath id="clip0_307_171828">
<rect width="30" height="30" fill="white"/>
</clipPath>
</defs>
</svg>
