<svg width="30" height="30" viewBox="0 0 30 30" fill="none" xmlns="http://www.w3.org/2000/svg">
<g clip-path="url(#clip0_307_171762)">
<path d="M15 30C23.2843 30 30 23.2843 30 15C30 6.71573 23.2843 0 15 0C6.71573 0 0 6.71573 0 15C0 23.2843 6.71573 30 15 30Z" fill="#FFD93B"/>
<path d="M9.85937 7.9049C6.87603 7.40112 4.04909 9.41162 3.54523 12.3955C3.04136 15.3793 5.05137 18.2066 8.03471 18.7104C11.018 19.2142 13.845 17.2037 14.3489 14.2198C14.8527 11.236 12.8427 8.40868 9.85937 7.9049Z" fill="#F4C534"/>
<path d="M8.94848 17.5425C11.2883 17.5425 13.185 15.6457 13.185 13.3059C13.185 10.9661 11.2883 9.06934 8.94848 9.06934C6.60869 9.06934 4.71191 10.9661 4.71191 13.3059C4.71191 15.6457 6.60869 17.5425 8.94848 17.5425Z" fill="white"/>
<path d="M8.94926 15.6959C10.2691 15.6959 11.339 14.626 11.339 13.3062C11.339 11.9864 10.2691 10.9165 8.94926 10.9165C7.62947 10.9165 6.55957 11.9864 6.55957 13.3062C6.55957 14.626 7.62947 15.6959 8.94926 15.6959Z" fill="#3E4347"/>
<path d="M10.2622 12.8676C10.1056 13.0242 9.77188 12.9614 9.53188 12.7214C9.29188 12.4814 9.22907 12.1476 9.38563 11.9911C9.5525 11.8242 9.88625 11.887 10.1263 12.127C10.3672 12.367 10.4291 12.7008 10.2622 12.8676Z" fill="white"/>
<path d="M9.09492 12.4376C11.2005 12.7929 13.1112 12.506 14.1996 11.8019C13.6352 9.83975 12.0096 8.26569 9.86086 7.90288C7.71211 7.54007 5.65992 8.49257 4.48242 10.1613C5.2793 11.1841 6.9893 12.0813 9.09492 12.4376Z" fill="#F4C534"/>
<path d="M15.5608 10.1366C15.3677 11.6807 12.7333 12.5413 9.67709 12.0576C6.62084 11.5738 4.30053 9.93039 4.49365 8.38632C4.68678 6.84226 7.32115 5.98257 10.3774 6.46539C13.4346 6.9482 15.754 8.59164 15.5608 10.1366Z" fill="#FFD93B"/>
<path d="M21.0512 19.219C24.3176 19.219 26.9656 16.5711 26.9656 13.3046C26.9656 10.0381 24.3176 7.39014 21.0512 7.39014C17.7847 7.39014 15.1367 10.0381 15.1367 13.3046C15.1367 16.5711 17.7847 19.219 21.0512 19.219Z" fill="#F4C534"/>
<path d="M21.0516 17.8791C23.5773 17.8791 25.6248 15.8317 25.6248 13.306C25.6248 10.7804 23.5773 8.73291 21.0516 8.73291C18.526 8.73291 16.4785 10.7804 16.4785 13.306C16.4785 15.8317 18.526 17.8791 21.0516 17.8791Z" fill="white"/>
<path d="M21.0517 15.8861C22.4766 15.8861 23.6317 14.731 23.6317 13.3061C23.6317 11.8812 22.4766 10.7261 21.0517 10.7261C19.6268 10.7261 18.4717 11.8812 18.4717 13.3061C18.4717 14.731 19.6268 15.8861 21.0517 15.8861Z" fill="#3E4347"/>
<path d="M19.6323 12.8326C19.8011 13.0014 20.162 12.9339 20.4207 12.6751C20.6795 12.4164 20.747 12.0555 20.5782 11.8867C20.3982 11.7067 20.0373 11.7742 19.7786 12.033C19.5198 12.2917 19.4523 12.6526 19.6323 12.8326Z" fill="white"/>
<path d="M29.9998 15.0003C29.9998 23.2878 23.2826 30.0003 14.9998 30.0003C10.2842 30.0003 6.0748 27.8253 3.32324 24.4175C5.89668 26.4987 9.17324 27.7409 12.7404 27.7409C21.0232 27.7409 27.7404 21.0284 27.7404 12.7409C27.7404 9.17373 26.4982 5.89717 24.417 3.32373C27.8201 6.07529 29.9998 10.2847 29.9998 15.0003Z" fill="#F4C534"/>
<path d="M21.8717 22.4468C21.8717 23.5212 18.7967 26.855 14.9998 24.9246C11.202 23 8.12793 24.1128 8.12793 22.4468C8.12793 20.7743 11.2029 21.8928 14.9998 19.9681C18.7967 18.0425 21.8717 21.3696 21.8717 22.4468Z" fill="#3E4347"/>
<path d="M15.0005 19.9674C12.8048 21.0802 10.8548 21.1768 9.59766 21.383C10.9664 22.193 12.878 21.9418 15.0005 21.669C17.0536 21.4027 19.582 21.1149 21.1045 21.0755C19.9627 19.8483 17.6611 18.6183 15.0005 19.9674Z" fill="white"/>
<path d="M14.9998 24.9251C16.7642 25.8223 18.3682 25.5766 19.5842 24.9551C19.6292 23.681 18.7873 22.4922 17.5357 22.1651C16.8411 21.9832 16.152 22.076 15.5689 22.3676C15.1254 22.5944 14.6145 22.6329 14.1354 22.496C13.0873 22.1979 11.8892 22.7322 11.4092 23.7785C12.4554 23.9576 13.6817 24.2566 14.9998 24.9251Z" fill="#E24B4B"/>
<g opacity="0.2">
<path opacity="0.2" d="M17.4043 22.7583C16.9643 22.6397 16.5575 22.7301 16.4955 22.9601C16.4336 23.1901 16.74 23.4726 17.18 23.5911C17.6199 23.7096 18.0268 23.6192 18.0887 23.3892C18.1507 23.1593 17.8442 22.8768 17.4043 22.7583Z" fill="white"/>
</g>
</g>
<defs>
<clipPath id="clip0_307_171762">
<rect width="30" height="30" fill="white"/>
</clipPath>
</defs>
</svg>
