<svg width="30" height="30" viewBox="0 0 30 30" fill="none" xmlns="http://www.w3.org/2000/svg">
<path d="M14.9994 28.8743C22.6949 28.8743 28.9334 22.6359 28.9334 14.9403C28.9334 7.2448 22.6949 1.00635 14.9994 1.00635C7.30389 1.00635 1.06543 7.2448 1.06543 14.9403C1.06543 22.6359 7.30389 28.8743 14.9994 28.8743Z" fill="#FFD93B"/>
<path d="M28.9341 14.9396C28.9341 22.6383 22.6941 28.8736 15.0001 28.8736C10.6202 28.8736 6.70987 26.8533 4.15332 23.6873C6.54393 25.6205 9.58704 26.7745 12.9011 26.7745C20.5951 26.7745 26.8351 20.5392 26.8351 12.8405C26.8351 9.52649 25.681 6.48338 23.7479 4.09277C26.9091 6.64932 28.9341 10.5596 28.9341 14.9396Z" fill="#F4C534"/>
<path d="M14.8487 19.6206C10.5268 19.63 7.74246 22.5268 8.51121 24.6831C9.26121 26.8674 12.0737 27.9081 14.8487 27.9456C17.633 27.9081 20.4361 26.8674 21.1861 24.6831C21.9549 22.5268 19.1705 19.63 14.8487 19.6206ZM9.77683 24.355C9.62683 23.6987 10.2362 22.9862 11.1924 22.7706C11.0049 23.6706 11.1737 24.5143 11.5862 25.3206C10.7237 25.3862 9.9362 25.0112 9.77683 24.355ZM19.9205 24.355C19.7611 25.0112 18.9736 25.3862 18.1205 25.3206C18.533 24.5143 18.7018 23.6706 18.5143 22.7706C19.4705 22.9862 20.0799 23.6987 19.9205 24.355Z" fill="#59A5E0"/>
<path d="M13.784 12.5286C13.784 15.3851 12.0421 17.7017 9.8915 17.7017C7.74933 17.7017 5.99902 15.3851 5.99902 12.5286C5.99902 9.67202 7.74933 7.35547 9.8915 7.35547C12.0421 7.35641 13.784 9.67202 13.784 12.5286Z" fill="white"/>
<path d="M11.9552 13.3306C11.9552 14.6365 10.8836 15.6997 9.57768 15.6997C8.26238 15.6997 7.2002 14.6375 7.2002 13.3306C7.2002 12.0153 8.26238 10.9531 9.57768 10.9531C10.8845 10.9531 11.9552 12.0153 11.9552 13.3306Z" fill="#3E4347"/>
<path d="M10.778 12.128C10.4649 11.815 10.0684 11.704 9.89232 11.8801C9.71622 12.0562 9.82722 12.4527 10.1402 12.7657C10.4533 13.0788 10.8498 13.1898 11.0259 13.0137C11.202 12.8376 11.091 12.441 10.778 12.128Z" fill="white"/>
<path d="M24.0008 12.5286C24.0008 15.3851 22.2589 17.7017 20.1083 17.7017C17.9661 17.7017 16.2158 15.3851 16.2158 12.5286C16.2158 9.67202 17.9661 7.35547 20.1083 7.35547C22.2589 7.35641 24.0008 9.67202 24.0008 12.5286Z" fill="white"/>
<path d="M22.172 13.3306C22.172 14.6365 21.1004 15.6997 19.7945 15.6997C18.4792 15.6997 17.417 14.6375 17.417 13.3306C17.417 12.0153 18.4792 10.9531 19.7945 10.9531C21.1013 10.9531 22.172 12.0153 22.172 13.3306Z" fill="#3E4347"/>
<path d="M20.9918 12.1314C20.6788 11.8184 20.2823 11.7074 20.1062 11.8835C19.9301 12.0596 20.0411 12.4561 20.3541 12.7692C20.6671 13.0822 21.0637 13.1932 21.2398 13.0171C21.4159 12.841 21.3049 12.4445 20.9918 12.1314Z" fill="white"/>
<path d="M16.5417 5.78923C15.2208 6.60485 13.5736 6.53453 12.4833 5.9111C13.6055 6.31891 15.1392 6.13047 16.132 5.24079C18.0427 3.52799 16.2108 1.23863 15.0352 1.82737C14.7867 1.99894 14.6677 2.19112 14.6433 2.34112C14.6274 2.34862 14.5289 2.74987 14.5214 2.76768C14.1314 4.28455 11.8111 3.42205 12.4927 2.06269V2.05237C12.8593 1.44206 12.7055 1.323 13.3899 0.702381C13.6599 0.44082 14.0433 0.223321 14.4961 0.0930097C17.5927 -0.710423 19.6195 3.90299 16.5417 5.78923Z" fill="#3E4347"/>
<path d="M17.5657 24.6016C17.1982 25.6657 16.0488 26.2469 14.9688 26.2619C13.8898 26.2469 12.7404 25.6657 12.372 24.6016C11.997 23.5498 13.1388 22.2045 14.9688 22.2017C16.8007 22.2054 17.9379 23.5498 17.5657 24.6016Z" fill="#4E99D2"/>
<path d="M14.9686 29.9999C13.3393 29.9999 12.0137 28.6743 12.0137 27.0449C12.0137 25.4155 13.3393 24.0908 14.9686 24.0908C16.598 24.0908 17.9227 25.4164 17.9227 27.0449C17.9227 28.6743 16.598 29.9999 14.9686 29.9999ZM14.9686 24.9514C13.8137 24.9514 12.8743 25.8908 12.8743 27.0449C12.8743 28.1989 13.8137 29.1383 14.9686 29.1383C16.1227 29.1383 17.0621 28.1989 17.0621 27.0449C17.0621 25.8908 16.1236 24.9514 14.9686 24.9514Z" fill="#E9EFF4"/>
<path d="M16.5295 24.5703C16.3101 25.2087 15.6154 25.5584 14.9695 25.5687C14.3217 25.5593 13.6289 25.2097 13.4086 24.5703C13.1845 23.9394 13.8707 23.1294 14.9695 23.1284C16.0692 23.1294 16.7554 23.9394 16.5295 24.5703Z" fill="#65B1EF"/>
</svg>
