<svg width="30" height="30" viewBox="0 0 30 30" fill="none" xmlns="http://www.w3.org/2000/svg">
<g clip-path="url(#clip0_307_171870)">
<path d="M14.9898 29.521C23.0095 29.521 29.5108 23.0198 29.5108 15C29.5108 6.98029 23.0095 0.479004 14.9898 0.479004C6.97003 0.479004 0.46875 6.98029 0.46875 15C0.46875 23.0198 6.97003 29.521 14.9898 29.521Z" fill="#FFD93B"/>
<path d="M29.5117 14.9738C29.5258 22.997 23.0345 29.5061 15.016 29.5201C10.4513 29.5276 6.3722 27.4295 3.70312 24.1351C6.19783 26.1451 9.37222 27.3423 12.8251 27.3367C20.8435 27.3226 27.3348 20.8135 27.3208 12.7904C27.3151 9.33753 26.1067 6.16689 24.0873 3.67969C27.3864 6.33752 29.5033 10.4091 29.5117 14.9738Z" fill="#F4C534"/>
<path d="M23.9656 13.0998C21.0791 14.3017 18.4362 13.7664 15.8506 11.8745C16.8856 11.3729 18.9125 10.3792 19.6372 9.4126C19.34 10.3192 17.989 11.4151 17.2297 11.9064C19.8125 13.3314 22.9438 13.0651 23.9656 13.0998Z" fill="#F4C534"/>
<path d="M18.5234 11.8604C19.1431 11.3335 20.5588 10.7945 22.0635 10.8357C23.315 10.8967 24.5938 11.236 25.5332 12.151C25.5332 12.151 23.2053 11.9926 22.04 11.972C21.0181 11.9054 19.7113 11.9663 18.5234 11.8604Z" fill="#3E4347"/>
<path d="M6.00977 13.1319C8.90009 14.3235 11.541 13.7797 14.1211 11.8785C13.0842 11.3806 11.0535 10.3934 10.326 9.42969C10.626 10.3353 11.9817 11.4266 12.742 11.915C10.1629 13.3485 7.03165 13.0935 6.00977 13.1319Z" fill="#F4C534"/>
<path d="M11.4473 11.8728C10.8257 11.3487 9.40819 10.8134 7.9035 10.8603C6.65193 10.9259 5.37411 11.269 4.43848 12.1878C4.43848 12.1878 6.76536 12.0219 7.93068 11.9966C8.95257 11.9272 10.2604 11.9834 11.4473 11.8728Z" fill="#3E4347"/>
<path d="M28.6386 16.1567C28.0939 16.2055 27.5436 15.852 27.3701 15.3364C27.2107 14.8752 27.3429 14.3633 27.2454 13.8851C27.1348 13.3376 26.7289 12.8464 26.0811 12.6701C27.7076 12.3411 28.9236 12.9861 29.5029 14.0698C30.1376 15.2689 29.3754 16.0939 28.6386 16.1567Z" fill="#65B1EF"/>
<path d="M26.5249 20.066C25.7552 20.7128 24.693 20.2197 24.7314 19.0431C24.7455 18.1488 26.2587 15.6625 24.6611 14.7344C27.1962 15.9831 27.6715 19.151 26.5249 20.066Z" fill="#65B1EF"/>
<path opacity="0.25" d="M26.5156 19.5349C26.3891 19.7346 26.1894 19.8256 26.0806 19.7534C25.9625 19.6812 25.9709 19.4637 26.0975 19.263C26.2241 19.0634 26.4238 18.9724 26.5419 19.0446C26.66 19.1177 26.6422 19.3352 26.5156 19.5349Z" fill="white"/>
<path opacity="0.25" d="M29.2979 15.346C29.1713 15.5456 28.9716 15.6366 28.8629 15.5644C28.7447 15.4922 28.7532 15.2747 28.8797 15.0741C29.0063 14.8744 29.206 14.7834 29.3241 14.8556C29.4422 14.9278 29.4244 15.1463 29.2979 15.346Z" fill="white"/>
<path d="M28.1679 20.9338C27.9888 20.526 28.166 20.0572 28.2232 19.6119C28.2645 19.1901 28.1876 18.7541 28.002 18.3726C32.0407 20.3694 28.8166 22.4207 28.1679 20.9338Z" fill="#65B1EF"/>
<path opacity="0.25" d="M28.4079 20.6889C28.3789 20.4779 28.5973 20.3673 28.6892 20.6514C28.6892 20.6514 28.6948 20.6533 28.6995 20.6608C28.8288 20.7592 29.0707 20.7142 29.141 20.8605C29.3782 21.2776 28.467 21.2589 28.4079 20.6889Z" fill="white"/>
<path d="M1.3466 16.2048C1.89129 16.2517 2.43973 15.8964 2.61223 15.3798C2.76973 14.9185 2.63567 14.4067 2.73223 13.9276C2.84098 13.3801 3.24505 12.887 3.89193 12.7088C2.26348 12.3854 1.05035 13.0342 0.47472 14.1198C-0.155284 15.3226 0.60972 16.1439 1.3466 16.2048Z" fill="#65B1EF"/>
<path d="M3.47457 20.1067C4.24707 20.7508 5.30739 20.2539 5.26426 19.0773C5.24739 18.1829 3.72582 15.7023 5.31958 14.7676C2.78831 16.0257 2.32425 19.1954 3.47457 20.1067Z" fill="#65B1EF"/>
<path opacity="0.25" d="M3.48201 19.575C3.60951 19.7738 3.8092 19.8647 3.91795 19.7916C4.03607 19.7184 4.0267 19.5009 3.8992 19.3012C3.7717 19.1025 3.57201 19.0116 3.45388 19.0847C3.33576 19.1578 3.35451 19.3753 3.48201 19.575Z" fill="white"/>
<path opacity="0.25" d="M0.684752 15.3959C0.812253 15.5946 1.01194 15.6856 1.12069 15.6125C1.23882 15.5393 1.22944 15.3218 1.10194 15.1221C0.974442 14.9234 0.774753 14.8334 0.656627 14.9056C0.539438 14.9787 0.557251 15.1962 0.684752 15.3959Z" fill="white"/>
<path d="M1.83472 20.9807C2.01191 20.5729 1.83379 20.1041 1.77472 19.6588C1.7316 19.2369 1.80753 18.801 1.99222 18.4194C-2.04093 20.4285 1.19066 22.4685 1.83472 20.9807Z" fill="#65B1EF"/>
<path opacity="0.25" d="M1.5932 20.7361C1.62132 20.5251 1.40288 20.4145 1.31195 20.6995C1.31195 20.6995 1.30632 20.7014 1.30163 20.7089C1.17226 20.8083 0.931319 20.7633 0.861006 20.9104C0.625692 21.3286 1.53695 21.3061 1.5932 20.7361Z" fill="white"/>
<path d="M20.7246 26.3777C17.0514 27.918 13.7795 25.3464 11.8811 23.988C10.727 23.1639 9.41263 23.7836 8.54169 24.4023C8.06169 24.7483 7.3895 24.468 7.27043 23.8961C5.58574 15.631 12.7267 14.8295 18.4764 17.3242C23.5802 19.5385 24.3883 24.8467 20.7246 26.3777Z" fill="#3E4347"/>
<path d="M15.5776 21.3077C14.9691 21.4493 14.2998 21.4474 13.5648 21.2815L13.5385 21.2749C11.821 20.8868 9.99848 21.6659 9.3816 23.3224C9.30004 23.5418 9.24098 23.7715 9.18848 24.004C9.99473 23.5803 10.9847 23.3478 11.8801 23.9871C13.4626 25.1187 15.9985 27.0837 18.9245 26.8203C18.9938 26.6271 19.0529 26.4293 19.0998 26.225C19.3623 25.0653 19.2104 23.9234 18.736 22.9324C18.1763 21.7465 16.861 21.0209 15.5776 21.3077Z" fill="#E24B4B"/>
</g>
<defs>
<clipPath id="clip0_307_171870">
<rect width="30" height="30" fill="white"/>
</clipPath>
</defs>
</svg>
