<svg width="30" height="30" viewBox="0 0 30 30" fill="none" xmlns="http://www.w3.org/2000/svg">
<g clip-path="url(#clip0_307_172339)">
<path d="M14.9999 27.2786C22.1316 27.2786 27.9129 21.4973 27.9129 14.3656C27.9129 7.23398 22.1316 1.45264 14.9999 1.45264C7.86826 1.45264 2.08691 7.23398 2.08691 14.3656C2.08691 21.4973 7.86826 27.2786 14.9999 27.2786Z" fill="#FFD93B"/>
<path d="M27.913 14.3653C27.913 21.4996 22.1306 27.2783 15 27.2783C10.9407 27.2783 7.31728 25.4061 4.94824 22.4717C7.16353 24.2633 9.98444 25.333 13.0547 25.333C20.1853 25.333 25.9677 19.5543 25.9677 12.42C25.9677 9.34874 24.898 6.52877 23.1065 4.31348C26.0362 6.68252 27.913 10.3059 27.913 14.3653Z" fill="#F4C534"/>
<path d="M16.5064 11.2876C15.552 13.7841 8.91832 15.5625 8.91832 15.5625C8.91832 15.5625 5.16085 9.81382 6.11522 7.31634C6.67959 5.83979 8.33614 5.10292 9.81269 5.66729C10.9789 6.1126 11.6839 7.23666 11.6483 8.4179C12.4095 7.51415 13.6892 7.14853 14.8555 7.59478C16.3329 8.15915 17.0707 9.81007 16.5064 11.2876Z" fill="#E24B4B"/>
<path d="M24.4182 5.21266C24.7566 7.1917 21.1482 10.877 21.1482 10.877C21.1482 10.877 16.5217 8.59794 16.1833 6.6189C15.9836 5.44891 16.772 4.33892 17.9429 4.13923C18.8673 3.98173 19.7523 4.43829 20.1807 5.21453C20.3279 4.33986 21.0142 3.61424 21.9385 3.4558C23.1094 3.25799 24.2185 4.04267 24.4182 5.21266Z" fill="#E24B4B"/>
<path d="M16.1599 2.99743C15.6621 4.2593 12.2834 5.12273 12.2834 5.12273C12.2834 5.12273 10.4065 2.18088 10.9043 0.91808C11.1987 0.171837 12.0443 -0.192847 12.7915 0.102463C13.3812 0.335898 13.7327 0.91058 13.7093 1.51057C14.1012 1.05683 14.7527 0.878705 15.3424 1.1112C16.0887 1.40745 16.4543 2.25025 16.1599 2.99743Z" fill="#E24B4B"/>
<path d="M18.9075 22.2762C18.9769 26.1283 17.6382 28.083 15.001 27.9808C12.3648 28.0783 11.026 26.1292 11.0954 22.2762C11.0251 18.4324 12.3657 16.475 15.001 16.5781C17.6372 16.4759 18.9778 18.4334 18.9075 22.2762Z" fill="#FFD93B"/>
<path d="M13.1696 26.6568C11.5102 25.1746 11.5121 19.381 13.1696 17.8988C13.9983 17.1591 15.9924 17.1451 16.8342 17.8997C18.503 19.3913 18.4842 25.1831 16.8342 26.6596C15.9652 27.4368 13.9758 27.3778 13.1696 26.6568Z" fill="#3E4347"/>
<path d="M15.0019 19.0024C15.8916 19.0024 16.7316 18.9602 17.4863 18.8871C17.3082 18.4783 17.0935 18.1324 16.8338 17.9008C15.9919 17.1471 13.9979 17.1602 13.1691 17.8999C12.9104 18.1315 12.6966 18.4774 12.5176 18.8871C13.2732 18.9611 14.1122 19.0024 15.0019 19.0024Z" fill="white"/>
<path d="M18.0719 23.0108C17.7044 26.7627 16.4707 29.5245 15.0045 29.5245C13.5326 29.5245 12.2998 26.7523 11.9314 22.9902C11.8536 22.1868 12.5998 21.5699 13.3826 21.7518C14.471 21.9955 15.5491 22.0105 16.616 21.7724C17.4082 21.5961 18.1544 22.2074 18.0719 23.0108Z" fill="#E24B4B"/>
<path d="M16.9308 25.1289V26.9411C16.9308 27.1333 16.7864 27.2786 16.5999 27.2786C16.4133 27.2786 16.2624 27.1342 16.2624 26.9411V28.0248C16.2624 28.2179 16.1114 28.3623 15.9249 28.3623C15.7439 28.3623 15.5874 28.2179 15.5874 28.0248V26.9411C15.5874 27.1333 15.443 27.2786 15.2499 27.2786C15.0689 27.2786 14.9189 27.1342 14.9189 26.9411V25.7364C14.9189 25.5555 15.0699 25.3989 15.2499 25.3989C15.443 25.3989 15.5874 25.5555 15.5874 25.7364V24.1886C15.5874 24.0077 15.7439 23.8521 15.9249 23.8521C16.1114 23.8521 16.2624 24.0086 16.2624 24.1886V25.128C16.2624 24.947 16.4133 24.7905 16.5999 24.7905C16.7864 24.7914 16.9308 24.948 16.9308 25.1289Z" fill="#65B1EF"/>
<path d="M15.2527 30.0002C15.437 30.0002 15.5865 29.8491 15.5865 29.6627C15.5865 29.4763 15.437 29.3252 15.2527 29.3252C15.0684 29.3252 14.9189 29.4763 14.9189 29.6627C14.9189 29.8491 15.0684 30.0002 15.2527 30.0002Z" fill="#65B1EF"/>
<path d="M16.5984 29.2292C16.7827 29.2292 16.9321 29.0781 16.9321 28.8917C16.9321 28.7053 16.7827 28.5542 16.5984 28.5542C16.4141 28.5542 16.2646 28.7053 16.2646 28.8917C16.2646 29.0781 16.4141 29.2292 16.5984 29.2292Z" fill="#65B1EF"/>
</g>
<defs>
<clipPath id="clip0_307_172339">
<rect width="30" height="30" fill="white"/>
</clipPath>
</defs>
</svg>
