<svg width="30" height="30" viewBox="0 0 30 30" fill="none" xmlns="http://www.w3.org/2000/svg">
<g clip-path="url(#clip0_307_171859)">
<path d="M15 30C23.2843 30 30 23.2843 30 15C30 6.71573 23.2843 0 15 0C6.71573 0 0 6.71573 0 15C0 23.2843 6.71573 30 15 30Z" fill="#FFD93B"/>
<path d="M29.9998 14.9998C29.9998 23.2873 23.2826 29.9998 14.9998 29.9998C10.2842 29.9998 6.0748 27.8248 3.32324 24.417C5.89668 26.4982 9.17324 27.7404 12.7404 27.7404C21.0232 27.7404 27.7404 21.0279 27.7404 12.7404C27.7404 9.17324 26.4982 5.89668 24.417 3.32324C27.8201 6.0748 29.9998 10.2842 29.9998 14.9998Z" fill="#F4C534"/>
<path d="M16.5986 4.63438C16.5986 4.63438 22.9736 3.6875 25.083 6.58719C25.083 6.58719 24.4389 0.000313282 16.5986 4.63438Z" fill="#3E4347"/>
<path d="M13.4033 4.63438C13.4033 4.63438 7.02832 3.6875 4.91895 6.58719C4.91895 6.58719 5.56301 0.000313282 13.4033 4.63438Z" fill="#3E4347"/>
<path d="M20.4774 17.7761C20.5149 23.1854 18.2743 26.8792 15.0024 26.8136C11.7212 26.8792 9.48054 23.1854 9.51804 17.7761C9.48054 12.3761 11.7212 8.68231 15.0024 8.74793C18.2743 8.68231 20.5149 12.3761 20.4774 17.7761Z" fill="#3E4347"/>
<path d="M18.3111 19.1162C17.6267 18.5443 16.6799 18.4506 15.883 18.8162C15.1414 19.1406 14.4449 19.2062 13.6799 19.1537C12.2174 19.0225 10.8018 19.735 10.2393 21.1037C10.1361 21.3475 10.0611 21.6006 10.0049 21.8631C10.0077 21.8734 10.0068 21.8884 10.0096 21.8987C10.8355 24.9662 12.6486 26.86 15.0018 26.8131C17.3596 26.86 19.1764 24.9484 19.9967 21.8556C19.7333 20.7718 19.1352 19.8184 18.3111 19.1162Z" fill="#E24B4B"/>
<path d="M10.9355 11.358C12.0634 10.9736 13.4687 10.5171 14.9968 10.5171C16.5258 10.5171 17.9312 10.9736 19.0599 11.3589C18.0924 9.68176 16.6852 8.7152 15.0015 8.74895C13.314 8.71426 11.904 9.68082 10.9355 11.358Z" fill="white"/>
<path d="M19.1726 23.9956C18.1254 24.3509 16.6929 24.949 14.997 24.949C13.302 24.949 11.8695 24.3509 10.8232 23.9965C11.7936 25.8003 13.2467 26.8494 15.0017 26.8147C16.7529 26.8484 18.2032 25.8003 19.1726 23.9956Z" fill="white"/>
</g>
<defs>
<clipPath id="clip0_307_171859">
<rect width="30" height="30" fill="white"/>
</clipPath>
</defs>
</svg>
