<svg width="30" height="30" viewBox="0 0 30 30" fill="none" xmlns="http://www.w3.org/2000/svg">
<g clip-path="url(#clip0_307_172249)">
<path d="M15.0002 29.9995C23.2841 29.9995 29.9995 23.2841 29.9995 15.0002C29.9995 6.71636 23.2841 0.000976562 15.0002 0.000976562C6.71636 0.000976562 0.000976562 6.71636 0.000976562 15.0002C0.000976562 23.2841 6.71636 29.9995 15.0002 29.9995Z" fill="#FFD93B"/>
<path d="M9.08397 22.7088C8.7718 22.4782 8.7043 22.0385 8.93492 21.7254C9.16553 21.4123 9.60613 21.3467 9.9183 21.5764C12.816 23.7109 17.1854 23.7109 20.0822 21.5764C20.3943 21.3467 20.8349 21.4123 21.0655 21.7254C21.2962 22.0376 21.2296 22.4782 20.9165 22.7088C17.4882 25.2352 12.5122 25.2352 9.08397 22.7088Z" fill="#3E4347"/>
<path d="M29.9985 15.0002C29.9985 23.2873 23.2816 29.9995 14.9992 29.9995C10.2838 29.9995 6.07467 27.8246 3.32324 24.4169C5.89655 26.4981 9.17295 27.7402 12.74 27.7402C21.0224 27.7402 27.7392 21.028 27.7392 12.7409C27.7392 9.17393 26.4971 5.89753 24.4159 3.32422C27.8189 6.07564 29.9985 10.2848 29.9985 15.0002Z" fill="#F4C534"/>
<path d="M7.71973 18.6665C10.3043 18.9393 12.8054 17.2303 12.842 15.1351C12.8626 13.9998 12.0976 13.1027 11.0327 12.4746L5.56641 17.9409C6.17669 18.3224 6.9079 18.5831 7.71973 18.6665Z" fill="#38C0DC"/>
<path d="M3.96683 16.1288L8.52659 11.569C8.34848 11.5362 8.17036 11.5071 7.99506 11.4865C7.91162 11.4771 7.831 11.4734 7.74945 11.4668L3.75684 15.4594C3.80183 15.6882 3.87308 15.9122 3.96683 16.1288Z" fill="#38C0DC"/>
<path d="M9.90709 11.9466C9.58367 11.8275 9.25087 11.7272 8.91526 11.6494L4.12207 16.4426C4.26831 16.7079 4.44924 16.9592 4.66204 17.1916L9.90709 11.9466Z" fill="#38C0DC"/>
<path d="M29.6861 10.4056C29.7864 10.8227 29.8867 11.2399 29.987 11.6571C30.047 11.9074 29.8933 12.1586 29.6336 12.2636C28.6484 12.6639 27.935 13.5245 27.7831 14.5303C27.5225 16.2796 26.3375 17.9061 24.3914 18.7414C19.8476 20.6678 15.3675 17.7467 15.4575 13.9819C15.4565 13.906 15.4584 13.831 15.4603 13.7579C15.4678 13.517 15.2587 13.322 15 13.322C14.7413 13.322 14.5322 13.517 14.5397 13.7579C14.5425 13.831 14.5435 13.906 14.5425 13.9819C14.6325 17.7467 10.1524 20.6669 5.6086 18.7414C3.66245 17.9052 2.47751 16.2796 2.2169 14.5303C2.06503 13.5245 1.35257 12.6639 0.366366 12.2636C0.106691 12.1586 -0.0470509 11.9074 0.012946 11.658C0.102941 11.2839 0.191999 10.9099 0.281995 10.5368C0.381365 10.1253 0.67385 9.95652 0.969147 10.025C1.27382 10.0953 1.57849 10.1628 1.8841 10.2293C2.63031 10.3906 3.38121 10.1768 3.96993 9.73434C4.63459 9.23468 5.45111 8.95719 6.40262 8.87751C7.3307 8.7997 8.26159 8.97126 9.13811 9.28811C10.5724 9.80653 11.7339 10.1909 12.6039 10.6652C13.3304 11.0608 14.16 11.2558 15 11.2558C15.839 11.2558 16.6696 11.0608 17.3961 10.6652C18.2661 10.1918 19.4276 9.80746 20.8619 9.28811C21.7384 8.97126 22.6693 8.80064 23.5974 8.87751C24.5498 8.95719 25.3654 9.23468 26.0301 9.7334C26.6188 10.1759 27.3687 10.3896 28.1159 10.2284C28.3793 10.1721 28.6427 10.1131 28.9062 10.0531C29.329 9.95558 29.6177 10.1253 29.6861 10.4056Z" fill="#3E4347"/>
<path d="M12.9138 14.2845C12.8791 16.3104 10.4605 17.9622 7.96125 17.6987C5.4695 17.4437 3.75397 15.4629 4.11676 13.4727C4.47112 11.4731 6.02541 10.5113 8.22561 10.7569C10.4249 11.0156 12.9494 12.2653 12.9138 14.2845Z" fill="#45CBEA"/>
<path d="M12.9138 14.2845C12.8791 16.3104 10.4605 17.9622 7.96125 17.6987C5.4695 17.4437 3.75397 15.4629 4.11676 13.4727C4.47112 11.4731 6.02541 10.5113 8.22561 10.7569C10.4249 11.0156 12.9494 12.2653 12.9138 14.2845Z" fill="#45CBEA"/>
<path d="M17.0873 14.2845C17.122 16.3104 19.5406 17.9622 22.0399 17.6987C24.5316 17.4437 26.2472 15.4629 25.8834 13.4727C25.5281 11.4731 23.9748 10.5113 21.7746 10.7569C19.5762 11.0156 17.0517 12.2653 17.0873 14.2845Z" fill="#45CBEA"/>
<path d="M4.10315 14.4233L9.12509 10.9163C8.82416 10.846 8.5223 10.7917 8.22701 10.757C8.18951 10.7523 8.15295 10.7513 8.11545 10.7485L4.10877 13.5468C4.0619 13.8421 4.06284 14.1356 4.10315 14.4233Z" fill="#38C0DC"/>
<path d="M9.75925 11.0928L4.22266 14.9598C4.39983 15.5044 4.72607 16.0097 5.16573 16.4372L11.5601 11.9712C11.0417 11.5981 10.4164 11.3028 9.75925 11.0928Z" fill="#38C0DC"/>
<path d="M17.0879 14.2847C17.0926 14.5369 17.1338 14.7825 17.2069 15.0197L23.2601 10.7918C22.9001 10.7271 22.5101 10.7074 22.0958 10.7318L17.0907 14.2275C17.0916 14.2472 17.0879 14.265 17.0879 14.2847Z" fill="#38C0DC"/>
<path d="M23.8992 10.9653L17.4102 15.4979C17.6717 16.0013 18.0795 16.4513 18.5885 16.8113L25.3466 12.0912C24.9951 11.5681 24.5048 11.1894 23.8992 10.9653Z" fill="#38C0DC"/>
</g>
<defs>
<clipPath id="clip0_307_172249">
<rect width="30" height="30" fill="white"/>
</clipPath>
</defs>
</svg>
