<svg width="30" height="30" viewBox="0 0 30 30" fill="none" xmlns="http://www.w3.org/2000/svg">
<g clip-path="url(#clip0_307_171842)">
<path d="M15 30C23.2843 30 30 23.2843 30 15C30 6.71573 23.2843 0 15 0C6.71573 0 0 6.71573 0 15C0 23.2843 6.71573 30 15 30Z" fill="#FFD93B"/>
<path d="M29.9998 14.9998C29.9998 23.2873 23.2826 29.9998 14.9998 29.9998C10.2842 29.9998 6.0748 27.8248 3.32324 24.417C5.89668 26.4982 9.17324 27.7404 12.7404 27.7404C21.0232 27.7404 27.7404 21.0279 27.7404 12.7404C27.7404 9.17324 26.4982 5.89668 24.417 3.32324C27.8201 6.0748 29.9998 10.2842 29.9998 14.9998Z" fill="#F4C534"/>
<path d="M13.6559 11.8274C13.6559 11.8274 13.3812 17.5836 7.61842 18.1199C1.86217 18.6496 -0.344707 16.0199 1.58092 9.53333C1.57998 9.53333 8.85217 8.3924 13.6559 11.8274Z" fill="#3E4347"/>
<path d="M16.3428 11.8274C16.3428 11.8274 16.6175 17.5836 22.3803 18.1199C28.1365 18.6496 30.3434 16.0199 28.4178 9.53333C28.4178 9.53333 21.1465 8.3924 16.3428 11.8274Z" fill="#3E4347"/>
<path d="M25.0005 9.35917L18.1914 16.1682C18.6995 16.7167 19.3492 17.2051 20.1742 17.5632L28.2348 9.50824C27.8064 9.45292 26.597 9.32167 25.0005 9.35917Z" fill="#5A5F63"/>
<path d="M22.2404 9.59826L17.1582 14.6805C17.341 15.0423 17.5679 15.4061 17.8416 15.7595L24.211 9.39014C23.5866 9.42764 22.9238 9.49326 22.2404 9.59826Z" fill="#5A5F63"/>
<path d="M5.60039 9.3833L0.931641 14.052C0.971953 14.5949 1.07227 15.0814 1.23258 15.5136L7.21852 9.52768C6.65695 9.45643 6.11414 9.40861 5.60039 9.3833Z" fill="#5A5F63"/>
<path d="M7.88492 9.62158L1.4668 16.0397C1.85773 16.7569 2.44648 17.2941 3.2368 17.6475L10.599 10.29C9.69336 9.97971 8.77461 9.76502 7.88492 9.62158Z" fill="#5A5F63"/>
<path d="M29.4947 9.19707H29.0081C28.9256 9.03395 28.77 8.91957 28.5928 8.88207C27.8419 8.7452 26.7956 8.02614 22.0191 8.73489C19.7034 9.13989 18.1247 9.85614 16.77 10.7271C15.72 11.403 14.3625 11.4555 13.2291 10.7271C11.8753 9.85707 10.2956 9.13989 7.98094 8.73489C3.20437 8.02707 2.15812 8.7452 1.40625 8.88207C1.22812 8.91957 1.07438 9.03395 0.990938 9.19707H0.504375C0.225 9.19707 0 9.42207 0 9.70145V11.1039C0 11.3824 0.225 11.6083 0.504375 11.6083C0.420937 12.1764 0.364688 12.7521 0.364688 13.3239C0.364688 14.5389 0.615937 15.7333 1.38656 16.7918C3.42375 19.3089 8.23312 18.7577 10.0406 17.973C11.2706 17.4949 12.5034 16.3971 13.3453 14.8586C14.0803 13.5133 15.9741 13.6155 16.6612 14.868C17.5022 16.4018 18.7331 17.4958 19.9603 17.973C21.7688 18.7577 26.5772 19.3089 28.6144 16.7918C29.7469 15.2346 29.7581 13.3821 29.4966 11.6074C29.6362 11.6074 29.7628 11.5511 29.8538 11.4602C29.9438 11.3683 30 11.2427 30 11.1039V9.70145C30 9.42207 29.7741 9.19707 29.4947 9.19707ZM5.6325 17.7246C1.27406 17.2755 0.717187 14.4714 2.06344 10.2311C3.945 10.3671 4.61156 10.1102 7.69875 10.4852C10.9434 11.0627 11.7497 11.5155 12.9506 12.2018C12.5747 16.2583 9.70594 17.7827 5.6325 17.7246ZM24.3675 17.7246C20.2931 17.7827 17.4253 16.2583 17.0475 12.2027C18.2484 11.5164 19.0547 11.0636 22.3003 10.4861C25.3875 10.1102 26.0541 10.368 27.9347 10.2321C29.2809 14.4714 28.725 17.2764 24.3675 17.7246Z" fill="#E9EFF4"/>
<path d="M18.1922 8.20216L16.9341 7.21779C16.6284 6.97872 16.5741 6.53622 16.8131 6.2306C17.0522 5.92591 17.4937 5.8706 17.8003 6.1106L18.66 6.78372C20.4403 5.65123 22.4794 4.86748 24.8756 4.39029C25.2581 4.3106 25.6265 4.56092 25.7025 4.94248C25.7784 5.3231 25.5309 5.69341 25.1503 5.76935C22.7475 6.24841 20.7431 7.05279 19.0228 8.23028C18.7706 8.40091 18.4331 8.39153 18.1922 8.20216Z" fill="#F4C534"/>
<path d="M10.9765 8.22854C9.25624 7.05198 7.25092 6.24667 4.84811 5.76761C4.46749 5.69167 4.21999 5.32136 4.29592 4.94074C4.37374 4.56011 4.74592 4.31261 5.1228 4.38949C7.51905 4.86668 9.55717 5.65136 11.3384 6.78292L12.1981 6.1098C12.5037 5.8698 12.9453 5.92511 13.1853 6.2298C13.4244 6.53542 13.37 6.97792 13.0644 7.21698L11.8062 8.20136C11.5709 8.38792 11.2353 8.40386 10.9765 8.22854Z" fill="#F4C534"/>
<path d="M15.6145 24.4981C15.4541 24.4981 15.2929 24.439 15.1663 24.3218C14.7154 23.9009 13.7395 23.9215 13.432 23.9609C13.087 24.0134 12.7438 23.7556 12.696 23.3956C12.6491 23.0365 12.9023 22.7065 13.2623 22.6596C13.4432 22.6353 15.0838 22.4496 16.0616 23.3609C16.326 23.6084 16.341 24.0237 16.0935 24.2881C15.9651 24.4278 15.7898 24.4981 15.6145 24.4981Z" fill="#F4C534"/>
<path d="M21.8728 25.2385C21.6047 25.4664 21.1913 25.4551 20.9447 25.1729C16.5572 20.1386 10.5291 21.4979 9.15096 21.9011L9.26346 22.426C9.34783 22.7729 9.12283 23.1292 8.76658 23.2042C8.37096 23.2829 8.05877 23.0373 7.98846 22.7073L7.4822 20.4948C7.4072 20.1386 7.6322 19.7917 7.97908 19.7073C8.33533 19.6323 8.69158 19.8573 8.76658 20.2042L8.86033 20.6167C10.576 20.1573 17.1853 18.8729 21.9385 24.3104C22.1728 24.5823 22.1447 24.9948 21.8728 25.2385Z" fill="#3E4347"/>
</g>
<defs>
<clipPath id="clip0_307_171842">
<rect width="30" height="30" fill="white"/>
</clipPath>
</defs>
</svg>
