<svg width="30" height="30" viewBox="0 0 30 30" fill="none" xmlns="http://www.w3.org/2000/svg">
<g clip-path="url(#clip0_307_171754)">
<path d="M15 30C23.2843 30 30 23.2843 30 15C30 6.71573 23.2843 0 15 0C6.71573 0 0 6.71573 0 15C0 23.2843 6.71573 30 15 30Z" fill="#FFD93B"/>
<path d="M29.9285 15.0003C29.9285 23.2878 23.2113 30.0003 14.9285 30.0003C10.2129 30.0003 6.00352 27.8253 3.25195 24.4175C5.82539 26.4987 9.10195 27.7409 12.6691 27.7409C20.952 27.7409 27.6691 21.0284 27.6691 12.7409C27.6691 9.17373 26.427 5.89717 24.3457 3.32373C27.7488 6.07529 29.9285 10.2847 29.9285 15.0003Z" fill="#F4C534"/>
<path d="M15.0007 17.0603C18.6934 17.0603 21.687 14.0685 21.687 10.3778C21.687 6.68717 18.6934 3.69531 15.0007 3.69531C11.308 3.69531 8.31445 6.68717 8.31445 10.3778C8.31445 14.0685 11.308 17.0603 15.0007 17.0603Z" fill="white"/>
<path d="M15.0003 14.3216C17.1708 14.3216 18.9303 12.5604 18.9303 10.3879C18.9303 8.2153 17.1708 6.4541 15.0003 6.4541C12.8298 6.4541 11.0703 8.2153 11.0703 10.3879C11.0703 12.5604 12.8298 14.3216 15.0003 14.3216Z" fill="#3E4347"/>
<path d="M17.1895 8.34414C16.7743 7.92889 16.2106 7.81932 15.9304 8.09942C15.6503 8.37952 15.7598 8.94321 16.175 9.35847C16.5902 9.77372 17.1539 9.88329 17.434 9.60319C17.7141 9.32309 17.6046 8.75939 17.1895 8.34414Z" fill="white"/>
<path d="M23.7194 20.7871C22.3094 24.2193 18.9391 26.6325 15.0007 26.6325C11.0622 26.6325 7.6919 24.2203 6.27347 20.7871C6.14034 20.4684 6.36253 20.0953 6.70847 20.025C12.2341 18.9956 17.7691 18.9956 23.2853 20.025C23.6303 20.0953 23.8525 20.4675 23.7194 20.7871Z" fill="#3E4347"/>
<path d="M6.90918 19.9917C7.95543 21.6952 11.2311 21.878 15.1395 21.878C18.9964 21.878 22.2786 21.6952 23.3698 20.062C23.3407 20.0508 23.3164 20.0302 23.2854 20.0236C17.8348 19.0083 12.3682 18.9998 6.90918 19.9917Z" fill="white"/>
</g>
<defs>
<clipPath id="clip0_307_171754">
<rect width="30" height="30" fill="white"/>
</clipPath>
</defs>
</svg>
