<svg width="40" height="40" viewBox="0 0 40 40" fill="none" xmlns="http://www.w3.org/2000/svg">
<circle cx="20" cy="20" r="20" fill="#E6E9FD"/>
<g clip-path="url(#clip0_314_220814)">
<path d="M20.9203 8C22.3357 8 23.4992 9.06944 23.6508 10.4444H25.8056C26.5024 10.4444 27.1732 10.7088 27.6826 11.1843C28.1919 11.6599 28.5018 12.311 28.5494 13.0062L28.5556 13.1944V15.0241C28.5555 15.2564 28.4673 15.4799 28.3087 15.6496C28.1501 15.8193 27.9331 15.9225 27.7014 15.9384C27.4697 15.9542 27.2406 15.8815 27.0604 15.7349C26.8802 15.5884 26.7624 15.3789 26.7308 15.1488L26.7222 15.0241V13.1944C26.7222 12.9729 26.642 12.7589 26.4964 12.592C26.3508 12.425 26.1497 12.3165 25.9302 12.2863L25.8056 12.2778H23.1998C22.7072 13.0111 21.87 13.4914 20.9203 13.4914H16.6352C16.1848 13.4919 15.7413 13.3813 15.3437 13.1697C14.9462 12.958 14.6069 12.6517 14.3558 12.2778H11.75C11.5285 12.2778 11.3145 12.358 11.1475 12.5036C10.9806 12.6492 10.872 12.8503 10.8419 13.0698L10.8333 13.1944V29.7006C10.8333 30.165 11.178 30.5476 11.6253 30.6087L11.75 30.6172H13.5894C13.8217 30.6173 14.0453 30.7055 14.215 30.8641C14.3847 31.0226 14.4879 31.2397 14.5037 31.4714C14.5195 31.7031 14.4468 31.9322 14.3002 32.1124C14.1537 32.2925 13.9442 32.4103 13.7141 32.442L13.5894 32.4506H11.75C11.0532 32.4506 10.3823 32.1862 9.87297 31.7107C9.36363 31.2351 9.0538 30.584 9.00611 29.8888L9 29.7006V13.1944C8.99991 12.4976 9.26436 11.8268 9.7399 11.3174C10.2154 10.8081 10.8666 10.4982 11.5618 10.4506L11.75 10.4444H13.9048C13.9791 9.77231 14.2988 9.15123 14.8026 8.70018C15.3065 8.24913 15.959 7.99981 16.6352 8H20.9203ZM27.0278 17.7778C27.5494 17.7778 28.0659 17.8805 28.5479 18.0801C29.0298 18.2798 29.4677 18.5724 29.8366 18.9412C30.2054 19.3101 30.498 19.748 30.6976 20.2299C30.8973 20.7118 31 21.2284 31 21.75V28.4722C31 28.9939 30.8973 29.5104 30.6976 29.9923C30.498 30.4743 30.2054 30.9122 29.8366 31.281C29.4677 31.6499 29.0298 31.9425 28.5479 32.1421C28.0659 32.3417 27.5494 32.4444 27.0278 32.4444H20.3056C19.7839 32.4444 19.2674 32.3417 18.7855 32.1421C18.3035 31.9425 17.8656 31.6499 17.4968 31.281C17.1279 30.9122 16.8353 30.4743 16.6357 29.9923C16.4361 29.5104 16.3333 28.9939 16.3333 28.4722V21.75C16.3333 20.6965 16.7518 19.6862 17.4968 18.9412C18.2417 18.1963 19.2521 17.7778 20.3056 17.7778H27.0278ZM27.7452 30.4889L24.3144 27.0544C24.1592 26.8992 23.9535 26.8048 23.7346 26.7884C23.5156 26.7721 23.2981 26.8348 23.1216 26.9652L23.0189 27.0544L19.5869 30.4864C19.8118 30.5659 20.0538 30.6099 20.3056 30.6099H27.0278C27.2796 30.6099 27.5203 30.5671 27.7452 30.4877L24.3144 27.0544L27.7452 30.4864V30.4889ZM27.0278 19.6111H20.3056C19.7383 19.6111 19.1943 19.8365 18.7931 20.2376C18.392 20.6387 18.1667 21.1827 18.1667 21.75V28.4722C18.1667 28.724 18.2107 28.966 18.2901 29.1909L21.7221 25.7589C22.2115 25.2693 22.8674 24.9823 23.5591 24.9551C24.2508 24.9279 24.9273 25.1626 25.4536 25.6122L25.6112 25.7589L29.0432 29.1909C29.1227 28.966 29.1667 28.724 29.1667 28.4722V21.75C29.1667 21.1827 28.9413 20.6387 28.5402 20.2376C28.1391 19.8365 27.595 19.6111 27.0278 19.6111ZM26.1111 21.4469C26.4353 21.4469 26.7461 21.5757 26.9754 21.8049C27.2046 22.0341 27.3333 22.345 27.3333 22.6691C27.3333 22.9933 27.2046 23.3041 26.9754 23.5334C26.7461 23.7626 26.4353 23.8913 26.1111 23.8913C25.787 23.8913 25.4761 23.7626 25.2469 23.5334C25.0177 23.3041 24.8889 22.9933 24.8889 22.6691C24.8889 22.345 25.0177 22.0341 25.2469 21.8049C25.4761 21.5757 25.787 21.4469 26.1111 21.4469ZM20.9203 9.83333H16.6352C16.5126 9.82884 16.3903 9.84912 16.2757 9.89295C16.1611 9.93678 16.0565 10.0033 15.9682 10.0884C15.8798 10.1736 15.8095 10.2757 15.7616 10.3886C15.7136 10.5016 15.6888 10.623 15.6888 10.7457C15.6888 10.8684 15.7136 10.9899 15.7616 11.1028C15.8095 11.2157 15.8798 11.3178 15.9682 11.403C16.0565 11.4882 16.1611 11.5547 16.2757 11.5985C16.3903 11.6423 16.5126 11.6626 16.6352 11.6581H20.9203C21.043 11.6626 21.1652 11.6423 21.2798 11.5985C21.3945 11.5547 21.4991 11.4882 21.5874 11.403C21.6757 11.3178 21.746 11.2157 21.794 11.1028C21.842 10.9899 21.8667 10.8684 21.8667 10.7457C21.8667 10.623 21.842 10.5016 21.794 10.3886C21.746 10.2757 21.6757 10.1736 21.5874 10.0884C21.4991 10.0033 21.3945 9.93678 21.2798 9.89295C21.1652 9.84912 21.043 9.82884 20.9203 9.83333Z" fill="#474747"/>
</g>
<defs>
<clipPath id="clip0_314_220814">
<rect width="24" height="24" fill="white" transform="translate(8 8)"/>
</clipPath>
</defs>
</svg>
