<svg width="30" height="30" viewBox="0 0 30 30" fill="none" xmlns="http://www.w3.org/2000/svg">
<g clip-path="url(#clip0_307_172144)">
<path d="M15 30C23.2843 30 30 23.2843 30 15C30 6.71573 23.2843 0 15 0C6.71573 0 0 6.71573 0 15C0 23.2843 6.71573 30 15 30Z" fill="#FFD93B"/>
<path d="M29.9998 15.0003C29.9998 23.2878 23.2826 30.0003 14.9998 30.0003C10.2842 30.0003 6.0748 27.8253 3.32324 24.4175C5.89668 26.4987 9.17324 27.7409 12.7404 27.7409C21.0232 27.7409 27.7404 21.0284 27.7404 12.7409C27.7404 9.17373 26.4982 5.89717 24.417 3.32373C27.8201 6.07529 29.9998 10.2847 29.9998 15.0003Z" fill="#F4C534"/>
<path d="M9.39906 22.575C10.4247 20.7225 12.46 19.3153 14.9791 19.3228C17.4662 19.3162 19.4631 20.6944 20.4747 22.5197C20.8759 23.2444 20.1756 24.1144 19.4716 23.7937C16.4809 22.4569 13.4491 22.5197 10.3778 23.8565C9.66906 24.1697 8.99968 23.2997 9.39906 22.575Z" fill="#3E4347"/>
<path d="M20.1018 23.5753V28.1315C20.1018 28.4222 19.8674 28.6565 19.5768 28.6565C19.2861 28.6565 19.0611 28.4222 19.0611 28.1315V25.4878C19.0611 25.7784 18.8174 26.0128 18.5268 26.0128C18.2455 26.0128 18.0018 25.7784 18.0018 25.4878V26.2753C18.0018 26.5753 17.7674 26.8003 17.4768 26.8003C17.1861 26.8003 16.9518 26.5753 16.9518 26.2753V28.1315C16.9518 28.4222 16.7174 28.6565 16.4268 28.6565C16.1361 28.6565 15.9018 28.4222 15.9018 28.1315V24.4472C15.9018 24.7378 15.6674 24.9722 15.3768 24.9722C15.0861 24.9722 14.8518 24.7378 14.8518 24.4472V26.7065C14.8518 26.9972 14.6174 27.2315 14.3268 27.2315C14.0361 27.2315 13.8018 26.9972 13.8018 26.7065V22.8984L15.4124 22.574C16.8139 22.2918 18.2736 22.3903 19.6143 22.8862C19.618 22.8872 19.6208 22.889 19.6236 22.89C19.9049 22.9847 20.1018 23.2753 20.1018 23.5753Z" fill="white"/>
<path d="M18.528 29.5775C18.8169 29.5775 19.0511 29.3433 19.0511 29.0544C19.0511 28.7655 18.8169 28.5312 18.528 28.5312C18.2391 28.5312 18.0049 28.7655 18.0049 29.0544C18.0049 29.3433 18.2391 29.5775 18.528 29.5775Z" fill="white"/>
<path d="M12.6605 13.8065C12.6408 14.1178 12.5545 14.414 12.4092 14.684C12.0342 13.7831 10.9842 13.5749 9.74298 13.5749C8.50923 13.5749 7.45173 13.7831 7.08329 14.684C6.93798 14.414 6.84517 14.1178 6.82548 13.8065C6.73736 12.4068 8.04985 11.4478 9.74298 11.4478C11.4427 11.4468 12.7477 12.4068 12.6605 13.8065Z" fill="#3E4347"/>
<path d="M23.3812 13.8065C23.3615 14.1178 23.2753 14.414 23.1299 14.684C22.7549 13.7831 21.7049 13.5749 20.4637 13.5749C19.2299 13.5749 18.1724 13.7831 17.804 14.684C17.6587 14.414 17.5659 14.1178 17.5462 13.8065C17.4581 12.4068 18.7706 11.4478 20.4637 11.4478C22.1634 11.4468 23.4684 12.4068 23.3812 13.8065Z" fill="#3E4347"/>
<path d="M19.2446 8.55025C19.209 8.20806 19.4556 7.90056 19.7978 7.864C19.9243 7.84994 22.9046 7.55838 24.6774 10.0437C24.8781 10.3249 24.8124 10.7149 24.5312 10.9156C24.2499 11.1171 23.8599 11.0515 23.6593 10.7693C22.3178 8.88963 20.0274 9.09682 19.9299 9.10713C19.5868 9.14088 19.2793 8.89244 19.2446 8.55025Z" fill="#E9B02C"/>
<path d="M11.5995 10.2602C11.5264 10.1964 9.77796 8.70297 7.59546 9.45953C7.26827 9.57297 6.91296 9.4014 6.79952 9.07422C6.68608 8.74797 6.85858 8.39172 7.18389 8.27922C10.0686 7.27797 12.3308 9.23828 12.4255 9.32265C12.6842 9.5514 12.7086 9.94609 12.4789 10.2048C12.2511 10.4627 11.8573 10.487 11.5995 10.2602Z" fill="#E9B02C"/>
</g>
<defs>
<clipPath id="clip0_307_172144">
<rect width="30" height="30" fill="white"/>
</clipPath>
</defs>
</svg>
