<svg width="30" height="30" viewBox="0 0 30 30" fill="none" xmlns="http://www.w3.org/2000/svg">
<path d="M15 30C22.9223 30 29.3447 23.5776 29.3447 15.6552C29.3447 7.73289 22.9223 1.31055 15 1.31055C7.07761 1.31055 0.655273 7.73289 0.655273 15.6552C0.655273 23.5776 7.07761 30 15 30Z" fill="#FFD93B"/>
<path d="M22.6488 21.5659C21.2594 24.3897 18.3541 26.3265 15.0016 26.3265C11.6398 26.3265 8.73539 24.3812 7.34507 21.5481C6.99539 20.8487 7.59632 20.0603 8.37632 20.1765C12.7873 20.8581 17.1982 20.8853 21.6176 20.1943C22.3891 20.0687 22.9985 20.8571 22.6488 21.5659Z" fill="#3E4347"/>
<path d="M22.6488 21.5659C21.2594 24.3897 18.3541 26.3265 15.0016 26.3265C11.6398 26.3265 8.73539 24.3812 7.34507 21.5481C6.99539 20.8487 7.59632 20.0603 8.37632 20.1765C12.7873 20.8581 17.1982 20.8853 21.6176 20.1943C22.3891 20.0687 22.9985 20.8571 22.6488 21.5659Z" fill="#3E4347"/>
<path d="M29.3452 15.6549C29.3452 23.5805 22.9215 29.9996 15.0005 29.9996C10.4912 29.9996 6.46555 27.9192 3.83398 24.6605C6.29492 26.6508 9.42805 27.8386 12.8396 27.8386C20.7605 27.8386 27.1843 21.4195 27.1843 13.4939C27.1843 10.0823 25.9965 6.94922 24.0062 4.48828C27.2602 7.12078 29.3452 11.1455 29.3452 15.6549Z" fill="#F4C534"/>
<path d="M21.3454 20.2306C17.1022 20.8653 12.8675 20.84 8.63379 20.2109C9.62848 21.7859 12.5919 22.3559 14.99 22.3559C17.3854 22.355 20.3497 21.7878 21.3454 20.2306Z" fill="white"/>
<path d="M15.001 26.3255C16.4101 26.3255 17.7301 25.9674 18.901 25.3618C18.7989 24.7637 18.5645 24.2124 18.2167 23.7399C17.6073 22.8971 16.4776 22.673 15.5185 23.0677C14.972 23.2918 14.3439 23.4174 13.636 23.4174C13.6267 23.4174 13.6267 23.4174 13.6267 23.4174C12.4164 23.4174 11.2961 24.1618 11.0898 25.3449C11.0889 25.3487 11.0898 25.3524 11.0889 25.3552C12.2626 25.9646 13.5864 26.3255 15.001 26.3255Z" fill="#E24B4B"/>
<path d="M16.4249 14.8819C15.9946 12.6366 16.2411 8.70096 18.629 8.42815C21.0168 8.15534 24.643 11.6494 25.0733 13.8947C25.5036 16.14 23.9165 18.1819 21.5277 18.4547C19.1399 18.7256 16.8552 17.1272 16.4249 14.8819Z" fill="white"/>
<path d="M13.5753 14.8819C14.0056 12.6366 13.759 8.70096 11.3712 8.42815C8.98339 8.15534 5.35714 11.6494 4.92683 13.8947C4.49652 16.14 6.08371 18.1819 8.47246 18.4547C10.8603 18.7256 13.145 17.1272 13.5753 14.8819Z" fill="white"/>
<path d="M10.5453 14.9885C11.615 14.9885 12.4821 14.1213 12.4821 13.0516C12.4821 11.9819 11.615 11.1147 10.5453 11.1147C9.47557 11.1147 8.6084 11.9819 8.6084 13.0516C8.6084 14.1213 9.47557 14.9885 10.5453 14.9885Z" fill="#3E4347"/>
<path d="M10.6138 12.4074C10.9561 12.4074 11.2335 12.2328 11.2335 12.0174C11.2335 11.802 10.9561 11.6274 10.6138 11.6274C10.2716 11.6274 9.99414 11.802 9.99414 12.0174C9.99414 12.2328 10.2716 12.4074 10.6138 12.4074Z" fill="white"/>
<path d="M19.4564 14.9909C20.5261 14.9909 21.3933 14.1238 21.3933 13.0541C21.3933 11.9844 20.5261 11.1172 19.4564 11.1172C18.3867 11.1172 17.5195 11.9844 17.5195 13.0541C17.5195 14.1238 18.3867 14.9909 19.4564 14.9909Z" fill="#3E4347"/>
<path d="M19.525 12.4074C19.8672 12.4074 20.1446 12.2328 20.1446 12.0174C20.1446 11.802 19.8672 11.6274 19.525 11.6274C19.1827 11.6274 18.9053 11.802 18.9053 12.0174C18.9053 12.2328 19.1827 12.4074 19.525 12.4074Z" fill="white"/>
<path d="M15.627 5.36377H14.4092V6.58158H15.627V5.36377Z" fill="#65B1EF"/>
<path d="M17.2735 1.99922C17.2735 3.4636 15.4819 3.37079 15.5166 4.94391H14.4094C14.4094 4.5361 14.3953 4.14797 14.5866 3.77766C14.9306 3.09047 16.0922 2.6161 16.0922 1.96172C16.0922 0.948286 14.1956 0.591098 13.8413 2.16797L12.7266 2.02735C12.8888 -0.764526 17.2735 -0.575152 17.2735 1.99922Z" fill="#65B1EF"/>
<path d="M20.8913 7.30836L21.5967 6.60303L20.8913 5.8977L20.186 6.60303L20.8913 7.30836Z" fill="#65B1EF"/>
<path d="M24.4976 5.60651C23.6501 6.45401 22.6666 5.36276 21.776 6.29464L21.1348 5.65339C21.371 5.41714 21.5876 5.18464 21.9129 5.08057C22.5101 4.88182 23.457 5.27932 23.8357 4.90151C24.4226 4.31464 23.531 3.00964 22.4126 3.71745L21.8482 2.99089C23.5591 1.46745 25.9873 4.11589 24.4976 5.60651Z" fill="#65B1EF"/>
<path d="M9.10619 7.28492L9.81152 6.57959L9.10619 5.87426L8.40086 6.57959L9.10619 7.28492Z" fill="#65B1EF"/>
<path d="M8.11091 2.97396C8.95841 3.82146 7.86716 4.8049 8.79903 5.69552L8.15778 6.33677C7.92153 6.10052 7.68903 5.88396 7.58497 5.55865C7.38622 4.9624 7.78372 4.01458 7.40591 3.63677C6.81903 3.0499 5.51309 3.94052 6.22184 5.05896L5.49528 5.62333C3.97184 3.9124 6.62028 1.48427 8.11091 2.97396Z" fill="#65B1EF"/>
</svg>
