<svg width="30" height="30" viewBox="0 0 30 30" fill="none" xmlns="http://www.w3.org/2000/svg">
<path d="M15.0002 29.3363C23.1011 29.3363 29.6683 22.7691 29.6683 14.6681C29.6683 6.56714 23.1011 0 15.0002 0C6.89917 0 0.332031 6.56714 0.332031 14.6681C0.332031 22.7691 6.89917 29.3363 15.0002 29.3363Z" fill="#FFD93B"/>
<path d="M29.668 14.6683C29.668 22.7721 23.0998 29.3364 14.9998 29.3364C10.3883 29.3364 6.27266 27.2092 3.58203 23.8774C6.09828 25.9127 9.30266 27.1277 12.7911 27.1277C20.8911 27.1277 27.4592 20.5633 27.4592 12.4596C27.4592 8.97111 26.2442 5.76674 24.2089 3.25049C27.5361 5.94111 29.668 10.0567 29.668 14.6683Z" fill="#F4C534"/>
<path d="M21.4781 24.8827C17.1571 24.1102 12.8437 24.1102 8.52275 24.8827C7.63963 25.0355 6.96932 24.0849 7.42775 23.3124C9.27838 20.1971 11.9868 18.2358 15.0009 18.2358C18.0149 18.2358 20.7224 20.1971 22.574 23.3124C23.0324 24.0849 22.3612 25.0355 21.4781 24.8827Z" fill="#3E4347"/>
<path d="M11.0671 19.7988C11.0662 19.8879 11.0615 19.9751 11.0615 20.0651C11.0615 25.5523 12.825 29.9998 15.0009 29.9998C17.1768 29.9998 18.9403 25.5513 18.9403 20.0651C18.9403 19.9751 18.9356 19.8888 18.9346 19.7988H11.0671Z" fill="#E24B4B"/>
<path d="M9.90918 20.2857C11.4279 20.3729 13.1604 20.3991 15.0017 20.3991C16.8429 20.3991 18.5754 20.3729 20.0942 20.2857C18.5979 18.9854 16.8589 18.2354 15.0017 18.2354C13.1445 18.2354 11.4054 18.9854 9.90918 20.2857Z" fill="white"/>
<path d="M24.4786 11.0142C24.1796 11.2935 23.7661 11.2729 23.5074 11.0142C22.1602 9.68479 20.5458 9.1626 18.5564 9.40072C18.1805 9.43729 17.8318 9.17197 17.7952 8.79604C17.7493 8.4201 18.0155 8.08072 18.3914 8.03479C20.7839 7.74135 22.838 8.4201 24.4786 10.0429C24.7449 10.3082 24.7449 10.7395 24.4786 11.0142Z" fill="#3E4347"/>
<path d="M12.0942 13.1597L11.0029 14.2416L12.0942 15.3328C12.4054 15.645 12.4054 16.1484 12.0942 16.4606C11.7426 16.7925 11.2617 16.7653 10.957 16.4606L9.87512 15.3787L8.7848 16.4606C8.46043 16.7841 7.96918 16.7728 7.65699 16.4606C7.3448 16.1484 7.3448 15.645 7.65699 15.3328L8.73887 14.2416L7.65699 13.1597C7.3448 12.8484 7.3448 12.3441 7.65699 12.0225C7.96918 11.7113 8.47262 11.7113 8.7848 12.0225L9.87606 13.1137L10.9579 12.0225C11.2701 11.7113 11.7736 11.7113 12.0951 12.0225C12.4064 12.3441 12.4064 12.8484 12.0942 13.1597Z" fill="#3E4347"/>
<path d="M6.49219 11.0143C6.21375 11.2927 5.77969 11.2731 5.52 11.0143C5.25375 10.7396 5.25375 10.3084 5.52 10.0421C7.16062 8.4193 9.21469 7.74149 11.6072 8.03399C11.9831 8.07993 12.2494 8.4193 12.2034 8.79524C12.1575 9.17118 11.8097 9.43743 11.4422 9.39993C9.45375 9.16274 7.83094 9.68493 6.49219 11.0143Z" fill="#3E4347"/>
<path d="M22.3434 13.1597L21.2616 14.2416L22.3434 15.3328C22.6547 15.645 22.6547 16.1484 22.3434 16.4606C22.0209 16.7831 21.5203 16.7737 21.2063 16.4606L20.1244 15.3787L19.0425 16.4606C18.7191 16.7841 18.2184 16.7728 17.9053 16.4606C17.5941 16.1484 17.5941 15.645 17.9053 15.3328L18.9872 14.2416L17.9062 13.1597C17.595 12.8484 17.595 12.3441 17.9062 12.0225C18.2184 11.7113 18.7312 11.7113 19.0434 12.0225L20.1253 13.1044L21.2072 12.0225C21.5184 11.7113 22.0322 11.7113 22.3444 12.0225C22.6547 12.3441 22.6547 12.8484 22.3434 13.1597Z" fill="#3E4347"/>
</svg>
