<svg width="24" height="24" viewBox="0 0 24 24" fill="none" xmlns="http://www.w3.org/2000/svg">
<path d="M2.22 2.21934C2.09298 2.34633 2.01575 2.51468 2.00236 2.69379C1.98896 2.8729 2.04029 3.05087 2.147 3.19534L2.22 3.27934L6.254 7.31434C4.28703 8.69297 2.88289 10.7344 2.299 13.0643C2.25398 13.2561 2.28624 13.458 2.3888 13.6262C2.49137 13.7944 2.65601 13.9155 2.84714 13.9633C3.03826 14.0111 3.24053 13.9818 3.41022 13.8817C3.57991 13.7816 3.7034 13.6187 3.754 13.4283C4.2729 11.3603 5.5509 9.56329 7.334 8.39434L9.144 10.2043C8.42099 10.9598 8.02259 11.9684 8.03412 13.0141C8.04566 14.0597 8.46621 15.0593 9.2057 15.7986C9.9452 16.538 10.9448 16.9584 11.9905 16.9697C13.0361 16.9811 14.0446 16.5825 14.8 15.8593L20.719 21.7793C20.8528 21.9135 21.0325 21.9921 21.2219 21.9992C21.4113 22.0063 21.5963 21.9415 21.7398 21.8177C21.8834 21.694 21.9747 21.5205 21.9955 21.3321C22.0163 21.1437 21.9651 20.9544 21.852 20.8023L21.779 20.7183L15.666 14.6043L15.667 14.6023L14.467 13.4043L11.597 10.5343H11.599L8.719 7.65734L8.72 7.65534L7.587 6.52534L3.28 2.21934C3.13937 2.07889 2.94875 2 2.75 2C2.55125 2 2.36062 2.07889 2.22 2.21934ZM10.204 11.2643L13.739 14.8003C13.2675 15.2557 12.636 15.5077 11.9805 15.502C11.325 15.4963 10.698 15.2334 10.2345 14.7699C9.77093 14.3064 9.50801 13.6793 9.50231 13.0238C9.49662 12.3684 9.7486 11.7368 10.204 11.2653V11.2643ZM12 5.49934C11 5.49934 10.03 5.64734 9.111 5.92434L10.348 7.16034C12.4875 6.7367 14.7081 7.15142 16.5505 8.31877C18.3929 9.48611 19.7163 11.3168 20.247 13.4323C20.2988 13.6213 20.4225 13.7824 20.5916 13.8814C20.7607 13.9803 20.9618 14.0091 21.1518 13.9617C21.3419 13.9143 21.5059 13.7944 21.6087 13.6276C21.7115 13.4608 21.745 13.2605 21.702 13.0693C21.1597 10.9068 19.9105 8.9874 18.1528 7.61591C16.395 6.24443 14.2295 5.49947 12 5.49934ZM12.195 9.00934L15.996 12.8093C15.9468 11.8172 15.5306 10.8789 14.8281 10.1766C14.1256 9.47427 13.1871 9.05825 12.195 9.00934Z" fill="#757575" stroke="#666666" stroke-width="0.5"/>
</svg>
