<svg width="30" height="30" viewBox="0 0 30 30" fill="none" xmlns="http://www.w3.org/2000/svg">
<g clip-path="url(#clip0_307_172037)">
<path d="M15 30C23.2843 30 30 23.2843 30 15C30 6.71573 23.2843 0 15 0C6.71573 0 0 6.71573 0 15C0 23.2843 6.71573 30 15 30Z" fill="#FFD93B"/>
<path d="M15 24.8764C10.9706 24.8764 7.4297 22.2945 6.18939 18.4517C6.07033 18.0823 6.27283 17.6858 6.6422 17.5667C7.01345 17.4467 7.40814 17.6501 7.5272 18.0195C8.58002 21.2792 11.5828 23.4701 15 23.4701C18.4172 23.4701 21.42 21.2801 22.4728 18.0195C22.5919 17.6501 22.9866 17.4467 23.3578 17.5667C23.7272 17.6858 23.9297 18.0823 23.8106 18.4517C22.5703 22.2945 19.0294 24.8764 15 24.8764Z" fill="#3E4347"/>
<path d="M29.9998 15.0003C29.9998 23.2878 23.2826 30.0003 14.9998 30.0003C10.2842 30.0003 6.0748 27.8253 3.32324 24.4175C5.89668 26.4987 9.17324 27.7409 12.7404 27.7409C21.0232 27.7409 27.7404 21.0284 27.7404 12.7409C27.7404 9.17373 26.4982 5.89717 24.417 3.32373C27.8201 6.07529 29.9998 10.2847 29.9998 15.0003Z" fill="#F4C534"/>
<path d="M12.5062 12.5495C11.8012 11.5876 10.53 10.9482 9.08062 10.9482C7.62469 10.9548 6.35344 11.5941 5.64844 12.556C5.68125 10.6913 7.20375 9.18945 9.08062 9.18945C10.9444 9.18945 12.4734 10.6848 12.5062 12.5495Z" fill="#3E4347"/>
<path d="M24.3529 12.5495C23.6479 11.5876 22.3767 10.9482 20.9273 10.9482C19.4714 10.9548 18.2001 11.5941 17.4951 12.556C17.5279 10.6913 19.0504 9.18945 20.9273 9.18945C22.792 9.18945 24.3201 10.6848 24.3529 12.5495Z" fill="#3E4347"/>
</g>
<defs>
<clipPath id="clip0_307_172037">
<rect width="30" height="30" fill="white"/>
</clipPath>
</defs>
</svg>
