<svg width="30" height="30" viewBox="0 0 30 30" fill="none" xmlns="http://www.w3.org/2000/svg">
<g clip-path="url(#clip0_307_171978)">
<path d="M15 30C23.2843 30 30 23.2843 30 15C30 6.71573 23.2843 0 15 0C6.71573 0 0 6.71573 0 15C0 23.2843 6.71573 30 15 30Z" fill="#FFD93B"/>
<path d="M29.9998 15.0003C29.9998 23.2878 23.2826 30.0003 14.9998 30.0003C10.2842 30.0003 6.0748 27.8253 3.32324 24.4175C5.89668 26.4987 9.17324 27.7409 12.7404 27.7409C21.0232 27.7409 27.7404 21.0284 27.7404 12.7409C27.7404 9.17373 26.4982 5.89717 24.417 3.32373C27.8201 6.07529 29.9998 10.2847 29.9998 15.0003Z" fill="#F4C534"/>
<path d="M24.5809 18.7486C23.0809 22.5783 19.359 25.2877 14.9996 25.2877C10.6402 25.2877 6.91836 22.5783 5.41836 18.7486C5.21679 18.2377 5.61523 17.6846 6.16835 17.6846H23.8309C24.384 17.6846 24.7824 18.2377 24.5809 18.7486Z" fill="#3E4347"/>
<path d="M22.5103 18.9736C22.4588 19.3861 22.1916 19.7846 21.7791 19.9018C17.5791 21.1008 12.9713 21.1111 8.77129 19.9018C8.35973 19.7836 8.0916 19.3861 8.04004 18.9736H22.5103Z" fill="white"/>
<path d="M18.7035 24.5983C17.5551 25.0436 16.3082 25.2873 15.0004 25.2873C13.8895 25.2873 12.8254 25.1092 11.8223 24.7858C11.8832 24.4389 11.9957 24.1108 12.1504 23.8108C12.6004 22.9295 13.5801 22.5029 14.5645 22.5873C14.6582 22.5967 14.752 22.6014 14.8457 22.6014C15.1316 22.6014 15.3895 22.5639 15.6285 22.5029C16.6363 22.2264 17.7332 22.6858 18.2817 23.5764C18.4738 23.8904 18.6192 24.2326 18.7035 24.5983Z" fill="#E24B4B"/>
<path d="M19.4726 13.8944C20.6893 13.8944 21.6757 12.9081 21.6757 11.6913C21.6757 10.4746 20.6893 9.48828 19.4726 9.48828C18.2559 9.48828 17.2695 10.4746 17.2695 11.6913C17.2695 12.9081 18.2559 13.8944 19.4726 13.8944Z" fill="#3E4347"/>
<path d="M20.5342 10.5853C20.3146 10.3657 20.0184 10.3057 19.8726 10.4514C19.7269 10.5971 19.7869 10.8933 20.0066 11.113C20.2262 11.3327 20.5224 11.3926 20.6681 11.2469C20.8138 11.1012 20.7539 10.805 20.5342 10.5853Z" fill="#5A5F63"/>
<path d="M23.4074 11.2124C21.809 7.97803 21.0496 8.63897 17.6465 7.50459C18.1527 7.23272 18.7527 7.0874 19.3762 7.0874C21.1715 7.0874 23.1309 8.29678 23.4074 11.2124Z" fill="#3E4347"/>
<path d="M10.5253 13.8944C11.7421 13.8944 12.7284 12.9081 12.7284 11.6913C12.7284 10.4746 11.7421 9.48828 10.5253 9.48828C9.30861 9.48828 8.32227 10.4746 8.32227 11.6913C8.32227 12.9081 9.30861 13.8944 10.5253 13.8944Z" fill="#3E4347"/>
<path d="M10.1264 10.4509C9.98066 10.3052 9.68446 10.3652 9.4648 10.5848C9.24513 10.8045 9.18518 11.1007 9.33089 11.2464C9.4766 11.3921 9.7728 11.3322 9.99247 11.1125C10.2121 10.8928 10.2721 10.5966 10.1264 10.4509Z" fill="#5A5F63"/>
<path d="M6.59277 11.2124C8.19121 7.97803 8.95058 8.63897 12.3537 7.50459C11.8475 7.23272 11.2475 7.0874 10.624 7.0874C8.82871 7.0874 6.86934 8.29678 6.59277 11.2124Z" fill="#3E4347"/>
</g>
<defs>
<clipPath id="clip0_307_171978">
<rect width="30" height="30" fill="white"/>
</clipPath>
</defs>
</svg>
