<svg width="30" height="30" viewBox="0 0 30 30" fill="none" xmlns="http://www.w3.org/2000/svg">
<g clip-path="url(#clip0_307_171561)">
<path d="M20.1477 9.65968C20.2527 9.39436 20.3568 9.12905 20.4608 8.86467C21.4743 6.25465 21.6337 5.01527 21.4583 4.12182C21.074 2.33119 19.1886 1.34118 17.863 2.38369C17.2049 2.90119 16.5599 3.99245 15.4892 6.66997C15.3805 6.94185 15.2708 7.21372 15.1602 7.4856C16.8027 8.19342 18.4686 8.92561 20.1477 9.65968Z" fill="#D23F77"/>
<path d="M9.86617 20.3804C9.76117 20.6485 9.65711 20.9166 9.55398 21.1848C8.54054 23.8266 8.38491 25.0857 8.5621 25.9857C8.95023 27.7914 10.8365 28.7467 12.1603 27.6714C12.8174 27.1389 13.4615 26.0298 14.5293 23.3363C14.6381 23.0635 14.7478 22.7898 14.8575 22.516C13.2131 21.8251 11.5462 21.106 9.86617 20.3804Z" fill="#D23F77"/>
<path d="M22.5197 14.8503C22.7925 14.7406 23.0653 14.6319 23.3372 14.5241C26.0306 13.4591 27.1285 12.8234 27.6507 12.1663C28.7016 10.8603 27.7294 8.99091 25.9247 8.60091C25.0322 8.43028 23.7825 8.57747 21.1659 9.57217C20.8997 9.67342 20.6334 9.77655 20.3662 9.87967C21.0956 11.5559 21.8212 13.2153 22.5197 14.8503Z" fill="#D23F77"/>
<path d="M7.48969 15.1509C7.21687 15.2615 6.94406 15.3721 6.67124 15.4818C3.97685 16.5628 2.87434 17.2171 2.35402 17.8884C1.30214 19.2272 2.27715 21.1303 4.08466 21.5062C4.97998 21.6703 6.22687 21.5034 8.84626 20.4769C9.11251 20.3719 9.37876 20.2669 9.64595 20.16C8.91564 18.4762 8.18907 16.8037 7.48969 15.1509Z" fill="#D23F77"/>
<path d="M20.3662 20.1196C20.6334 20.2227 20.8997 20.3258 21.1659 20.4271C23.7919 21.4246 25.0406 21.5718 25.9369 21.3927C27.7331 20.9989 28.7053 19.1305 27.646 17.8217C27.1219 17.172 26.0213 16.5364 23.3372 15.4742C23.0644 15.3664 22.7925 15.2576 22.5197 15.1479C21.8203 16.7839 21.0956 18.4442 20.3662 20.1196Z" fill="#D23F77"/>
<path d="M9.64616 9.84007C9.37898 9.73319 9.11272 9.62819 8.84647 9.52319C6.21958 8.49287 4.97082 8.32599 4.07268 8.49943C2.27361 8.87818 1.2986 10.7813 2.35798 12.1229C2.88205 12.7867 3.98362 13.442 6.67052 14.5192C6.94333 14.6289 7.21615 14.7385 7.48896 14.8501C8.18928 13.1954 8.91585 11.5229 9.64616 9.84007Z" fill="#D23F77"/>
<path d="M15.1582 22.514C15.2688 22.7858 15.3776 23.0587 15.4873 23.3296C16.5617 26.0165 17.2076 27.1068 17.8723 27.6206C19.196 28.6546 21.0814 27.6646 21.462 25.8665C21.6289 24.9759 21.4714 23.7374 20.4589 21.1358C20.3557 20.8715 20.2517 20.6061 20.1467 20.3408C18.4685 21.074 16.8026 21.8061 15.1582 22.514Z" fill="#D23F77"/>
<path d="M14.8577 7.4838C14.748 7.21004 14.6383 6.93723 14.5295 6.66348C13.458 3.96158 12.8148 2.85251 12.1492 2.32376C10.8283 1.25593 8.94199 2.21219 8.55667 4.02627C8.38792 4.92253 8.54355 6.1816 9.55418 8.81505C9.65731 9.08318 9.76137 9.35131 9.86637 9.61944C11.5464 8.89287 13.2133 8.1738 14.8577 7.4838Z" fill="#D23F77"/>
<path d="M17.8635 7.58005C17.8588 7.26692 17.8541 6.9538 17.8494 6.64067C17.7979 3.54689 17.5072 2.14532 17.0282 1.29781C16.0532 -0.415949 13.9588 -0.440324 12.9819 1.27156C12.5103 2.11251 12.2197 3.51502 12.1634 6.61161C12.1587 6.92567 12.1531 7.23974 12.1484 7.55474C14.0544 7.53411 15.9585 7.54255 17.8635 7.58005Z" fill="#E84D88"/>
<path d="M12.1494 22.4461C12.1541 22.7602 12.1588 23.0743 12.1644 23.3893C12.2197 26.4952 12.5122 27.8977 12.9913 28.7387C13.9682 30.4403 16.0626 30.4159 17.0376 28.6918C17.5054 27.8443 17.7979 26.4437 17.8495 23.3583C17.8541 23.0452 17.8588 22.7321 17.8635 22.4189C15.9585 22.4555 14.0544 22.4649 12.1494 22.4461Z" fill="#E84D88"/>
<path d="M22.3078 11.8576C22.5263 11.6439 22.7438 11.4311 22.9603 11.2201C25.0997 9.13513 25.8132 8.08793 25.995 7.20199C26.341 5.44604 24.6281 3.7304 22.8488 4.06509C21.9628 4.24697 20.9006 4.94635 18.8053 7.0623C18.5925 7.27699 18.3778 7.49355 18.1631 7.71012C19.5309 9.10232 20.9203 10.4926 22.3078 11.8576Z" fill="#E84D88"/>
<path d="M7.69935 18.1699C7.48092 18.3865 7.26341 18.6021 7.04685 18.8168C4.90652 20.9356 4.19401 22.01 4.01308 22.91C3.66901 24.6997 5.38559 26.4144 7.16498 26.0469C8.04998 25.8509 9.11218 25.1244 11.2066 22.9747C11.4194 22.7562 11.6341 22.5368 11.8488 22.3175C10.48 20.9318 9.08874 19.5424 7.69935 18.1699Z" fill="#E84D88"/>
<path d="M22.4375 17.8432C22.7516 17.8385 23.0647 17.8329 23.3778 17.8272C26.4772 17.7682 27.8779 17.4747 28.7216 17.0003C30.4279 16.031 30.4279 13.9619 28.7113 12.9906C27.8675 12.5238 26.4669 12.2322 23.3778 12.1722C23.0647 12.1666 22.7506 12.1609 22.4375 12.1562C22.4647 14.0519 22.4647 15.9475 22.4375 17.8432Z" fill="#E84D88"/>
<path d="M7.57084 12.1289C7.25678 12.1327 6.94271 12.1373 6.62959 12.142C3.52925 12.1898 2.1258 12.4814 1.28017 12.9633C-0.428906 13.9458 -0.427969 16.0636 1.29048 17.0461C2.13518 17.5186 3.53862 17.8102 6.62959 17.858C6.94365 17.8627 7.25772 17.8664 7.57084 17.8711C7.54272 15.9558 7.54272 14.0424 7.57084 12.1289Z" fill="#E84D88"/>
<path d="M18.1621 22.2882C18.3768 22.5047 18.5915 22.7213 18.8043 22.936C20.9081 25.0585 21.9675 25.7579 22.8609 25.9322C24.6337 26.2604 26.3466 24.5447 25.995 22.7832C25.8066 21.9047 25.0912 20.8566 22.9593 18.7781C22.7428 18.5663 22.5253 18.3534 22.3068 18.1406C20.9203 19.5056 19.5309 20.896 18.1621 22.2882Z" fill="#E84D88"/>
<path d="M11.8494 7.68101C11.6347 7.46163 11.42 7.24225 11.2072 7.02381C9.10527 4.86755 8.04589 4.14098 7.15244 3.95254C5.38055 3.59066 3.66304 5.30442 4.01367 7.10069C4.20117 7.9932 4.91461 9.06945 7.04838 11.1807C7.26494 11.3954 7.48244 11.611 7.70088 11.8276C9.08933 10.456 10.4806 9.0657 11.8494 7.68101Z" fill="#E84D88"/>
<path d="M15.0099 24.8885C20.4714 24.8885 24.8987 20.4611 24.8987 14.9997C24.8987 9.53822 20.4714 5.11084 15.0099 5.11084C9.54847 5.11084 5.12109 9.53822 5.12109 14.9997C5.12109 20.4611 9.54847 24.8885 15.0099 24.8885Z" fill="#FFD93B"/>
<path d="M21.626 17.5501C20.4531 20.0195 17.9312 21.7389 15.0128 21.7389C12.1027 21.7389 9.58929 20.0279 8.40803 17.5679C8.2224 17.1713 8.61053 16.7392 9.02491 16.8713C12.984 18.1764 16.9872 18.1323 21.0081 16.8535C21.4235 16.7213 21.8106 17.162 21.626 17.5501Z" fill="#3E4347"/>
<path d="M24.8992 14.9991C24.8992 20.4629 20.4714 24.888 15.0104 24.888C11.9016 24.888 9.12658 23.4545 7.3125 21.2073C9.00939 22.5789 11.1694 23.3983 13.5207 23.3983C18.9807 23.3983 23.4095 18.9732 23.4095 13.5094C23.4095 11.1582 22.5911 8.99816 21.2185 7.30127C23.462 9.11535 24.8992 11.8904 24.8992 14.9991Z" fill="#F4C534"/>
<path d="M20.9593 16.8667C16.974 18.1239 13.0064 18.168 9.08203 16.8873C10.1274 18.7989 11.4849 19.2836 14.858 19.2836C18.2359 19.2836 19.9159 18.7923 20.9593 16.8667Z" fill="white"/>
<path d="M15.0125 21.7388C16.0681 21.7388 17.0685 21.5082 17.975 21.1041C17.7491 19.5141 16.3138 19.17 15.3078 19.6575C14.8785 19.8619 14.3675 19.936 13.9794 19.9004C13.1309 19.8535 12.3838 20.3869 12.125 21.1322C13.0119 21.5166 13.985 21.7388 15.0125 21.7388Z" fill="#E24B4B"/>
<path d="M14.0888 12.928C14.0888 14.9296 12.8541 16.5524 11.3372 16.5524C9.81185 16.5524 8.57715 14.9296 8.57715 12.928C8.57715 10.9349 9.81185 9.31299 11.3372 9.31299C12.8541 9.31299 14.0888 10.9349 14.0888 12.928Z" fill="#F4C534"/>
<path d="M13.5957 13.3124C13.5957 14.9924 12.5814 16.1858 11.3382 15.9749C10.0857 15.7639 9.07227 14.2302 9.07227 12.5408C9.07227 10.8701 10.0866 9.67576 11.3382 9.88764C12.5814 10.0986 13.5957 11.6323 13.5957 13.3124Z" fill="white"/>
<path d="M11.7707 14.9886C12.4029 14.9886 12.9154 14.4761 12.9154 13.8439C12.9154 13.2117 12.4029 12.6992 11.7707 12.6992C11.1385 12.6992 10.626 13.2117 10.626 13.8439C10.626 14.4761 11.1385 14.9886 11.7707 14.9886Z" fill="#3E4347"/>
<path d="M12.3793 13.3157C12.2284 13.1649 12.0364 13.1123 11.9504 13.1984C11.8643 13.2844 11.9169 13.4764 12.0677 13.6273C12.2185 13.7781 12.4106 13.8306 12.4966 13.7446C12.5826 13.6586 12.5301 13.4665 12.3793 13.3157Z" fill="white"/>
<path d="M15.9326 12.928C15.9326 14.9296 17.1673 16.5524 18.6842 16.5524C20.2095 16.5524 21.4442 14.9296 21.4442 12.928C21.4442 10.9349 20.2095 9.31299 18.6842 9.31299C17.1673 9.31299 15.9326 10.9349 15.9326 12.928Z" fill="#F4C534"/>
<path d="M16.4268 13.3124C16.4268 14.9924 17.4411 16.1858 18.6843 15.9749C19.9368 15.7639 20.9502 14.2302 20.9502 12.5408C20.9502 10.8701 19.9358 9.67576 18.6843 9.88764C17.4402 10.0986 16.4268 11.6323 16.4268 13.3124Z" fill="white"/>
<path d="M18.2511 14.9886C18.8833 14.9886 19.3958 14.4761 19.3958 13.8439C19.3958 13.2117 18.8833 12.6992 18.2511 12.6992C17.6189 12.6992 17.1064 13.2117 17.1064 13.8439C17.1064 14.4761 17.6189 14.9886 18.2511 14.9886Z" fill="#3E4347"/>
<path d="M18.8588 13.3186C18.7079 13.1678 18.5159 13.1153 18.4299 13.2013C18.3438 13.2873 18.3964 13.4794 18.5472 13.6302C18.698 13.781 18.8901 13.8336 18.9761 13.7475C19.0621 13.6615 19.0096 13.4695 18.8588 13.3186Z" fill="white"/>
</g>
<defs>
<clipPath id="clip0_307_171561">
<rect width="30" height="30" fill="white"/>
</clipPath>
</defs>
</svg>
