<svg width="30" height="30" viewBox="0 0 30 30" fill="none" xmlns="http://www.w3.org/2000/svg">
<g clip-path="url(#clip0_307_172241)">
<path d="M15 30C23.2843 30 30 23.2843 30 15C30 6.71573 23.2843 0 15 0C6.71573 0 0 6.71573 0 15C0 23.2843 6.71573 30 15 30Z" fill="#FFD93B"/>
<path d="M29.9998 14.9998C29.9998 23.2873 23.2826 29.9998 14.9998 29.9998C10.2842 29.9998 6.0748 27.8248 3.32324 24.417C5.89668 26.4982 9.17324 27.7404 12.7404 27.7404C21.0232 27.7404 27.7404 21.0279 27.7404 12.7404C27.7404 9.17324 26.4982 5.89668 24.417 3.32324C27.8201 6.0748 29.9998 10.2842 29.9998 14.9998Z" fill="#F4C534"/>
<path d="M20.5181 15.5729C21.8182 15.5729 22.8722 14.5189 22.8722 13.2188C22.8722 11.9187 21.8182 10.8647 20.5181 10.8647C19.218 10.8647 18.1641 11.9187 18.1641 13.2188C18.1641 14.5189 19.218 15.5729 20.5181 15.5729Z" fill="#3E4347"/>
<path d="M21.3731 11.7541C21.0134 11.5946 20.6381 11.6541 20.5348 11.8869C20.4315 12.1198 20.6394 12.4379 20.9991 12.5974C21.3588 12.7569 21.7341 12.6975 21.8374 12.4646C21.9407 12.2317 21.7328 11.9137 21.3731 11.7541Z" fill="#5A5F63"/>
<path d="M9.48102 15.5729C10.7811 15.5729 11.8351 14.5189 11.8351 13.2188C11.8351 11.9187 10.7811 10.8647 9.48102 10.8647C8.1809 10.8647 7.12695 11.9187 7.12695 13.2188C7.12695 14.5189 8.1809 15.5729 9.48102 15.5729Z" fill="#3E4347"/>
<path d="M10.336 11.7536C9.97627 11.5941 9.60095 11.6536 9.49768 11.8864C9.39441 12.1193 9.60229 12.4374 9.96199 12.5969C10.3217 12.7564 10.697 12.697 10.8003 12.4641C10.9035 12.2313 10.6957 11.9132 10.336 11.7536Z" fill="#5A5F63"/>
<path d="M8.8561 20.9213C8.57297 20.655 8.55985 20.2097 8.8261 19.9275C9.09235 19.6454 9.53672 19.6313 9.81985 19.8975C12.7252 22.6322 17.2758 22.6322 20.1811 19.8975C20.4642 19.6313 20.9086 19.6454 21.1748 19.9275C21.4411 20.2107 21.428 20.655 21.1449 20.9213C17.6995 24.165 12.3014 24.165 8.8561 20.9213Z" fill="#3E4347"/>
</g>
<defs>
<clipPath id="clip0_307_172241">
<rect width="30" height="30" fill="white"/>
</clipPath>
</defs>
</svg>
