<svg width="30" height="30" viewBox="0 0 30 30" fill="none" xmlns="http://www.w3.org/2000/svg">
<g clip-path="url(#clip0_307_172377)">
<path d="M15 30C23.2843 30 30 23.2843 30 15C30 6.71573 23.2843 0 15 0C6.71573 0 0 6.71573 0 15C0 23.2843 6.71573 30 15 30Z" fill="#FFD93B"/>
<path d="M25.2492 19.9414C23.4117 23.757 19.5211 26.3914 15.0023 26.3914C10.4836 26.3914 6.58357 23.757 4.74607 19.9414C4.36169 19.1351 5.02732 18.2445 5.90857 18.3664C11.9742 19.1914 18.0304 19.1914 24.0961 18.3664C24.9679 18.2436 25.6336 19.1351 25.2492 19.9414Z" fill="#3E4347"/>
<path d="M29.9998 15.0003C29.9998 23.2878 23.2826 30.0003 14.9998 30.0003C10.2842 30.0003 6.0748 27.8253 3.32324 24.4175C5.89668 26.4987 9.17324 27.7409 12.7404 27.7409C21.0232 27.7409 27.7404 21.0284 27.7404 12.7409C27.7404 9.17373 26.4982 5.89717 24.417 3.32373C27.8201 6.07529 29.9998 10.2847 29.9998 15.0003Z" fill="#F4C534"/>
<path d="M24.4119 18.3652C24.3106 18.3511 24.2056 18.3502 24.0969 18.3652C18.0312 19.1902 11.975 19.1902 5.90937 18.3652C5.79781 18.3492 5.68906 18.3511 5.58594 18.3661C6.96688 20.7361 10.6541 21.1983 14.9984 21.1983C19.3438 21.1983 23.0319 20.737 24.4119 18.3652Z" fill="white"/>
<path d="M15.0019 26.3907C16.6556 26.3907 18.2231 26.0354 19.6388 25.4007C19.4578 23.2716 17.7234 20.9138 15.5091 21.9863C13.6491 22.8676 12.0581 21.6207 11.0063 23.3748C10.6116 24.0291 10.4119 24.7191 10.3594 25.3998C11.7778 26.0354 13.3481 26.3907 15.0019 26.3907Z" fill="#E24B4B"/>
<path d="M9.69605 12.9841V10.4247C8.28887 10.0225 7.38043 9.19469 7.38043 7.70594C7.38043 6.38406 8.26824 5.37906 9.69605 5.2375V4.63281H10.582V5.2375C11.9217 5.39781 12.6567 6.18531 12.8611 7.36375L11.3151 7.56531C11.2214 7.08437 10.9767 6.75906 10.582 6.5875V8.97625C12.1279 9.39531 13.1114 10.0131 13.1114 11.6275C13.1114 13.0403 12.2423 14.1812 10.582 14.4194V15.5622H9.69605V14.4503C8.3423 14.2863 7.38887 13.4594 7.13574 11.7991L8.73043 11.6284C8.86543 12.3025 9.26949 12.7788 9.69605 12.9841ZM9.69605 6.56969C9.20012 6.7375 8.90855 7.17156 8.90855 7.63281C8.90855 8.04531 9.14481 8.44562 9.69699 8.68375V6.56969H9.69605ZM10.582 13.0703C11.1904 12.9569 11.6142 12.4666 11.6142 11.8488C11.6142 11.2019 11.1961 10.8653 10.582 10.6881V13.0703Z" fill="#3E4347"/>
<path d="M19.449 12.9841V10.4247C18.0418 10.0225 17.1334 9.19469 17.1334 7.70594C17.1334 6.38406 18.0212 5.37906 19.449 5.2375V4.63281H20.3349V5.2375C21.6746 5.39781 22.4096 6.18531 22.614 7.36375L21.068 7.56531C20.9743 7.08437 20.7296 6.75906 20.3349 6.5875V8.97625C21.8809 9.39531 22.8643 10.0131 22.8643 11.6275C22.8643 13.0403 21.9952 14.1812 20.3349 14.4194V15.5622H19.449V14.4503C18.0943 14.2863 17.1418 13.4594 16.8887 11.7991L18.4834 11.6284C18.6184 12.3025 19.0215 12.7788 19.449 12.9841ZM19.449 6.56969C18.953 6.7375 18.6605 7.17156 18.6605 7.63281C18.6605 8.04531 18.8968 8.44562 19.449 8.68375V6.56969ZM20.3349 13.0703C20.9434 12.9569 21.3671 12.4666 21.3671 11.8488C21.3671 11.2019 20.948 10.8653 20.3349 10.6881V13.0703Z" fill="#3E4347"/>
</g>
<defs>
<clipPath id="clip0_307_172377">
<rect width="30" height="30" fill="white"/>
</clipPath>
</defs>
</svg>
