<svg width="30" height="30" viewBox="0 0 30 30" fill="none" xmlns="http://www.w3.org/2000/svg">
<g clip-path="url(#clip0_307_172491)">
<path d="M15 30C23.2843 30 30 23.2843 30 15C30 6.71573 23.2843 0 15 0C6.71573 0 0 6.71573 0 15C0 23.2843 6.71573 30 15 30Z" fill="#FFD93B"/>
<path d="M29.9998 15.0003C29.9998 23.2878 23.2826 30.0003 14.9998 30.0003C10.2842 30.0003 6.0748 27.8253 3.32324 24.4175C5.89668 26.4987 9.17324 27.7409 12.7404 27.7409C21.0232 27.7409 27.7404 21.0284 27.7404 12.7409C27.7404 9.17373 26.4982 5.89717 24.417 3.32373C27.8201 6.07529 29.9998 10.2847 29.9998 15.0003Z" fill="#F4C534"/>
<path d="M13.6089 11.7945C13.6089 14.6764 9.25512 17.3126 9.25512 17.3126C9.25512 17.3126 4.90137 14.6764 4.90137 11.7945C4.90137 10.5636 5.89605 9.56982 7.12605 9.56982C8.13293 9.56982 8.97762 10.2345 9.25793 11.142C9.53168 10.2345 10.3764 9.56982 11.3832 9.56982C12.6076 9.56982 13.6089 10.5645 13.6089 11.7945Z" fill="#E24B4B"/>
<path d="M5.63359 10.1553C5.18641 10.5621 4.90234 11.1425 4.90234 11.7959C4.90234 14.6778 9.25609 17.314 9.25609 17.314C4.69703 13.4637 5.59984 10.2668 5.63359 10.1553Z" fill="#D03F3F"/>
<path d="M12.609 11.721C12.3971 11.8925 12.0371 11.7782 11.8009 11.4763C11.5562 11.1744 11.5309 10.8069 11.7278 10.6513C11.9396 10.4882 12.2996 10.61 12.5443 10.9129C12.7806 11.2138 12.8134 11.5813 12.609 11.721Z" fill="white"/>
<path d="M25.0981 11.7945C25.0981 14.6764 20.7444 17.3126 20.7444 17.3126C20.7444 17.3126 16.3906 14.6764 16.3906 11.7945C16.3906 10.5636 17.3853 9.56982 18.6153 9.56982C19.6222 9.56982 20.4669 10.2345 20.7472 11.142C21.0209 10.2345 21.8656 9.56982 22.8725 9.56982C24.0969 9.56982 25.0981 10.5645 25.0981 11.7945Z" fill="#E24B4B"/>
<path d="M17.1238 10.1553C16.6766 10.5621 16.3926 11.1425 16.3926 11.7959C16.3926 14.6778 20.7463 17.314 20.7463 17.314C16.1873 13.4637 17.0901 10.2668 17.1238 10.1553Z" fill="#D03F3F"/>
<path d="M24.0993 11.721C23.8874 11.8925 23.5274 11.7782 23.2911 11.4763C23.0464 11.1744 23.0211 10.8069 23.218 10.6513C23.4299 10.4882 23.7899 10.61 24.0346 10.9129C24.2708 11.2138 24.3036 11.5813 24.0993 11.721Z" fill="white"/>
<path d="M22.367 21.9202C20.5951 24.0202 17.9542 25.6946 15.0011 25.6946C12.0479 25.6946 9.41076 24.0202 7.62951 21.9296C7.01076 21.1983 7.63888 20.0827 8.59513 20.2514C12.8139 20.9921 17.0795 21.0014 21.4108 20.2421C22.3576 20.0827 22.9951 21.1889 22.367 21.9202Z" fill="#3E4347"/>
<path d="M15.0006 25.695C16.5071 25.695 17.9312 25.2554 19.2015 24.5494C18.669 22.5741 16.8137 22.0116 15.5312 22.6932C13.794 23.6204 11.8506 22.4204 11.1006 24.7032C12.294 25.3144 13.6093 25.695 15.0006 25.695Z" fill="#E24B4B"/>
</g>
<defs>
<clipPath id="clip0_307_172491">
<rect width="30" height="30" fill="white"/>
</clipPath>
</defs>
</svg>
