<svg width="30" height="30" viewBox="0 0 30 30" fill="none" xmlns="http://www.w3.org/2000/svg">
<g clip-path="url(#clip0_307_171917)">
<path d="M15 30C23.2843 30 30 23.2843 30 15C30 6.71573 23.2843 0 15 0C6.71573 0 0 6.71573 0 15C0 23.2843 6.71573 30 15 30Z" fill="#FFD93B"/>
<path d="M29.9998 14.9998C29.9998 23.2873 23.2826 29.9998 14.9998 29.9998C10.2842 29.9998 6.0748 27.8248 3.32324 24.417C5.89668 26.4982 9.17324 27.7404 12.7404 27.7404C21.0232 27.7404 27.7404 21.0279 27.7404 12.7404C27.7404 9.17324 26.4982 5.89668 24.417 3.32324C27.8201 6.0748 29.9998 10.2842 29.9998 14.9998Z" fill="#F4C534"/>
<path d="M9.48102 13.7726C10.7811 13.7726 11.8351 12.7186 11.8351 11.4185C11.8351 10.1184 10.7811 9.06445 9.48102 9.06445C8.1809 9.06445 7.12695 10.1184 7.12695 11.4185C7.12695 12.7186 8.1809 13.7726 9.48102 13.7726Z" fill="#3E4347"/>
<path d="M9.46522 10.0895C9.36195 9.85669 8.98663 9.79724 8.62693 9.95677C8.26722 10.1163 8.05934 10.4344 8.16262 10.6672C8.26589 10.9001 8.64121 10.9595 9.00091 10.8C9.36061 10.6405 9.56849 10.3224 9.46522 10.0895Z" fill="#5A5F63"/>
<path d="M20.5181 13.7726C21.8182 13.7726 22.8722 12.7186 22.8722 11.4185C22.8722 10.1184 21.8182 9.06445 20.5181 9.06445C19.218 9.06445 18.1641 10.1184 18.1641 11.4185C18.1641 12.7186 19.218 13.7726 20.5181 13.7726Z" fill="#3E4347"/>
<path d="M20.4974 10.091C20.3942 9.85815 20.0189 9.79871 19.6592 9.95823C19.2994 10.1178 19.0916 10.4358 19.1948 10.6687C19.2981 10.9016 19.6734 10.961 20.0331 10.8015C20.3928 10.642 20.6007 10.3239 20.4974 10.091Z" fill="#5A5F63"/>
<path d="M23.6352 19.2007C23.0905 22.8607 19.6668 26.0454 15.0037 26.036C10.333 26.0454 6.90929 22.8597 6.36554 19.2007C6.30085 18.7938 6.68617 18.4169 7.09304 18.4779C12.314 19.2569 17.6877 19.2569 22.9087 18.4779C23.3137 18.416 23.6999 18.7938 23.6352 19.2007Z" fill="#3E4347"/>
<path d="M15.0028 24.7021C11.5453 24.7115 8.67281 22.6106 7.75781 19.7681C12.5484 20.4056 17.4506 20.4056 22.2413 19.7681C21.3281 22.6106 18.4575 24.7106 15.0028 24.7021Z" fill="white"/>
<path d="M19.39 23.8819L18.8584 19.4691L18.9709 19.4569C19.09 19.4504 19.2146 19.4382 19.3393 19.426L19.4396 19.4194L20.0143 23.8257L19.9084 23.8322C19.765 23.8444 19.6271 23.8576 19.4893 23.8697L19.39 23.8819Z" fill="#3E4347"/>
<path d="M13.1841 24.9132H13.0781L13.3284 19.5947L13.9097 19.6069L13.7156 24.9319L13.6097 24.9254C13.4653 24.9254 13.3275 24.9188 13.1841 24.9132Z" fill="#3E4347"/>
<path d="M9.97168 23.9757L10.5651 19.4194L10.6711 19.426C10.7901 19.4382 10.9148 19.4513 11.0339 19.4569L11.1464 19.4691L10.5961 24.0319L10.4957 24.0254C10.3579 24.0132 10.2211 24.0001 10.0767 23.9879L9.97168 23.9757Z" fill="#3E4347"/>
<path d="M16.2907 24.9319L16.0967 19.6069L16.6779 19.5947L16.9339 24.9132H16.8214C16.6779 24.9197 16.5401 24.9254 16.3967 24.9254L16.2907 24.9319Z" fill="#3E4347"/>
<path d="M8.37109 22.319L8.48359 21.7068L8.58391 21.7133C12.8842 22.2383 17.2399 22.2318 21.5402 21.7012L21.6405 21.689L21.753 22.3012L21.6405 22.3199C17.2783 22.8571 12.8533 22.8636 8.49016 22.3321L8.37109 22.319Z" fill="#3E4347"/>
</g>
<defs>
<clipPath id="clip0_307_171917">
<rect width="30" height="30" fill="white"/>
</clipPath>
</defs>
</svg>
