<svg width="30" height="30" viewBox="0 0 30 30" fill="none" xmlns="http://www.w3.org/2000/svg">
<g clip-path="url(#clip0_307_172066)">
<path d="M15 30C23.2843 30 30 23.2843 30 15C30 6.71573 23.2843 0 15 0C6.71573 0 0 6.71573 0 15C0 23.2843 6.71573 30 15 30Z" fill="#FFD93B"/>
<path d="M29.9998 14.9998C29.9998 23.2873 23.2826 29.9998 14.9998 29.9998C10.2842 29.9998 6.0748 27.8248 3.32324 24.417C5.89668 26.4982 9.17324 27.7404 12.7404 27.7404C21.0232 27.7404 27.7404 21.0279 27.7404 12.7404C27.7404 9.17324 26.4982 5.89668 24.417 3.32324C27.8201 6.0748 29.9998 10.2842 29.9998 14.9998Z" fill="#F4C534"/>
<path d="M19.3635 25.5723C17.8925 25.8292 16.686 24.7923 16.2388 23.3627C15.5225 21.0752 12.3022 20.6683 12.0557 19.4102C12.201 17.8886 21.5788 18.8355 21.5788 22.4477C21.83 23.9186 20.84 25.3211 19.3635 25.5723Z" fill="#3E4347"/>
<path d="M25.4846 6.62606C25.4846 5.75418 23.9049 3.32324 23.9049 3.32324C23.9049 3.32324 22.3252 5.75324 22.3252 6.62606C22.3252 7.49887 23.0321 8.20574 23.9049 8.20574C24.7777 8.20481 25.4846 7.49793 25.4846 6.62606Z" fill="#45CBEA"/>
<g opacity="0.2">
<path opacity="0.2" d="M24.8089 7.40913C24.6458 7.59945 24.4208 7.66601 24.2961 7.56195C24.1704 7.45788 24.2004 7.21882 24.3542 7.02851C24.5126 6.84288 24.7423 6.77163 24.867 6.87569C24.9926 6.98445 24.9626 7.21882 24.8089 7.40913Z" fill="white"/>
</g>
<path d="M29.2237 12.8542C29.2237 11.6055 26.9624 8.12549 26.9624 8.12549C26.9624 8.12549 24.7012 11.6055 24.7012 12.8542C24.7012 14.103 25.7137 15.1155 26.9624 15.1155C28.2112 15.1155 29.2237 14.1039 29.2237 12.8542Z" fill="#45CBEA"/>
<g opacity="0.2">
<path opacity="0.2" d="M28.255 13.9754C28.0215 14.2482 27.7 14.3438 27.5209 14.1938C27.3418 14.0448 27.384 13.7016 27.6043 13.4298C27.8312 13.1645 28.1593 13.0613 28.3384 13.2113C28.5184 13.367 28.4762 13.7035 28.255 13.9754Z" fill="white"/>
</g>
<path d="M6.87908 15.7835C6.66064 15.5163 6.70096 15.1225 6.96814 14.9041C8.04721 14.0238 9.36346 13.4097 10.7838 13.1116C9.82846 12.5603 8.76065 12.1666 7.63002 11.9538C7.29064 11.89 7.06752 11.5628 7.13127 11.2235C7.19596 10.8841 7.52033 10.6628 7.86158 10.7247C9.74502 11.08 11.4803 11.8853 12.88 13.0544C13.0788 13.2203 13.1547 13.4922 13.0703 13.7378C12.986 13.9825 12.7591 14.1503 12.5003 14.1597C10.7247 14.2188 9.04096 14.8272 7.75846 15.8735C7.49221 16.09 7.09752 16.0516 6.87908 15.7835Z" fill="#3E4347"/>
<path d="M7.7116 9.72559C7.40973 9.72559 7.16504 9.48091 7.16504 9.17903C7.16504 8.87716 7.40973 8.63153 7.7116 8.63153C8.94535 8.63059 11.1447 8.32309 12.0063 6.26996C12.1235 5.99153 12.4422 5.86027 12.7225 5.97746C13.001 6.09465 13.1322 6.41434 13.015 6.69371C11.8666 9.42747 8.92379 9.72466 7.7116 9.72559Z" fill="#3E4347"/>
<path d="M23.1208 15.7835C23.3392 15.5163 23.2989 15.1225 23.0317 14.9041C21.9527 14.0238 20.6364 13.4097 19.2161 13.1116C20.1714 12.5603 21.2392 12.1666 22.3698 11.9538C22.7092 11.89 22.9323 11.5628 22.8686 11.2235C22.8039 10.8841 22.4795 10.6628 22.1383 10.7247C20.2548 11.08 18.5195 11.8853 17.1198 13.0544C16.9211 13.2203 16.8452 13.4922 16.9295 13.7378C17.0139 13.9825 17.2408 14.1503 17.4995 14.1597C19.2752 14.2188 20.9589 14.8272 22.2414 15.8735C22.5077 16.09 22.9023 16.0516 23.1208 15.7835Z" fill="#3E4347"/>
<path d="M22.2877 9.72559C22.5896 9.72559 22.8343 9.48091 22.8343 9.17903C22.8343 8.87716 22.5896 8.63153 22.2877 8.63153C21.054 8.63059 18.8546 8.32309 17.993 6.26996C17.8759 5.99153 17.5571 5.86027 17.2768 5.97746C16.9984 6.09465 16.8671 6.41434 16.9843 6.69371C18.1327 9.42747 21.0755 9.72466 22.2877 9.72559Z" fill="#3E4347"/>
</g>
<defs>
<clipPath id="clip0_307_172066">
<rect width="30" height="30" fill="white"/>
</clipPath>
</defs>
</svg>
