<svg width="40" height="40" viewBox="0 0 40 40" fill="none" xmlns="http://www.w3.org/2000/svg">
<circle cx="20" cy="20" r="20" fill="#EEEEEE"/>
<path d="M20.6471 19.353C20.7816 19.353 20.9124 19.3634 21.0418 19.3828C20.5371 19.7439 20.0802 20.1696 19.6855 20.6471H11.5882C11.245 20.6471 10.9159 20.7835 10.6732 21.0262C10.4305 21.2689 10.2941 21.598 10.2941 21.9413V23.8824C10.2941 25.7033 12.3375 27.1177 16.1176 27.1177C16.842 27.1226 17.5653 27.0624 18.2788 26.9379C18.3862 27.3636 18.5338 27.7726 18.7136 28.1634C17.859 28.3341 16.9892 28.4174 16.1176 28.4119C11.7021 28.4119 9 26.5406 9 23.8824V21.9413C9 21.2548 9.27269 20.5965 9.75808 20.1111C10.2435 19.6257 10.9018 19.353 11.5882 19.353H20.6471Z" fill="#474747"/>
<path d="M28.412 14.8237C28.412 15.6817 28.0711 16.5046 27.4644 17.1114C26.8577 17.7181 26.0348 18.059 25.1767 18.059C24.3186 18.059 23.4957 17.7181 22.889 17.1114C22.2823 16.5046 21.9414 15.6817 21.9414 14.8237C21.9414 13.9656 22.2823 13.1427 22.889 12.536C23.4957 11.9292 24.3186 11.5884 25.1767 11.5884C26.0348 11.5884 26.8577 11.9292 27.4644 12.536C28.0711 13.1427 28.412 13.9656 28.412 14.8237ZM25.1767 12.8825C24.6619 12.8825 24.1681 13.087 23.8041 13.4511C23.44 13.8151 23.2355 14.3088 23.2355 14.8237C23.2355 15.3385 23.44 15.8323 23.8041 16.1963C24.1681 16.5603 24.6619 16.7648 25.1767 16.7648C25.6915 16.7648 26.1853 16.5603 26.5493 16.1963C26.9134 15.8323 27.1179 15.3385 27.1179 14.8237C27.1179 14.3088 26.9134 13.8151 26.5493 13.4511C26.1853 13.087 25.6915 12.8825 25.1767 12.8825Z" fill="#474747"/>
<path d="M16.1178 9C16.7126 9 17.3016 9.11716 17.8511 9.34478C18.4007 9.57241 18.9 9.90604 19.3206 10.3266C19.7412 10.7472 20.0748 11.2465 20.3024 11.7961C20.53 12.3456 20.6472 12.9346 20.6472 13.5294C20.6472 14.1242 20.53 14.7132 20.3024 15.2627C20.0748 15.8123 19.7412 16.3116 19.3206 16.7322C18.9 17.1528 18.4007 17.4864 17.8511 17.714C17.3016 17.9417 16.7126 18.0588 16.1178 18.0588C14.9165 18.0588 13.7644 17.5816 12.915 16.7322C12.0656 15.8828 11.5884 14.7307 11.5884 13.5294C11.5884 12.3281 12.0656 11.1761 12.915 10.3266C13.7644 9.4772 14.9165 9 16.1178 9ZM16.1178 10.2941C15.2597 10.2941 14.4368 10.635 13.8301 11.2417C13.2234 11.8484 12.8825 12.6714 12.8825 13.5294C12.8825 14.3875 13.2234 15.2104 13.8301 15.8171C14.4368 16.4238 15.2597 16.7647 16.1178 16.7647C16.9758 16.7647 17.7988 16.4238 18.4055 15.8171C19.0122 15.2104 19.3531 14.3875 19.3531 13.5294C19.3531 12.6714 19.0122 11.8484 18.4055 11.2417C17.7988 10.635 16.9758 10.2941 16.1178 10.2941Z" fill="#474747"/>
<path d="M31.0001 25.1766C31.0001 26.7211 30.3865 28.2023 29.2944 29.2944C28.2023 30.3865 26.7211 31.0001 25.1766 31.0001C23.6321 31.0001 22.1508 30.3865 21.0587 29.2944C19.9666 28.2023 19.353 26.7211 19.353 25.1766C19.353 23.6321 19.9666 22.1508 21.0587 21.0587C22.1508 19.9666 23.6321 19.353 25.1766 19.353C26.7211 19.353 28.2023 19.9666 29.2944 21.0587C30.3865 22.1508 31.0001 23.6321 31.0001 25.1766ZM25.8236 22.5883C25.8236 22.4167 25.7554 22.2521 25.6341 22.1308C25.5127 22.0094 25.3482 21.9413 25.1766 21.9413C25.0049 21.9413 24.8404 22.0094 24.719 22.1308C24.5977 22.2521 24.5295 22.4167 24.5295 22.5883V24.5295H22.5883C22.4167 24.5295 22.2521 24.5977 22.1308 24.719C22.0094 24.8404 21.9413 25.0049 21.9413 25.1766C21.9413 25.3482 22.0094 25.5127 22.1308 25.6341C22.2521 25.7554 22.4167 25.8236 22.5883 25.8236H24.5295V27.7648C24.5295 27.9364 24.5977 28.101 24.719 28.2223C24.8404 28.3437 25.0049 28.4118 25.1766 28.4118C25.3482 28.4118 25.5127 28.3437 25.6341 28.2223C25.7554 28.101 25.8236 27.9364 25.8236 27.7648V25.8236H27.7648C27.9364 25.8236 28.101 25.7554 28.2223 25.6341C28.3437 25.5127 28.4118 25.3482 28.4118 25.1766C28.4118 25.0049 28.3437 24.8404 28.2223 24.719C28.101 24.5977 27.9364 24.5295 27.7648 24.5295H25.8236V22.5883Z" fill="#474747"/>
</svg>
