<svg width="40" height="40" viewBox="0 0 40 40" fill="none" xmlns="http://www.w3.org/2000/svg">
<circle cx="20" cy="20" r="20" fill="#EEEEEE"/>
<path d="M25.6868 31.102C25.4726 31.1014 25.2592 31.0774 25.05 31.0304C21.0684 30.1881 17.4002 28.2132 14.4677 25.3329C11.5978 22.4463 9.60738 18.7711 8.73724 14.7519C8.63464 14.251 8.65982 13.7315 8.81036 13.2434C8.9609 12.7553 9.23174 12.3151 9.59681 11.965L12.1437 9.45815C12.2738 9.33234 12.4284 9.236 12.5973 9.17541C12.7663 9.11483 12.9458 9.09135 13.1242 9.10653C13.3093 9.12627 13.4878 9.18722 13.6473 9.28509C13.8068 9.38296 13.9434 9.51537 14.0475 9.67302L17.2311 14.4849C17.3505 14.6716 17.4081 14.8926 17.3955 15.1153C17.3829 15.338 17.3007 15.5507 17.1611 15.7221L15.5629 17.6755C16.1994 19.1161 17.1008 20.4182 18.218 21.5107C19.328 22.6429 20.64 23.547 22.0829 24.1739L24.0631 22.5656C24.2294 22.4312 24.4318 22.3517 24.6434 22.3377C24.8549 22.3238 25.0656 22.376 25.2474 22.4874L30.0547 25.665C30.2197 25.7657 30.3602 25.9033 30.4658 26.0675C30.5714 26.2316 30.6393 26.4181 30.6644 26.6129C30.6895 26.8077 30.6712 27.0058 30.6108 27.1923C30.5504 27.3789 30.4495 27.549 30.3157 27.69L27.8325 30.2034C27.5504 30.4905 27.2157 30.7176 26.8474 30.8719C26.4791 31.0261 26.0847 31.1043 25.6868 31.102ZM13.0224 10.3958L10.4755 12.9027C10.2701 13.0984 10.1181 13.3454 10.0344 13.6194C9.95063 13.8934 9.93808 14.1849 9.99795 14.4654C10.807 18.2369 12.6669 21.688 15.3528 24.4018C18.1125 27.1115 21.5644 28.9691 25.3111 29.7607C25.5947 29.8213 25.8886 29.809 26.1664 29.7249C26.4442 29.6408 26.6973 29.4875 26.9029 29.2788L29.3861 26.7654L24.7444 23.6986L22.6178 25.4306C22.5364 25.4965 22.4404 25.541 22.3383 25.5603C22.2362 25.5796 22.1311 25.5731 22.032 25.5413C20.2662 24.8759 18.6659 23.8198 17.3457 22.4484C15.9802 21.1443 14.9202 19.5417 14.2449 17.7602C14.2163 17.6523 14.2154 17.5388 14.2421 17.4304C14.2689 17.3221 14.3225 17.2226 14.3977 17.1416L16.1168 15.0384L13.0224 10.3958Z" fill="#474747"/>
</svg>
