<svg width="30" height="30" viewBox="0 0 30 30" fill="none" xmlns="http://www.w3.org/2000/svg">
<g clip-path="url(#clip0_307_172180)">
<path d="M15 30C23.2843 30 30 23.2843 30 15C30 6.71573 23.2843 0 15 0C6.71573 0 0 6.71573 0 15C0 23.2843 6.71573 30 15 30Z" fill="#FFD93B"/>
<path d="M29.9998 15.0003C29.9998 23.2878 23.2826 30.0003 14.9998 30.0003C10.2842 30.0003 6.0748 27.8253 3.32324 24.4175C5.89668 26.4987 9.17324 27.7409 12.7404 27.7409C21.0232 27.7409 27.7404 21.0284 27.7404 12.7409C27.7404 9.17373 26.4982 5.89717 24.417 3.32373C27.8201 6.07529 29.9998 10.2847 29.9998 15.0003Z" fill="#F4C534"/>
<path d="M21.3055 24.1529C17.1017 22.9876 12.8989 22.9867 8.69608 24.1529C8.08671 24.1529 7.61796 23.5717 7.78671 22.9811C8.70546 19.8592 11.5836 17.5811 14.9961 17.5811C18.418 17.5811 21.2961 19.8592 22.2148 22.9811C22.3836 23.5717 21.9148 24.1529 21.3055 24.1529Z" fill="#3E4347"/>
<path d="M18.038 23.4851C18.0999 22.6226 17.8196 21.7929 17.2636 21.1694C16.9017 20.7813 16.3636 20.6351 15.8583 20.8376C15.2527 21.071 14.587 21.2023 13.8455 21.2023C13.8455 21.2023 13.8455 21.2023 13.8361 21.2023C13.0064 21.2023 12.2658 21.6513 12.0492 22.4538C11.9592 22.7829 11.9452 23.1316 11.9724 23.4841C13.9936 23.2151 16.0158 23.2151 18.038 23.4851Z" fill="#E24B4B"/>
<path d="M10.5154 16.4215C11.5023 16.4215 12.3023 15.2886 12.3023 13.8912C12.3023 12.4937 11.5023 11.3608 10.5154 11.3608C9.52853 11.3608 8.72852 12.4937 8.72852 13.8912C8.72852 15.2886 9.52853 16.4215 10.5154 16.4215Z" fill="#3E4347"/>
<path d="M11.2644 12.4698C11.1101 12.3022 10.8815 12.2617 10.754 12.3792C10.6264 12.4967 10.6481 12.7278 10.8025 12.8954C10.9569 13.0629 11.1854 13.1035 11.313 12.9859C11.4406 12.8684 11.4188 12.6373 11.2644 12.4698Z" fill="#5A5F63"/>
<path d="M19.4851 16.4215C20.472 16.4215 21.272 15.2886 21.272 13.8912C21.272 12.4937 20.472 11.3608 19.4851 11.3608C18.4983 11.3608 17.6982 12.4937 17.6982 13.8912C17.6982 15.2886 18.4983 16.4215 19.4851 16.4215Z" fill="#3E4347"/>
<path d="M20.2303 12.4654C20.0759 12.2978 19.8473 12.2573 19.7198 12.3748C19.5922 12.4924 19.614 12.7234 19.7683 12.891C19.9227 13.0585 20.1513 13.0991 20.2788 12.9815C20.4064 12.864 20.3846 12.6329 20.2303 12.4654Z" fill="#5A5F63"/>
<path d="M23.5366 10.7841C23.515 10.7841 23.4916 10.7831 23.4691 10.7803C19.7866 10.3913 18.5875 6.98908 18.5378 6.84471C18.4253 6.51377 18.6016 6.15471 18.9325 6.04127C19.2625 5.92877 19.6207 6.10502 19.735 6.43502C19.7772 6.5569 20.741 9.2194 23.6022 9.52127C23.9491 9.55783 24.2013 9.87002 24.1647 10.2169C24.131 10.5431 23.8563 10.7841 23.5366 10.7841Z" fill="#E9B02C"/>
<path d="M6.46174 10.784C6.14205 10.784 5.86736 10.5421 5.83361 10.2178C5.79705 9.86996 6.0483 9.55871 6.39611 9.52214C9.26299 9.21933 10.2249 6.54839 10.2652 6.43496C10.3795 6.10496 10.7377 5.93152 11.0686 6.04402C11.3986 6.15746 11.5739 6.51558 11.4614 6.84558C11.4117 6.98996 10.2127 10.3921 6.52924 10.7812C6.50674 10.7831 6.48424 10.784 6.46174 10.784Z" fill="#E9B02C"/>
<path d="M11.0537 18.7037C11.8618 19.3056 13.3187 19.7125 15.0006 19.7125C16.6815 19.7125 18.1384 19.3056 18.9465 18.7047C17.799 17.994 16.4471 17.5815 14.9959 17.5815C13.5493 17.5806 12.2003 17.994 11.0537 18.7037Z" fill="white"/>
<path d="M7.61227 18.7892C7.61227 17.9408 6.07664 15.6758 6.07664 15.6758C6.07664 15.6758 4.54102 17.9408 4.54102 18.7892C4.54102 19.6377 5.2282 20.3248 6.07664 20.3248C6.92508 20.3248 7.61227 19.6367 7.61227 18.7892Z" fill="#45CBEA"/>
<g opacity="0.2">
<path opacity="0.2" d="M6.95499 19.4439C6.77405 19.6876 6.4853 19.7964 6.32311 19.6782C6.16092 19.561 6.17874 19.2629 6.35967 19.0098C6.54061 18.7567 6.82092 18.6489 6.98311 18.766C7.15374 18.8832 7.13592 19.1907 6.95499 19.4439Z" fill="white"/>
</g>
<path d="M7.46977 27.5754C7.46977 26.2357 5.04445 22.6582 5.04445 22.6582C5.04445 22.6582 2.61914 26.2357 2.61914 27.5754C2.61914 28.9151 3.70477 30.0007 5.04445 30.0007C6.38414 30.0007 7.46977 28.9151 7.46977 27.5754Z" fill="#45CBEA"/>
<g opacity="0.2">
<path opacity="0.2" d="M6.4334 28.6084C6.1484 28.9937 5.6909 29.1652 5.43403 28.9796C5.17715 28.794 5.20528 28.3234 5.49122 27.924C5.77621 27.5246 6.21871 27.353 6.47559 27.5387C6.74653 27.7243 6.7184 28.209 6.4334 28.6084Z" fill="white"/>
</g>
</g>
<defs>
<clipPath id="clip0_307_172180">
<rect width="30" height="30" fill="white"/>
</clipPath>
</defs>
</svg>
