<svg width="30" height="30" viewBox="0 0 30 30" fill="none" xmlns="http://www.w3.org/2000/svg">
<g clip-path="url(#clip0_307_172301)">
<path d="M15 30C23.2843 30 30 23.2843 30 15C30 6.71573 23.2843 0 15 0C6.71573 0 0 6.71573 0 15C0 23.2843 6.71573 30 15 30Z" fill="#FFD93B"/>
<path d="M29.9998 14.9998C29.9998 23.2873 23.2826 29.9998 14.9998 29.9998C10.2842 29.9998 6.0748 27.8248 3.32324 24.417C5.89668 26.4982 9.17324 27.7404 12.7404 27.7404C21.0232 27.7404 27.7404 21.0279 27.7404 12.7404C27.7404 9.17324 26.4982 5.89668 24.417 3.32324C27.8201 6.0748 29.9998 10.2842 29.9998 14.9998Z" fill="#F4C534"/>
<path d="M9.09027 4.27302C9.09027 4.27302 6.04246 3.84459 2.84277 7.54864C2.84277 7.54864 4.91184 0.913968 9.09027 4.27302Z" fill="#3E4347"/>
<path d="M20.9082 4.27302C20.9082 4.27302 23.956 3.84459 27.1557 7.54864C27.1557 7.54864 25.0866 0.913968 20.9082 4.27302Z" fill="#3E4347"/>
<path d="M20.1745 23.5321C20.1745 24.6637 17.857 26.6334 15.0023 26.6334C12.1476 26.6334 9.83008 24.6646 9.83008 23.5321C13.2763 22.1653 16.7245 22.1662 20.1745 23.5321Z" fill="#E24B4B"/>
<path d="M20.1773 23.5321C19.0129 23.8115 16.6935 24.1828 15.636 23.6062C15.2498 23.3578 14.7585 23.37 14.3601 23.6062C14.3601 23.6062 13.9823 23.8387 13.1779 23.8931C12.5751 23.9512 11.2804 23.879 9.83008 23.5321C10.7076 23.5762 13.3841 23.7178 14.1491 23.2575H14.1613C14.4107 22.9837 15.2413 22.8468 15.8235 23.2443C15.8357 23.2443 15.8357 23.2575 15.847 23.2575C16.6551 23.7234 19.2548 23.5781 20.1773 23.5321Z" fill="#BF3333"/>
<path d="M14.9997 24.2117C15.768 24.2117 16.3909 23.8561 16.3909 23.4176C16.3909 22.979 15.768 22.6235 14.9997 22.6235C14.2313 22.6235 13.6084 22.979 13.6084 23.4176C13.6084 23.8561 14.2313 24.2117 14.9997 24.2117Z" fill="#3E4347"/>
<path d="M20.1742 23.5332C20.1742 23.5332 16.7702 24.0479 15.7548 23.4404C15.7483 23.4338 15.7427 23.431 15.737 23.4272C15.2748 23.1329 14.7189 23.1422 14.253 23.4338C14.2502 23.4338 14.2473 23.4366 14.2436 23.4404C13.2311 24.0479 9.82422 23.5332 9.82422 23.5332C9.82422 23.5332 11.1677 20.9082 12.1773 20.4282C12.7745 20.1432 13.4711 20.1329 14.057 20.3504C14.6645 20.5754 15.3386 20.5744 15.947 20.3494C16.5311 20.1329 17.2277 20.1432 17.8258 20.4282C18.8308 20.9082 20.1742 23.5332 20.1742 23.5332Z" fill="#E24B4B"/>
<path d="M15.5146 14.0233C15.5146 17.5155 18.0946 20.3448 21.2784 20.3448C24.4621 20.3448 27.0515 17.5155 27.0515 14.0233C27.0515 10.5311 24.4621 7.69141 21.2784 7.69141C18.0946 7.69141 15.5146 10.532 15.5146 14.0233Z" fill="#F4C534"/>
<path d="M21.2809 18.928C23.9909 18.928 26.1878 16.7311 26.1878 14.0211C26.1878 11.3111 23.9909 9.11426 21.2809 9.11426C18.5709 9.11426 16.374 11.3111 16.374 14.0211C16.374 16.7311 18.5709 18.928 21.2809 18.928Z" fill="white"/>
<path d="M23.5686 14.0204C23.5686 15.286 22.5467 16.3079 21.2811 16.3079C20.0248 16.3079 19.0029 15.286 19.0029 14.0204C19.0029 12.7642 20.0248 11.7329 21.2811 11.7329C22.5467 11.7329 23.5686 12.7557 23.5686 14.0204Z" fill="#3E4347"/>
<path d="M23.9111 8.87541C21.5908 8.13948 20.0298 8.30823 19.0117 8.66916C18.8364 9.02354 18.6011 9.34229 18.3086 9.6151C19.053 9.76698 19.9905 9.85885 21.0198 9.85885C22.3773 9.85885 23.5745 9.69948 24.3761 9.45291C24.1989 9.2776 24.0423 9.08541 23.9111 8.87541Z" fill="#F4C534"/>
<path d="M24.6257 18.196C23.8335 17.9925 22.7629 17.8604 21.5488 17.8604C20.167 17.8604 18.952 18.0254 18.1504 18.2803C18.2713 18.4407 18.3791 18.6085 18.4701 18.7885C21.5413 19.8103 23.3207 19.2694 24.2741 18.7294C24.3735 18.54 24.4916 18.3628 24.6257 18.196Z" fill="#F4C534"/>
<path d="M22.4561 12.8481C22.2016 12.5936 21.8677 12.515 21.7103 12.6724C21.5529 12.8298 21.6315 13.1637 21.886 13.4182C22.1404 13.6726 22.4743 13.7513 22.6317 13.5939C22.7892 13.4364 22.7105 13.1025 22.4561 12.8481Z" fill="white"/>
<path d="M8.60781 19.6839C11.7351 19.6839 14.2703 17.1487 14.2703 14.0214C14.2703 10.8941 11.7351 8.35889 8.60781 8.35889C5.4805 8.35889 2.94531 10.8941 2.94531 14.0214C2.94531 17.1487 5.4805 19.6839 8.60781 19.6839Z" fill="#F4C534"/>
<path d="M8.60206 13.1514C6.49081 13.1514 4.65144 13.7092 3.68206 14.5304C3.26394 14.8848 3.11581 15.4717 3.30706 15.9854L3.30988 15.9929C4.10488 15.092 6.17488 14.4461 8.60206 14.4461C11.0386 14.4461 13.1105 15.0929 13.9046 15.9939C13.9055 15.9911 13.9064 15.9892 13.9074 15.9864C14.0977 15.4726 13.9496 14.8857 13.5314 14.5314C12.5621 13.7092 10.7199 13.1514 8.60206 13.1514Z" fill="#3E4347"/>
</g>
<defs>
<clipPath id="clip0_307_172301">
<rect width="30" height="30" fill="white"/>
</clipPath>
</defs>
</svg>
