<svg width="30" height="30" viewBox="0 0 30 30" fill="none" xmlns="http://www.w3.org/2000/svg">
<g clip-path="url(#clip0_307_172441)">
<path d="M15 30C23.2843 30 30 23.2843 30 15C30 6.71573 23.2843 0 15 0C6.71573 0 0 6.71573 0 15C0 23.2843 6.71573 30 15 30Z" fill="#FFD93B"/>
<path d="M29.9998 15.0003C29.9998 23.2878 23.2826 30.0003 14.9998 30.0003C10.2842 30.0003 6.0748 27.8253 3.32324 24.4175C5.89668 26.4987 9.17324 27.7409 12.7404 27.7409C21.0232 27.7409 27.7404 21.0284 27.7404 12.7409C27.7404 9.17373 26.4982 5.89717 24.417 3.32373C27.8201 6.07529 29.9998 10.2847 29.9998 15.0003Z" fill="#F4C534"/>
<path d="M15.3033 25.5633C14.6977 25.3383 13.9224 24.8499 13.6299 24.2668C13.9411 24.578 14.4314 24.9043 15.4308 25.1237C17.5674 25.5858 17.1577 24.2583 15.9277 23.7305C15.5039 23.6246 15.2827 23.063 15.7111 22.7302C15.8611 22.6102 15.9914 22.5699 16.1836 22.4743C16.5792 22.2455 16.9927 21.8424 16.928 21.3933C16.9524 21.3212 16.688 21.1374 16.3599 21.1374C16.0477 21.113 15.7271 21.1449 15.4308 21.2096C14.8646 21.3352 13.9908 21.623 13.6299 22.074C13.8024 21.5574 14.7774 20.9649 15.3033 20.769C17.9255 19.7602 18.3652 22.1255 16.568 23.1624C16.568 23.1624 16.5596 23.1624 16.5596 23.1708H16.568C18.3867 24.219 17.9142 26.5674 15.3033 25.5633Z" fill="#3E4347"/>
<path d="M23.4579 23.904C23.4579 25.0768 22.1585 25.959 21.5773 26.2956C21.4067 26.3931 21.1995 26.3949 21.0316 26.2974C20.4691 25.974 19.2213 25.1331 19.1473 24.0099C19.1079 23.4184 19.496 22.8868 20.081 22.7912C20.621 22.704 21.1048 22.9984 21.3016 23.4474C21.4741 23.0527 21.8679 22.7771 22.3292 22.7771C22.9535 22.7771 23.4579 23.2815 23.4579 23.904Z" fill="#E24B4B"/>
<path d="M29.9994 19.9569C29.9994 21.6378 28.1375 22.9025 27.3041 23.3843C27.0603 23.524 26.7631 23.5268 26.5213 23.3872C25.715 22.9231 23.9272 21.7184 23.8203 20.1087C23.7641 19.2612 24.32 18.499 25.1591 18.3622C25.9325 18.2375 26.6253 18.6594 26.9084 19.3025C27.155 18.7372 27.7203 18.3415 28.3813 18.3415C29.2766 18.3415 29.9994 19.0644 29.9994 19.9569Z" fill="#E24B4B"/>
<path d="M25.6069 7.14685C23.1422 5.71154 20.4122 5.55216 18.8006 5.61685C18.2944 5.63467 18.0534 4.99341 18.4537 4.68123C21.389 2.3806 24.3956 4.99904 25.9247 6.75779C26.1122 6.9706 25.8534 7.28842 25.6069 7.14685Z" fill="#3E4347"/>
<path d="M4.39432 7.14724C6.85901 5.71193 9.58901 5.55255 11.2006 5.61724C11.7068 5.63505 11.9478 4.9938 11.5474 4.68161C8.61307 2.38193 5.60651 5.00036 4.07745 6.75911C3.88901 6.97099 4.14776 7.2888 4.39432 7.14724Z" fill="#3E4347"/>
<path d="M25.6046 13.2836C25.6046 16.0726 23.5833 18.3404 21.0896 18.3404C18.6033 18.3404 16.583 16.0726 16.583 13.2836C16.583 10.4851 18.6043 8.21826 21.0896 8.21826C23.5833 8.21732 25.6046 10.4851 25.6046 13.2836Z" fill="white"/>
<path d="M23.1409 14.0791C23.1409 15.3381 22.1106 16.3675 20.8431 16.3675C19.5841 16.3675 18.5547 15.3372 18.5547 14.0791C18.5547 12.8116 19.585 11.7812 20.8431 11.7812C22.1106 11.7812 23.1409 12.8116 23.1409 14.0791Z" fill="#3E4347"/>
<path d="M22.1714 13.6996C21.9933 13.8777 21.6464 13.7924 21.3848 13.5383C21.1308 13.2758 21.0464 12.929 21.2245 12.7508C21.3942 12.5812 21.7495 12.658 22.0027 12.9112C22.2652 13.1746 22.3411 13.5299 22.1714 13.6996Z" fill="white"/>
<path d="M13.418 13.2836C13.418 16.0726 11.3968 18.3404 8.90305 18.3404C6.4168 18.3404 4.39648 16.0726 4.39648 13.2836C4.39648 10.4851 6.41773 8.21826 8.90305 8.21826C11.3968 8.21732 13.418 10.4851 13.418 13.2836Z" fill="white"/>
<path d="M10.9534 14.0791C10.9534 15.3381 9.92313 16.3675 8.65562 16.3675C7.39656 16.3675 6.36719 15.3372 6.36719 14.0791C6.36719 12.8116 7.3975 11.7812 8.65562 11.7812C9.92313 11.7812 10.9534 12.8116 10.9534 14.0791Z" fill="#3E4347"/>
<path d="M9.98391 13.6996C9.80579 13.8777 9.45891 13.7924 9.19735 13.5383C8.94328 13.2758 8.85891 12.929 9.03703 12.7508C9.20672 12.5812 9.56203 12.658 9.81516 12.9112C10.0777 13.1746 10.1536 13.5299 9.98391 13.6996Z" fill="white"/>
</g>
<defs>
<clipPath id="clip0_307_172441">
<rect width="30" height="30" fill="white"/>
</clipPath>
</defs>
</svg>
