<svg width="30" height="30" viewBox="0 0 30 30" fill="none" xmlns="http://www.w3.org/2000/svg">
<g clip-path="url(#clip0_307_172017)">
<path d="M15 30C23.2843 30 30 23.2843 30 15C30 6.71573 23.2843 0 15 0C6.71573 0 0 6.71573 0 15C0 23.2843 6.71573 30 15 30Z" fill="#FFD93B"/>
<path d="M29.9998 15.0003C29.9998 23.2878 23.2826 30.0003 14.9998 30.0003C10.2842 30.0003 6.0748 27.8253 3.32324 24.4175C5.89668 26.4987 9.17324 27.7409 12.7404 27.7409C21.0232 27.7409 27.7404 21.0284 27.7404 12.7409C27.7404 9.17373 26.4982 5.89717 24.417 3.32373C27.8201 6.07529 29.9998 10.2847 29.9998 15.0003Z" fill="#F4C534"/>
<path d="M23.1693 21.2567C21.764 25.3095 18.6383 27.5145 15.0008 27.5145C11.3633 27.5145 8.23772 25.3095 6.83241 21.2567C6.58304 20.5338 7.05928 19.7342 7.65178 19.9245C12.5483 21.447 17.4449 21.447 22.3415 19.9245C22.9349 19.7351 23.4177 20.5338 23.1693 21.2567Z" fill="#3E4347"/>
<path d="M22.3421 19.9256C17.4456 21.4481 12.549 21.4481 7.65246 19.9256C7.5109 19.8806 7.37684 19.8937 7.25684 19.9471C8.6584 22.679 11.17 23.4674 14.9996 23.4674C18.8293 23.4674 21.3409 22.6799 22.7434 19.9481C22.6215 19.8937 22.4846 19.8796 22.3421 19.9256Z" fill="white"/>
<path d="M15.001 27.5145C16.366 27.5145 17.6588 27.2042 18.8156 26.6014C18.5175 25.7052 17.9213 24.9467 17.1328 24.4517C16.5497 24.087 15.8213 24.1273 15.2185 24.4583C14.7675 24.703 14.2575 24.7892 13.7672 24.7302C12.8063 24.6242 11.866 25.167 11.4216 26.022C11.326 26.2058 11.2472 26.3999 11.1807 26.5986C12.3394 27.2033 13.6341 27.5145 15.001 27.5145Z" fill="#E24B4B"/>
<path d="M12.7898 13.2553C12.4298 13.2553 12.0998 13.0162 11.9995 12.6515C11.6751 11.4675 10.5979 10.6396 9.37825 10.6396C8.16513 10.6396 7.09169 11.4665 6.76731 12.6515C6.64731 13.0893 6.19356 13.3471 5.76044 13.2262C5.32263 13.1071 5.06575 12.6562 5.18575 12.2184C5.70419 10.3237 7.42919 8.99902 9.37919 8.99902C11.3358 8.99902 13.0645 10.3228 13.582 12.2184C13.702 12.6553 13.4451 13.1062 13.0073 13.2262C12.9342 13.2459 12.862 13.2553 12.7898 13.2553Z" fill="#3E4347"/>
<path d="M24.0242 13.2553C23.6642 13.2553 23.3342 13.0162 23.2339 12.6515C22.9095 11.4675 21.8323 10.6396 20.6126 10.6396C19.3995 10.6396 18.3261 11.4665 18.0017 12.6515C17.8817 13.0893 17.4289 13.3471 16.9948 13.2262C16.557 13.1071 16.3001 12.6562 16.4201 12.2184C16.9386 10.3237 18.6636 8.99902 20.6136 8.99902C22.5701 8.99902 24.2989 10.3228 24.8164 12.2184C24.9364 12.6553 24.6795 13.1062 24.2417 13.2262C24.1686 13.2459 24.0964 13.2553 24.0242 13.2553Z" fill="#3E4347"/>
<path d="M27.5852 18.5015C27.6162 19.2599 27.0274 19.8983 26.2727 19.9293C25.5143 19.9602 24.8552 19.3724 24.8459 18.613C24.8271 17.0952 24.5449 13.6377 24.5449 13.6377C24.5449 13.6377 27.5243 17.0043 27.5852 18.5015Z" fill="#65B1EF"/>
<path d="M2.41523 18.5015C2.38429 19.2599 2.97304 19.8983 3.72773 19.9293C4.48617 19.9602 5.14523 19.3724 5.1546 18.613C5.17335 17.0952 5.45554 13.6377 5.45554 13.6377C5.45554 13.6377 2.47617 17.0043 2.41523 18.5015Z" fill="#65B1EF"/>
</g>
<defs>
<clipPath id="clip0_307_172017">
<rect width="30" height="30" fill="white"/>
</clipPath>
</defs>
</svg>
