<svg width="30" height="30" viewBox="0 0 30 30" fill="none" xmlns="http://www.w3.org/2000/svg">
<g clip-path="url(#clip0_307_171946)">
<path d="M15 30C23.2843 30 30 23.2843 30 15C30 6.71573 23.2843 0 15 0C6.71573 0 0 6.71573 0 15C0 23.2843 6.71573 30 15 30Z" fill="#FFD93B"/>
<path d="M29.9998 15.0003C29.9998 23.2878 23.2826 30.0003 14.9998 30.0003C10.2842 30.0003 6.0748 27.8253 3.32324 24.4175C5.89668 26.4987 9.17324 27.7409 12.7404 27.7409C21.0232 27.7409 27.7404 21.0284 27.7404 12.7409C27.7404 9.17373 26.4982 5.89717 24.417 3.32373C27.8201 6.07529 29.9998 10.2847 29.9998 15.0003Z" fill="#F4C534"/>
<path d="M22.1563 20.1399C21.2947 23.5814 18.4859 26.3592 14.9994 26.348C11.5166 26.3602 8.70312 23.5814 7.84624 20.1399C7.69531 19.5558 8.10593 18.9961 8.56906 19.1199C12.8141 20.2421 17.1894 20.2421 21.4344 19.1199C21.8928 18.9971 22.3072 19.5558 22.1563 20.1399Z" fill="#5A5F63"/>
<path d="M14.9992 25.1423C12.3723 25.1545 10.0201 23.2148 9.07324 20.4727C12.9929 21.397 17.0082 21.397 20.927 20.4727C19.9773 23.2158 17.6232 25.1555 14.9992 25.1423Z" fill="#3E4347"/>
<path d="M14.9998 25.1417C16.2316 25.1482 17.4007 24.7198 18.3963 23.9848C18.3523 23.8329 18.3035 23.6838 18.2445 23.5413C17.7551 22.3741 16.5682 22.0526 15.5791 22.5795C15.4113 22.6723 15.2238 22.7257 15.0316 22.7351C14.8245 22.7473 14.6238 22.706 14.4401 22.6254C13.3854 22.1482 12.2004 22.8766 11.8301 24.1498C12.7732 24.7845 13.8607 25.1473 14.9998 25.1417Z" fill="#E24B4B"/>
<path d="M12.6734 15.1565C12.349 15.1565 12.064 14.9193 12.0143 14.5893C11.9065 13.8805 11.2718 13.3462 10.5396 13.3462C9.80648 13.3462 9.17273 13.8805 9.06492 14.5893C9.00961 14.954 8.66742 15.2043 8.30367 15.149C7.93898 15.0937 7.68867 14.7524 7.74398 14.3877C7.95023 13.0321 9.15211 12.0093 10.5396 12.0093C11.9271 12.0093 13.129 13.0312 13.3352 14.3877C13.3905 14.7524 13.1402 15.0927 12.7755 15.149C12.7409 15.1537 12.7071 15.1565 12.6734 15.1565Z" fill="#3E4347"/>
<path d="M21.5962 15.1565C21.2718 15.1565 20.9868 14.9193 20.9371 14.5893C20.8293 13.8805 20.1946 13.3462 19.4625 13.3462C18.7293 13.3462 18.0956 13.8805 17.9878 14.5893C17.9325 14.954 17.5912 15.2043 17.2265 15.149C16.8618 15.0937 16.6115 14.7524 16.6668 14.3877C16.8731 13.0321 18.075 12.0093 19.4625 12.0093C20.85 12.0093 22.0518 13.0312 22.2581 14.3868C22.3134 14.7515 22.0631 15.0918 21.6984 15.148C21.6637 15.1537 21.63 15.1565 21.5962 15.1565Z" fill="#3E4347"/>
<path d="M6.46567 11.7135C6.45161 11.7135 6.43661 11.7135 6.42255 11.7135C6.05317 11.7116 5.75692 11.4107 5.7588 11.0413C5.76067 10.6738 6.05974 10.3776 6.4263 10.3776C6.43942 10.3776 6.45255 10.3776 6.46567 10.3776C8.5338 10.3776 10.4322 9.25443 11.4279 7.43942C11.605 7.11599 12.011 6.99692 12.3344 7.17505C12.6579 7.35224 12.776 7.75818 12.5988 8.08161C11.3688 10.3241 9.0213 11.7135 6.46567 11.7135Z" fill="#3E4347"/>
<path d="M23.5338 11.7136C20.9773 11.7136 18.6307 10.3251 17.4007 8.08168C17.2235 7.75825 17.3416 7.35231 17.6651 7.17512C17.9885 6.99793 18.3945 7.11606 18.5716 7.4395C19.572 9.26481 21.4807 10.3851 23.5685 10.3776C23.5695 10.3776 23.5713 10.3776 23.5723 10.3776C23.9398 10.3776 24.2379 10.6739 24.2398 11.0414C24.2417 11.4107 23.9454 11.7117 23.576 11.7136C23.5629 11.7136 23.5488 11.7136 23.5338 11.7136Z" fill="#3E4347"/>
<path d="M7.04415 19.0729C6.70571 19.9382 5.72978 20.3648 4.86446 20.0264C3.99915 19.6879 3.57259 18.712 3.91102 17.8467C4.24946 16.9814 6.68978 15.3623 6.68978 15.3623C6.68978 15.3623 7.38259 18.2076 7.04415 19.0729Z" fill="#45CBEA"/>
<g opacity="0.3">
<path opacity="0.3" d="M4.31538 18.7568C4.24695 18.3818 4.3857 18.0471 4.61257 18.0077C4.83476 17.974 5.0757 18.2449 5.13382 18.6199C5.19757 18.9893 5.05882 19.3249 4.83195 19.3633C4.6107 19.398 4.37445 19.1318 4.31538 18.7568Z" fill="white"/>
</g>
<path d="M22.9554 19.0729C23.2939 19.9382 24.2698 20.3648 25.1351 20.0264C26.0004 19.6879 26.427 18.712 26.0886 17.8467C25.7501 16.9814 23.3098 15.3623 23.3098 15.3623C23.3098 15.3623 22.617 18.2076 22.9554 19.0729Z" fill="#45CBEA"/>
<g opacity="0.3">
<path opacity="0.3" d="M25.6846 18.7568C25.753 18.3818 25.6142 18.0471 25.3874 18.0077C25.1652 17.974 24.9242 18.2449 24.8661 18.6199C24.8024 18.9893 24.9411 19.3249 25.168 19.3633C25.3892 19.398 25.6255 19.1318 25.6846 18.7568Z" fill="white"/>
</g>
<g opacity="0.2">
<path opacity="0.2" d="M17.038 22.8658C16.7811 22.7349 16.5152 22.7416 16.4442 22.8809C16.3732 23.0202 16.5239 23.2393 16.7809 23.3703C17.0378 23.5013 17.3037 23.4945 17.3747 23.3552C17.4457 23.2159 17.2949 22.9968 17.038 22.8658Z" fill="white"/>
</g>
</g>
<defs>
<clipPath id="clip0_307_171946">
<rect width="30" height="30" fill="white"/>
</clipPath>
</defs>
</svg>
