<svg width="30" height="30" viewBox="0 0 30 30" fill="none" xmlns="http://www.w3.org/2000/svg">
<g clip-path="url(#clip0_307_171965)">
<g opacity="0.1">
<path opacity="0.1" d="M17.869 26.6657C17.4739 26.4915 17.0667 26.5473 16.9595 26.7903C16.8523 27.0333 17.0857 27.3716 17.4809 27.5458C17.876 27.7201 18.2832 27.6643 18.3903 27.4213C18.4975 27.1782 18.2641 26.84 17.869 26.6657Z" fill="white"/>
</g>
<path d="M15 30C23.2843 30 30 23.2843 30 15C30 6.71573 23.2843 0 15 0C6.71573 0 0 6.71573 0 15C0 23.2843 6.71573 30 15 30Z" fill="#FFD93B"/>
<path d="M29.9998 15.0003C29.9998 23.2878 23.2826 30.0003 14.9998 30.0003C10.2842 30.0003 6.0748 27.8253 3.32324 24.4175C5.89668 26.4987 9.17324 27.7409 12.7404 27.7409C21.0232 27.7409 27.7404 21.0284 27.7404 12.7409C27.7404 9.17373 26.4982 5.89717 24.417 3.32373C27.8201 6.07529 29.9998 10.2847 29.9998 15.0003Z" fill="#F4C534"/>
<path d="M23.4031 12.2564C21.7306 12.2564 19.7665 11.497 17.6843 10.8586C17.4518 10.7873 17.2727 10.6017 17.2109 10.3673C17.149 10.1329 17.2118 9.88263 17.3777 9.70544C18.2571 8.76794 19.1365 7.89794 19.9709 6.86575C20.2137 6.56294 20.6571 6.51607 20.959 6.76075C21.2609 7.00544 21.3087 7.44794 21.064 7.74982C20.4668 8.4895 19.7749 9.22732 19.1768 9.85544C19.2199 9.8695 19.2621 9.88263 19.3052 9.89669C20.8681 10.3992 22.3409 10.867 23.4865 10.8501C23.8662 10.8314 24.1962 11.1501 24.2037 11.5383C24.2121 11.9254 23.9412 12.2564 23.4031 12.2564Z" fill="#3E4347"/>
<path d="M6.59574 12.2561C6.05761 12.2561 5.78668 11.9261 5.79511 11.5371C5.80355 11.149 6.1223 10.833 6.5123 10.849C7.66168 10.8668 9.13074 10.398 10.6936 9.89551C10.7357 9.88145 10.7789 9.86833 10.822 9.85426C10.2229 9.22614 9.53105 8.48739 8.93386 7.74864C8.69011 7.44676 8.73699 7.00426 9.03886 6.75958C9.34074 6.51583 9.78418 6.5627 10.0279 6.86458C10.8595 7.89395 11.7417 8.76676 12.6211 9.70426C12.787 9.88145 12.8498 10.1318 12.7879 10.3661C12.7251 10.6005 12.5461 10.7861 12.3145 10.8574C10.2332 11.4968 8.26824 12.2561 6.59574 12.2561Z" fill="#3E4347"/>
<path d="M26.0678 17.172C25.0507 22.3592 20.4832 26.2686 15.0016 26.2686C9.5116 26.2686 4.93566 22.3461 3.93159 17.1514C3.81159 16.5364 4.36284 15.9936 4.97409 16.1342C11.8225 17.7064 18.505 17.7411 25.0122 16.1558C25.6235 16.0058 26.1869 16.5524 26.0678 17.172Z" fill="#3E4347"/>
<path d="M26.0678 17.172C25.0507 22.3592 20.4832 26.2686 15.0016 26.2686C9.5116 26.2686 4.93566 22.3461 3.93159 17.1514C3.81159 16.5364 4.36284 15.9936 4.97409 16.1342C11.8225 17.7064 18.505 17.7411 25.0122 16.1558C25.6235 16.0058 26.1869 16.5524 26.0678 17.172Z" fill="#3E4347"/>
<path d="M22.8346 18.0513C21.9205 21.581 19.0564 21.7544 14.983 21.7544C10.9002 21.7544 8.18613 21.4591 7.14551 18.0044C9.86426 18.4919 12.5689 18.7356 15.208 18.7356C17.7721 18.7356 20.3268 18.506 22.8346 18.0513Z" fill="white"/>
<path d="M15.0022 26.2682C16.7075 26.2682 18.3247 25.8886 19.7741 25.2107C19.5079 24.5798 19.116 24.0154 18.6275 23.5532C17.8879 22.8539 16.8163 22.7282 15.876 23.106C15.4972 23.2607 15.0679 23.347 14.5747 23.347C14.3338 23.347 14.105 23.3245 13.8922 23.2898C12.9004 23.106 11.8569 23.3985 11.2607 24.2067C10.9982 24.5629 10.7863 24.9576 10.626 25.3757C11.9741 25.9448 13.4488 26.2682 15.0022 26.2682Z" fill="#E24B4B"/>
</g>
<defs>
<clipPath id="clip0_307_171965">
<rect width="30" height="30" fill="white"/>
</clipPath>
</defs>
</svg>
