<svg width="30" height="30" viewBox="0 0 30 30" fill="none" xmlns="http://www.w3.org/2000/svg">
<g clip-path="url(#clip0_307_172004)">
<path d="M15 30C23.2843 30 30 23.2843 30 15C30 6.71573 23.2843 0 15 0C6.71573 0 0 6.71573 0 15C0 23.2843 6.71573 30 15 30Z" fill="#FFD93B"/>
<path d="M24.5038 19.8502C22.9944 23.6236 19.31 26.2861 15.0022 26.2861C10.6897 26.2861 7.00535 23.6236 5.49598 19.8502C5.28504 19.3205 5.66004 18.7393 6.23191 18.7393H23.7679C24.3397 18.7393 24.7147 19.3205 24.5038 19.8502Z" fill="#3E4347"/>
<path d="M24.5038 19.8502C22.9944 23.6236 19.31 26.2861 15.0022 26.2861C10.6897 26.2861 7.00535 23.6236 5.49598 19.8502C5.28504 19.3205 5.66004 18.7393 6.23191 18.7393H23.7679C24.3397 18.7393 24.7147 19.3205 24.5038 19.8502Z" fill="#3E4347"/>
<path d="M29.9998 15.0003C29.9998 23.2878 23.2826 30.0003 14.9998 30.0003C10.2842 30.0003 6.0748 27.8253 3.32324 24.4175C5.89668 26.4987 9.17324 27.7409 12.7404 27.7409C21.0232 27.7409 27.7404 21.0284 27.7404 12.7409C27.7404 9.17373 26.4982 5.89717 24.417 3.32373C27.8201 6.07529 29.9998 10.2847 29.9998 15.0003Z" fill="#F4C534"/>
<path d="M6.83472 14.5161C6.65847 14.1701 6.79534 13.7464 7.14128 13.5701L10.5735 11.8179L7.85472 10.4295C7.50878 10.2533 7.3719 9.8295 7.54815 9.48356C7.7244 9.13763 8.14815 9.00075 8.49409 9.177L12.4391 11.1917C12.6744 11.3117 12.8225 11.5536 12.8225 11.8179C12.8225 12.0823 12.6744 12.3242 12.4391 12.4442L7.78065 14.8226C7.43097 15.0007 7.00909 14.8582 6.83472 14.5161Z" fill="#3E4347"/>
<path d="M22.2177 14.8226L17.5592 12.4442C17.3239 12.3242 17.1758 12.0823 17.1758 11.8179C17.1758 11.5536 17.3239 11.3117 17.5592 11.1917L21.5042 9.177C21.8511 9.00075 22.2739 9.13763 22.4502 9.48357C22.6264 9.8295 22.4895 10.2533 22.1436 10.4295L19.4248 11.8179L22.8561 13.5701C23.202 13.7464 23.3398 14.1701 23.1627 14.5161C22.9855 14.8639 22.5617 14.9979 22.2177 14.8226Z" fill="#3E4347"/>
<path d="M23.0129 20.0283L22.9904 20.0752C22.5367 20.9986 21.6273 21.6061 20.6017 21.6877C16.8667 21.9849 13.1317 21.9793 9.39668 21.6699C8.36543 21.5846 7.4523 20.9733 6.9948 20.0452L6.9873 20.0293H23.0129V20.0283Z" fill="white"/>
<path d="M15.4061 23.4971C15.0095 23.693 14.5379 23.8092 13.9979 23.8092C13.892 23.8092 13.7861 23.8036 13.6857 23.7933C13.0136 23.7352 12.3357 23.9677 11.9448 24.518C11.7095 24.8536 11.5323 25.2305 11.417 25.6336C12.5336 26.0517 13.7401 26.2852 15.0029 26.2852C16.2826 26.2852 17.5042 26.0452 18.6329 25.6167C18.4154 24.8827 17.9908 24.2367 17.4114 23.7661C16.8451 23.3067 16.0567 23.1746 15.4061 23.4971Z" fill="#E24B4B"/>
<g opacity="0.2">
<path opacity="0.2" d="M16.9745 24.0298C16.7237 23.8237 16.4228 23.7754 16.3025 23.9218C16.1823 24.0682 16.2881 24.354 16.539 24.56C16.7898 24.7661 17.0907 24.8144 17.2109 24.668C17.3312 24.5215 17.2254 24.2358 16.9745 24.0298Z" fill="white"/>
</g>
</g>
<defs>
<clipPath id="clip0_307_172004">
<rect width="30" height="30" fill="white"/>
</clipPath>
</defs>
</svg>
