<svg width="30" height="30" viewBox="0 0 30 30" fill="none" xmlns="http://www.w3.org/2000/svg">
<g clip-path="url(#clip0_307_172400)">
<path d="M15 30C23.2843 30 30 23.2843 30 15C30 6.71573 23.2843 0 15 0C6.71573 0 0 6.71573 0 15C0 23.2843 6.71573 30 15 30Z" fill="#FFD93B"/>
<path d="M29.9998 15.0003C29.9998 23.2878 23.2826 30.0003 14.9998 30.0003C10.2842 30.0003 6.0748 27.8253 3.32324 24.4175C5.89668 26.4987 9.17324 27.7409 12.7404 27.7409C21.0232 27.7409 27.7404 21.0284 27.7404 12.7409C27.7404 9.17373 26.4982 5.89717 24.417 3.32373C27.8201 6.07529 29.9998 10.2847 29.9998 15.0003Z" fill="#F4C534"/>
<path d="M19.7252 23.6249C19.3417 24.089 18.7802 24.2146 18.227 23.9278C16.2114 22.8581 13.787 22.8581 11.7724 23.9278C11.2192 24.2156 10.6539 24.1209 10.2705 23.6587C9.89267 23.2087 9.9986 22.424 10.7627 22.0218C13.4083 20.6184 16.5911 20.6184 19.2377 22.0218C20.0008 22.4268 20.103 23.1712 19.7252 23.6249Z" fill="#3E4347"/>
<path d="M16.208 14.3135C16.208 11.7467 18.2836 9.6626 20.8589 9.6626C23.4249 9.6626 25.5099 11.7467 25.5099 14.3135C25.5099 16.8889 23.4249 18.9729 20.8589 18.9729C18.2836 18.9739 16.208 16.8889 16.208 14.3135Z" fill="white"/>
<path d="M19.9215 17.3747C21.0916 17.3747 22.0402 16.4261 22.0402 15.256C22.0402 14.0858 21.0916 13.1372 19.9215 13.1372C18.7513 13.1372 17.8027 14.0858 17.8027 15.256C17.8027 16.4261 18.7513 17.3747 19.9215 17.3747Z" fill="#3E4347"/>
<path d="M19.5367 14.0372C19.3884 13.8889 19.0827 13.9542 18.8539 14.183C18.6251 14.4118 18.5598 14.7175 18.7081 14.8658C18.8564 15.0141 19.1621 14.9488 19.3909 14.72C19.6197 14.4911 19.685 14.1854 19.5367 14.0372Z" fill="white"/>
<path d="M13.5861 14.3135C13.5861 11.7467 11.5104 9.6626 8.93512 9.6626C6.36824 9.6626 4.28418 11.7467 4.28418 14.3135C4.28418 16.8889 6.36918 18.9729 8.93512 18.9729C11.5104 18.9739 13.5861 16.8889 13.5861 14.3135Z" fill="white"/>
<path d="M9.87266 17.3747C11.0428 17.3747 11.9914 16.4261 11.9914 15.256C11.9914 14.0858 11.0428 13.1372 9.87266 13.1372C8.7025 13.1372 7.75391 14.0858 7.75391 15.256C7.75391 16.4261 8.7025 17.3747 9.87266 17.3747Z" fill="#3E4347"/>
<path d="M10.94 14.1864C10.7112 13.9576 10.4055 13.8923 10.2572 14.0406C10.1089 14.1889 10.1742 14.4946 10.4031 14.7234C10.6319 14.9522 10.9376 15.0175 11.0859 14.8692C11.2341 14.7209 11.1688 14.4152 10.94 14.1864Z" fill="white"/>
</g>
<defs>
<clipPath id="clip0_307_172400">
<rect width="30" height="30" fill="white"/>
</clipPath>
</defs>
</svg>
