<svg width="30" height="30" viewBox="0 0 30 30" fill="none" xmlns="http://www.w3.org/2000/svg">
<g clip-path="url(#clip0_307_171612)">
<path d="M15 30C23.2843 30 30 23.2843 30 15C30 6.71573 23.2843 0 15 0C6.71573 0 0 6.71573 0 15C0 23.2843 6.71573 30 15 30Z" fill="#FFD93B"/>
<path d="M29.9998 15.0003C29.9998 23.2878 23.2826 30.0003 14.9998 30.0003C10.2842 30.0003 6.0748 27.8253 3.32324 24.4175C5.89668 26.4987 9.17324 27.7409 12.7404 27.7409C21.0232 27.7409 27.7404 21.0284 27.7404 12.7409C27.7404 9.17373 26.4982 5.89717 24.417 3.32373C27.8201 6.07529 29.9998 10.2847 29.9998 15.0003Z" fill="#F4C534"/>
<path d="M10.3288 6.51977C10.2106 8.11726 8.87189 9.4532 7.29033 9.55351C5.70971 9.64726 4.57158 8.5757 4.86033 7.11039C5.15189 5.64883 6.62189 4.19383 8.02533 3.96227C9.43158 3.73352 10.4413 4.92508 10.3288 6.51977Z" fill="#F4C534"/>
<path d="M10.0029 4.92716C9.61294 4.64309 9.1245 4.51278 8.57231 4.58403C7.14169 4.77997 5.69419 6.21622 5.44388 7.69934C5.352 8.27028 5.46356 8.78028 5.73169 9.18809C5.04544 8.76809 4.68731 8.02184 4.86075 7.10965C5.15231 5.64809 6.62231 4.19309 8.02575 3.96153C8.90419 3.82466 9.61013 4.21841 10.0029 4.92716Z" fill="#E9B02C"/>
<path d="M7.50208 22.3287C7.62865 23.4706 6.89739 24.2834 5.81927 24.0978C4.74395 23.9103 3.64051 22.8716 3.42676 21.8206C3.21208 20.7697 4.03333 20.015 5.19583 20.1078C6.36021 20.2034 7.36989 21.1859 7.50208 22.3287Z" fill="#F4C534"/>
<path d="M7.00426 21.1326C6.64989 20.8739 6.22333 20.7079 5.78645 20.6676C4.63239 20.5711 3.82051 21.3295 4.04083 22.3936C4.12051 22.8023 4.33801 23.2036 4.6277 23.557C4.03426 23.1164 3.55708 22.477 3.42676 21.8236C3.21208 20.7726 4.03333 20.0179 5.19583 20.1107C5.91301 20.1707 6.58051 20.5645 7.00426 21.1326Z" fill="#E9B02C"/>
<path d="M27.4256 13.576C27.4687 14.6129 26.4749 15.4735 25.2787 15.4951C24.0806 15.5148 23.1215 14.6044 23.0962 13.4654C23.0718 12.3254 23.9756 11.4535 25.1577 11.5351C26.3381 11.6176 27.3834 12.5401 27.4256 13.576Z" fill="#F4C534"/>
<path d="M26.9831 12.4806C26.624 12.2471 26.1937 12.0934 25.739 12.069C24.5512 11.9959 23.6437 12.864 23.6577 13.9956C23.6643 14.4249 23.8087 14.8253 24.0515 15.1478C23.4862 14.7906 23.1131 14.1671 23.0962 13.4659C23.0718 12.3259 23.9756 11.454 25.1578 11.5356C25.8881 11.5806 26.564 11.9602 26.9831 12.4806Z" fill="#E9B02C"/>
<path d="M14.8722 17.6434C14.8722 18.5247 14.1728 19.2409 13.3075 19.2325C12.4412 19.2241 11.7194 18.4984 11.7034 17.6247C11.6865 16.7509 12.3962 16.0459 13.2775 16.0469C14.1578 16.0478 14.8703 16.7612 14.8722 17.6434Z" fill="#F4C534"/>
<path d="M14.5881 16.7378C14.334 16.5588 14.0209 16.4528 13.6844 16.4528C12.805 16.4519 12.0953 17.1569 12.1131 18.0334C12.1197 18.3672 12.2284 18.6813 12.4112 18.9381C11.995 18.6485 11.7119 18.1656 11.7034 17.6247C11.6865 16.7509 12.3962 16.0459 13.2775 16.0469C13.8231 16.0478 14.3022 16.3206 14.5881 16.7378Z" fill="#E9B02C"/>
<path d="M19.4146 6.11217C19.4858 6.99811 18.8324 7.67217 17.9661 7.63842C17.0999 7.60373 16.3902 6.85842 16.3743 5.9528C16.3602 5.04811 17.0005 4.33561 17.8086 4.38905C18.6177 4.44249 19.3443 5.22718 19.4146 6.11217Z" fill="#F4C534"/>
<path d="M19.0762 5.17843C18.824 4.9778 18.5249 4.84843 18.2109 4.82686C17.3952 4.76874 16.7559 5.47655 16.7737 6.3803C16.7821 6.72436 16.8899 7.04874 17.0737 7.31499C16.6593 7.01217 16.3874 6.51249 16.3752 5.9528C16.3612 5.04811 17.0015 4.33561 17.8096 4.38905C18.3112 4.42186 18.7762 4.73593 19.0762 5.17843Z" fill="#E9B02C"/>
<path d="M22.802 22.2445C22.5742 23.7464 21.1773 25.1967 19.7711 25.3842C18.3639 25.568 17.282 24.3314 17.3317 22.7217C17.388 21.1102 18.6948 19.778 20.2764 19.6964C21.8561 19.6214 23.027 20.7408 22.802 22.2445Z" fill="#F4C534"/>
<path d="M22.4999 20.7372C22.0827 20.4691 21.5446 20.3294 20.9493 20.3716C19.379 20.4757 18.0683 21.8163 17.9868 23.4222C17.9521 24.0325 18.0918 24.5894 18.3486 25.0263C17.7074 24.5707 17.294 23.7138 17.3315 22.721C17.3877 21.1094 18.6946 19.7772 20.2761 19.6957C21.2502 19.6441 22.0799 20.0641 22.4999 20.7372Z" fill="#E9B02C"/>
<path d="M13.4537 13.2453C13.4537 15.9097 11.6631 18.066 9.44687 18.066C7.23156 18.066 5.42969 15.9097 5.42969 13.2453C5.42969 10.5913 7.23062 8.43408 9.44687 8.43408C11.6622 8.43408 13.4537 10.5913 13.4537 13.2453Z" fill="white"/>
<path d="M11.4651 14.4057C11.4651 15.5522 10.5341 16.4832 9.38757 16.4832C8.22976 16.4832 7.29883 15.5522 7.29883 14.4057C7.29883 13.2478 8.22976 12.3169 9.38757 12.3169C10.5341 12.3178 11.4651 13.2478 11.4651 14.4057Z" fill="#3E4347"/>
<path d="M10.4295 13.3133C10.1681 13.0519 9.83213 12.9641 9.6791 13.1171C9.52606 13.2701 9.61391 13.6061 9.87532 13.8675C10.1367 14.1289 10.4727 14.2168 10.6257 14.0637C10.7788 13.9107 10.6909 13.5747 10.4295 13.3133Z" fill="white"/>
<path d="M24.569 13.2453C24.569 15.9097 22.7784 18.066 20.5621 18.066C18.3468 18.066 16.5449 15.9097 16.5449 13.2453C16.5449 10.5913 18.3459 8.43408 20.5621 8.43408C22.7784 8.43408 24.569 10.5913 24.569 13.2453Z" fill="white"/>
<path d="M22.5813 14.4057C22.5813 15.5522 21.6504 16.4832 20.5038 16.4832C19.346 16.4832 18.415 15.5522 18.415 14.4057C18.415 13.2478 19.346 12.3169 20.5038 12.3169C21.6504 12.3178 22.5813 13.2478 22.5813 14.4057Z" fill="#3E4347"/>
<path d="M21.5467 13.3133C21.2853 13.0519 20.9493 12.9641 20.7963 13.1171C20.6432 13.2701 20.7311 13.6061 20.9925 13.8675C21.2539 14.1289 21.5899 14.2168 21.7429 14.0637C21.896 13.9107 21.8081 13.5747 21.5467 13.3133Z" fill="white"/>
<path d="M22.6793 21.5291C21.2449 24.3134 18.3481 26.2166 15.0012 26.2166C11.6543 26.2166 8.74805 24.3134 7.32305 21.5291C7.0418 20.9853 7.50118 20.3666 8.10118 20.4978C12.6949 21.4822 17.2981 21.4822 21.9012 20.4978C22.5012 20.3666 22.9606 20.9853 22.6793 21.5291Z" fill="#3E4347"/>
<path d="M21.9009 20.497C17.2978 21.4813 12.6946 21.4813 8.1009 20.497C8.08684 20.4941 8.07465 20.496 8.06152 20.4941C9.31496 23.2766 10.545 23.0554 14.999 23.0554C19.4615 23.0554 20.6756 23.2766 21.9328 20.4951C21.9215 20.496 21.9121 20.4941 21.9009 20.497Z" fill="white"/>
<path d="M15.0012 26.2165C16.4252 26.2165 17.7584 25.8556 18.9415 25.2453C18.184 23.825 16.6174 23.1012 14.8268 23.7809C14.448 23.9215 14.0552 23.9909 13.6699 24.005C12.4896 24.0481 11.6665 24.5647 11.1621 25.3006C12.3209 25.8772 13.6193 26.2165 15.0012 26.2165Z" fill="#E24B4B"/>
</g>
<defs>
<clipPath id="clip0_307_171612">
<rect width="30" height="30" fill="white"/>
</clipPath>
</defs>
</svg>
