<svg width="30" height="30" viewBox="0 0 30 30" fill="none" xmlns="http://www.w3.org/2000/svg">
<g clip-path="url(#clip0_307_172320)">
<path d="M15 30C23.2843 30 30 23.2843 30 15C30 6.71573 23.2843 0 15 0C6.71573 0 0 6.71573 0 15C0 23.2843 6.71573 30 15 30Z" fill="#FFD93B"/>
<path d="M29.9998 14.9998C29.9998 23.2873 23.2826 29.9998 14.9998 29.9998C10.2842 29.9998 6.0748 27.8248 3.32324 24.417C5.89668 26.4982 9.17324 27.7404 12.7404 27.7404C21.0232 27.7404 27.7404 21.0279 27.7404 12.7404C27.7404 9.17324 26.4982 5.89668 24.417 3.32324C27.8201 6.0748 29.9998 10.2842 29.9998 14.9998Z" fill="#F4C534"/>
<path d="M13.795 12.986C13.795 15.5529 11.7194 17.637 9.1441 17.637C6.57816 17.637 4.49316 15.5529 4.49316 12.986C4.49316 10.4107 6.57816 8.32666 9.1441 8.32666C11.7194 8.32666 13.795 10.4107 13.795 12.986Z" fill="white"/>
<path d="M25.5109 12.986C25.5109 15.5529 23.4352 17.637 20.8599 17.637C18.294 17.637 16.209 15.5529 16.209 12.986C16.209 10.4107 18.294 8.32666 20.8599 8.32666C23.4352 8.32666 25.5109 10.4107 25.5109 12.986Z" fill="white"/>
<path d="M28.4333 12.2782H26.1186C25.7717 9.68041 23.547 7.67041 20.8602 7.67041C18.8708 7.67041 17.1364 8.77291 16.2289 10.3985C15.9823 10.8401 15.5164 11.097 15.0111 11.0942C15.0083 11.0942 15.0055 11.0942 15.0017 11.0942C14.997 11.0942 14.9933 11.0942 14.9886 11.0951C14.4852 11.0989 14.0211 10.8401 13.7764 10.4014C12.8689 8.77479 11.1345 7.67135 9.14516 7.67135C6.45828 7.67135 4.23828 9.68229 3.89047 12.2792H1.56641V13.6854H3.90453C4.23078 16.1117 6.20234 18.0645 8.68578 18.2745C11.8283 18.5407 14.5123 16.0348 14.4458 12.8754C14.4992 12.611 14.7214 12.4085 15.0008 12.4085C15.2858 12.4085 15.5502 12.6139 15.5502 12.987C15.5502 16.0507 18.1611 18.5173 21.2745 18.2782C23.7664 18.087 25.7764 16.1379 26.1008 13.6854H28.4314V12.2782H28.4333ZM9.14422 16.9798C6.94203 16.9798 5.14953 15.1873 5.14953 12.986C5.14953 10.7792 6.94109 8.98385 9.14422 8.98385C11.3464 8.98385 13.138 10.7792 13.138 12.986C13.138 15.1873 11.3464 16.9798 9.14422 16.9798ZM20.8592 16.9798C18.657 16.9798 16.8645 15.1873 16.8645 12.986C16.8645 10.7792 18.6561 8.98385 20.8592 8.98385C23.0614 8.98385 24.853 10.7792 24.853 12.986C24.853 15.1873 23.0614 16.9798 20.8592 16.9798Z" fill="#3E4347"/>
<path d="M21.4662 13.734C21.4662 14.7118 20.6796 15.5171 19.6896 15.5171C18.7118 15.5171 17.9131 14.7118 17.9131 13.734C17.9131 12.7506 18.7128 11.9443 19.6896 11.9443C20.6796 11.9443 21.4662 12.7496 21.4662 13.734Z" fill="#3E4347"/>
<path d="M20.5911 12.8254C20.3622 12.5966 20.0485 12.5393 19.8904 12.6975C19.7322 12.8556 19.7895 13.1694 20.0183 13.3982C20.2471 13.627 20.5608 13.6843 20.719 13.5261C20.8772 13.368 20.8199 13.0542 20.5911 12.8254Z" fill="white"/>
<path d="M12.0912 13.7345C12.0912 14.7123 11.3046 15.5176 10.3146 15.5176C9.33684 15.5176 8.53809 14.7123 8.53809 13.7345C8.53809 12.7511 9.33777 11.9448 10.3146 11.9448C11.3046 11.9448 12.0912 12.7501 12.0912 13.7345Z" fill="#3E4347"/>
<path d="M11.218 12.8259C10.9892 12.5971 10.6755 12.5398 10.5173 12.698C10.3591 12.8561 10.4164 13.1698 10.6453 13.3987C10.8741 13.6275 11.1878 13.6848 11.3459 13.5266C11.5041 13.3684 11.4468 13.0547 11.218 12.8259Z" fill="white"/>
<path d="M19.9607 24.6289C19.4845 22.8757 17.3986 21.6045 15.0004 21.6045C12.6023 21.6045 10.5164 22.8757 10.0401 24.6289C9.9548 24.942 9.63511 25.121 9.32105 25.0414C9.00886 24.956 8.82418 24.6335 8.90949 24.3214C9.52168 22.0686 12.0839 20.4326 15.0004 20.4326C17.917 20.4326 20.4792 22.0686 21.0914 24.3214C21.1767 24.6335 20.992 24.956 20.6798 25.0414C20.3667 25.1239 20.0461 24.9401 19.9607 24.6289Z" fill="#3E4347"/>
<path d="M7.90452 21.8168C7.90452 22.8255 7.08046 23.6496 6.06328 23.6496C5.05453 23.6496 4.23047 22.8255 4.23047 21.8168C4.23047 20.7996 6.06328 18.1455 6.06328 18.1455C6.06328 18.1455 7.90452 20.7996 7.90452 21.8168Z" fill="#65B1EF"/>
<path opacity="0.3" d="M6.97414 22.7749C6.71351 23.0233 6.3882 23.1105 6.22508 22.9483C6.0732 22.7964 6.14914 22.4608 6.40976 22.2105C6.67039 21.9508 6.9957 21.8636 7.15882 22.0258C7.30976 22.1777 7.23382 22.5143 6.97414 22.7749Z" fill="white"/>
<path d="M7.65485 27.8224C7.65485 28.6933 6.94235 29.4058 6.06391 29.4058C5.19203 29.4058 4.48047 28.6933 4.48047 27.8224C4.48047 26.943 6.06391 24.6499 6.06391 24.6499C6.06391 24.6499 7.65485 26.943 7.65485 27.8224Z" fill="#65B1EF"/>
<path opacity="0.3" d="M6.8497 28.6498C6.6247 28.8645 6.34345 28.9404 6.20283 28.7998C6.07158 28.6685 6.1372 28.3779 6.3622 28.1623C6.5872 27.9373 6.86845 27.8623 7.00908 28.0029C7.14033 28.1341 7.0747 28.4248 6.8497 28.6498Z" fill="white"/>
<path d="M27.3469 21.3514C27.3469 22.3592 26.5229 23.1842 25.5057 23.1842C24.4969 23.1842 23.6729 22.3602 23.6729 21.3514C23.6729 20.3342 25.5057 17.6802 25.5057 17.6802C25.5057 17.6802 27.3469 20.3342 27.3469 21.3514Z" fill="#65B1EF"/>
<path opacity="0.3" d="M26.4156 22.3096C26.1549 22.5589 25.8296 22.6452 25.6665 22.483C25.5146 22.3311 25.5905 21.9955 25.8512 21.7452C26.1118 21.4855 26.4371 21.3983 26.5993 21.5605C26.7521 21.7124 26.6762 22.0489 26.4156 22.3096Z" fill="white"/>
</g>
<defs>
<clipPath id="clip0_307_172320">
<rect width="30" height="30" fill="white"/>
</clipPath>
</defs>
</svg>
