<svg width="30" height="30" viewBox="0 0 30 30" fill="none" xmlns="http://www.w3.org/2000/svg">
<g clip-path="url(#clip0_307_172386)">
<path d="M15 30C23.2843 30 30 23.2843 30 15C30 6.71573 23.2843 0 15 0C6.71573 0 0 6.71573 0 15C0 23.2843 6.71573 30 15 30Z" fill="#FFD93B"/>
<path d="M20.6214 21.5162C20.1902 23.9069 18.2871 26.3162 14.9964 26.3162C11.7058 26.3162 9.80268 23.9069 9.38081 21.5162C9.31518 21.16 9.55893 20.8225 9.91518 20.7569C10.2714 20.7006 10.6089 20.935 10.6746 21.2912C11.0027 23.1381 12.4652 25.0037 14.9964 25.0037C17.5277 25.0037 18.9996 23.1381 19.3277 21.2912C19.3933 20.935 19.7308 20.7006 20.0871 20.7569C20.4433 20.8215 20.6871 21.16 20.6214 21.5162Z" fill="#3E4347"/>
<path d="M29.9998 15.0003C29.9998 23.2878 23.2826 30.0003 14.9998 30.0003C10.2842 30.0003 6.0748 27.8253 3.32324 24.4175C5.89668 26.4987 9.17324 27.7409 12.7404 27.7409C21.0232 27.7409 27.7404 21.0284 27.7404 12.7409C27.7404 9.17373 26.4982 5.89717 24.417 3.32373C27.8201 6.07529 29.9998 10.2847 29.9998 15.0003Z" fill="#F4C534"/>
<path d="M13.795 13.1975C13.795 15.7643 11.7194 17.8484 9.1441 17.8484C6.57816 17.8484 4.49316 15.7643 4.49316 13.1975C4.49316 10.6221 6.57816 8.53809 9.1441 8.53809C11.7194 8.53809 13.795 10.6231 13.795 13.1975Z" fill="white"/>
<path d="M9.14414 15.3093C10.3143 15.3093 11.2629 14.3607 11.2629 13.1905C11.2629 12.0204 10.3143 11.0718 9.14414 11.0718C7.97399 11.0718 7.02539 12.0204 7.02539 13.1905C7.02539 14.3607 7.97399 15.3093 9.14414 15.3093Z" fill="#3E4347"/>
<path d="M16.208 13.189C16.208 10.6221 18.2836 8.53809 20.8589 8.53809C23.4258 8.53809 25.5099 10.6221 25.5099 13.189C25.5099 15.7643 23.4258 17.8484 20.8589 17.8484C18.2836 17.8493 16.208 15.7643 16.208 13.189Z" fill="white"/>
<path d="M28.4333 12.4901H26.1186C25.7717 9.89233 23.547 7.88232 20.8592 7.88232C18.8698 7.88232 17.1355 8.98483 16.228 10.6105C15.9814 11.052 15.5155 11.3089 15.0102 11.3061C15.0073 11.3061 15.0045 11.3061 15.0008 11.3061C14.9961 11.3061 14.9923 11.3061 14.9877 11.3061C14.4842 11.3098 14.0202 11.052 13.7755 10.6123C12.868 8.98576 11.1336 7.88232 9.14422 7.88232C6.45734 7.88232 4.23734 9.8942 3.88953 12.4901H1.56641V13.8964H3.90547C4.23172 16.3226 6.20328 18.2755 8.68672 18.4855C11.8292 18.7517 14.5133 16.2458 14.4467 13.0864C14.5002 12.822 14.7233 12.6195 15.0017 12.6195C15.2867 12.6195 15.5511 12.8248 15.5511 13.198C15.5511 16.2617 18.162 18.7283 21.2755 18.4892C23.7673 18.298 25.7773 16.3489 26.1017 13.8964H28.4323V12.4901H28.4333ZM9.14422 17.1908C6.94203 17.1908 5.14953 15.3983 5.14953 13.197C5.14953 10.9901 6.94109 9.19483 9.14422 9.19483C11.3464 9.19483 13.138 10.9901 13.138 13.197C13.138 15.3992 11.3464 17.1908 9.14422 17.1908ZM20.8592 17.1908C18.657 17.1908 16.8645 15.3983 16.8645 13.197C16.8645 10.9901 18.6561 9.19483 20.8592 9.19483C23.0614 9.19483 24.853 10.9901 24.853 13.197C24.853 15.3992 23.0614 17.1908 20.8592 17.1908Z" fill="#3E4347"/>
<path d="M10.2115 12.1244C9.98268 11.8956 9.67699 11.8303 9.52871 11.9786C9.38043 12.1268 9.44573 12.4325 9.67455 12.6614C9.90337 12.8902 10.2091 12.9555 10.3573 12.8072C10.5056 12.6589 10.4403 12.3532 10.2115 12.1244Z" fill="white"/>
<path d="M20.86 15.3093C22.0301 15.3093 22.9787 14.3607 22.9787 13.1905C22.9787 12.0204 22.0301 11.0718 20.86 11.0718C19.6898 11.0718 18.7412 12.0204 18.7412 13.1905C18.7412 14.3607 19.6898 15.3093 20.86 15.3093Z" fill="#3E4347"/>
<path d="M21.9263 12.1283C21.6975 11.8995 21.3918 11.8342 21.2436 11.9825C21.0953 12.1308 21.1606 12.4365 21.3894 12.6653C21.6182 12.8941 21.9239 12.9594 22.0722 12.8111C22.2205 12.6628 22.1552 12.3571 21.9263 12.1283Z" fill="white"/>
<path d="M24.2443 6.29689C23.9443 6.4722 23.5262 6.38689 23.3349 6.05877C21.7721 3.38408 18.5143 3.97564 18.4796 3.98408C18.1177 4.05439 17.7737 3.81627 17.7024 3.45439C17.6406 3.09252 17.8702 2.74752 18.2321 2.6772C18.3999 2.65095 22.4434 1.91783 24.4824 5.38752C24.6681 5.70533 24.5621 6.1122 24.2443 6.29689Z" fill="#3E4347"/>
<path d="M5.75529 6.29689C6.05529 6.4722 6.47342 6.38689 6.66467 6.05877C8.22748 3.38408 11.4844 3.97564 11.52 3.98408C11.8819 4.05439 12.2259 3.81627 12.2972 3.45439C12.359 3.09252 12.1294 2.74752 11.7675 2.6772C11.5997 2.65095 7.55623 1.91783 5.51717 5.38752C5.33155 5.70533 5.43748 6.1122 5.75529 6.29689Z" fill="#3E4347"/>
</g>
<defs>
<clipPath id="clip0_307_172386">
<rect width="30" height="30" fill="white"/>
</clipPath>
</defs>
</svg>
