<svg width="30" height="30" viewBox="0 0 30 30" fill="none" xmlns="http://www.w3.org/2000/svg">
<g clip-path="url(#clip0_307_172167)">
<path d="M15 30C23.2843 30 30 23.2843 30 15C30 6.71573 23.2843 0 15 0C6.71573 0 0 6.71573 0 15C0 23.2843 6.71573 30 15 30Z" fill="#FFD93B"/>
<path d="M29.9999 14.9999C29.9999 23.2874 23.2808 29.9999 14.9999 29.9999C10.2814 29.9999 6.07488 27.8249 3.3252 24.4189C5.89395 26.5002 9.1752 27.7443 12.7377 27.7443C21.0252 27.7443 27.7377 21.0318 27.7377 12.7443C27.7377 9.1752 26.5002 5.90051 24.4189 3.3252C27.8183 6.07488 29.9999 10.2871 29.9999 14.9999Z" fill="#F4C534"/>
<path d="M21.0694 23.3452C20.4375 23.7127 18.2578 22.0017 15.1687 22.0945C12.0787 22.0008 9.9 23.7117 9.26812 23.3452C8.49469 23.0555 10.2647 19.4386 15.1687 19.4302C20.0728 19.4386 21.8437 23.0564 21.0694 23.3452Z" fill="#3E4347"/>
<path d="M6.20996 14.8277C6.76965 14.0111 8.27996 13.4477 9.61215 13.4477C10.9396 13.4477 12.4481 14.0111 13.0087 14.8277C12.9046 12.7643 11.4262 11.6533 9.61215 11.6533C7.7934 11.6533 6.31496 12.7643 6.20996 14.8277Z" fill="#3E4347"/>
<path d="M16.9912 14.8277C17.5509 14.0111 19.0612 13.4477 20.3934 13.4477C21.7209 13.4477 23.2293 14.0111 23.79 14.8277C23.6859 12.7643 22.2075 11.6533 20.3934 11.6533C18.5746 11.6533 17.0962 12.7643 16.9912 14.8277Z" fill="#3E4347"/>
<path d="M27.9221 9.81908C27.9221 8.51971 25.5689 5.27783 25.5689 5.27783C25.5689 5.27783 23.2158 8.51971 23.2158 9.81908C23.2158 11.1185 24.2696 12.1722 25.5689 12.1722C26.8683 12.1722 27.9221 11.1194 27.9221 9.81908Z" fill="#45CBEA"/>
<g opacity="0.2">
<path opacity="0.2" d="M26.8474 10.8166C26.6195 11.1372 26.2558 11.2797 26.0495 11.1372C25.8358 10.9947 25.8499 10.6094 26.0852 10.2887C26.313 9.96812 26.6767 9.81812 26.8905 9.96812C27.0967 10.1106 27.0827 10.4884 26.8474 10.8166Z" fill="white"/>
</g>
<path d="M22.9883 4.0566C22.9883 3.13691 21.3242 0.844727 21.3242 0.844727C21.3242 0.844727 19.6602 3.13691 19.6602 4.0566C19.6602 4.97629 20.4055 5.72066 21.3242 5.72066C22.243 5.72066 22.9883 4.97629 22.9883 4.0566Z" fill="#45CBEA"/>
<g opacity="0.2">
<path opacity="0.2" d="M22.2269 4.76188C22.0657 4.98876 21.8088 5.08907 21.6625 4.98876C21.5116 4.88751 21.521 4.61563 21.6879 4.38876C21.8491 4.16188 22.106 4.05594 22.2579 4.16188C22.4032 4.26313 22.3929 4.53032 22.2269 4.76188Z" fill="white"/>
</g>
</g>
<defs>
<clipPath id="clip0_307_172167">
<rect width="30" height="30" fill="white"/>
</clipPath>
</defs>
</svg>
