<svg width="30" height="30" viewBox="0 0 30 30" fill="none" xmlns="http://www.w3.org/2000/svg">
<g clip-path="url(#clip0_307_171731)">
<path d="M13.9525 30.0002C21.6318 30.0002 27.8571 23.7749 27.8571 16.0956C27.8571 8.41624 21.6318 2.19092 13.9525 2.19092C6.27317 2.19092 0.0478516 8.41624 0.0478516 16.0956C0.0478516 23.7749 6.27317 30.0002 13.9525 30.0002Z" fill="#FFD93B"/>
<path d="M27.8569 16.0929C27.8569 23.7749 21.6306 29.9975 13.9522 29.9975C9.58107 29.9975 5.67863 27.9811 3.12793 24.822C5.51364 26.7512 8.55086 27.9024 11.8571 27.9024C19.5355 27.9024 25.7617 21.6798 25.7617 13.9977C25.7617 10.6915 24.6106 7.65333 22.6814 5.26855C25.8367 7.81925 27.8569 11.7217 27.8569 16.0929Z" fill="#F4C534"/>
<path d="M29.9521 4.22398C29.9521 6.54126 27.6451 8.41515 24.7757 8.45827L21.6138 9.80158C21.3429 9.92063 21.0401 9.7144 21.0401 9.42287V7.27713C20.0333 6.50845 19.4053 5.42574 19.4053 4.22304C19.4043 1.8842 21.7647 0 24.6782 0C27.5917 0 29.9521 1.8842 29.9521 4.22398Z" fill="#E9EFF4"/>
<path d="M21.9893 3.1792C23.3289 3.1792 23.3289 5.28369 21.9949 5.28369C20.6404 5.28369 20.6722 3.1792 21.9893 3.1792ZM21.994 4.93216C22.7383 4.93216 22.7739 3.52979 21.994 3.52979C21.2159 3.53073 21.2384 4.93216 21.994 4.93216Z" fill="#D03F3F"/>
<path d="M23.2949 5.24899V3.21387H23.9099L24.2792 4.60217L24.6439 3.21387H25.2607V5.24899H24.8791V3.64695L24.4751 5.24899H24.0795L23.6764 3.64695V5.24899H23.2949Z" fill="#D03F3F"/>
<path d="M26.6147 4.50068V4.15759H27.5006V4.96845C26.8575 5.58995 25.5967 5.35841 25.5967 4.22414C25.5967 2.91083 27.2812 2.89583 27.4734 3.777L27.0656 3.85293C26.9222 3.35141 26.0204 3.36547 26.0204 4.20727C26.0204 4.9647 26.6316 5.11 27.0853 4.75847V4.50068H26.6147Z" fill="#D03F3F"/>
<path d="M28.0293 4.72404C27.9018 3.42385 27.928 3.62539 27.928 3.21387H28.3498C28.3498 3.62633 28.3761 3.42385 28.2495 4.72404H28.0293ZM27.9449 5.24899V4.85903H28.3348V5.24899H27.9449Z" fill="#D03F3F"/>
<path d="M18.7282 26.184C18.6794 26.9583 17.8761 27.428 17.1505 27.1739C14.956 26.3809 12.7615 26.3809 10.5671 27.1739C9.84243 27.4289 9.03907 26.9583 8.98939 26.184C8.82253 23.4506 11.017 21.0508 13.8583 21.0508C16.7005 21.0508 18.895 23.4506 18.7282 26.184Z" fill="#3E4347"/>
<path d="M10.5342 22.3632C11.3985 22.8084 12.5065 22.9415 13.6811 22.9415C14.9597 22.9415 16.1559 22.7812 17.0473 22.2357C16.199 21.5026 15.09 21.0508 13.8583 21.0508C12.5599 21.0517 11.3994 21.557 10.5342 22.3632Z" fill="white"/>
<path d="M13.9171 24.4063C13.5506 24.5647 13.1625 24.651 12.7669 24.6791C11.4573 24.7803 10.8189 25.8612 11.088 27.0086C12.8887 26.4602 14.6905 26.4433 16.4912 26.9645C16.8437 25.3503 15.7 23.6573 13.9171 24.4063Z" fill="#E24B4B"/>
<path d="M17.6047 11.6359C17.3488 11.5366 17.1126 11.4156 16.8923 11.2778C15.8386 12.1299 15.1318 13.6739 15.1318 15.439C15.1318 18.1294 16.7601 20.3098 18.7634 20.3098C20.7666 20.3098 22.3958 18.1294 22.3958 15.439C22.3958 14.4575 22.1765 13.5445 21.8015 12.7796C19.2752 12.6643 17.4266 11.575 17.6047 11.6359Z" fill="white"/>
<path d="M22.6286 12.469C22.6708 12.7305 22.4945 12.9714 22.2396 13.0146C19.9523 13.4101 17.1044 12.3612 15.5211 11.0751C15.3158 10.9054 15.2802 10.6082 15.4433 10.402C15.6064 10.1967 15.9102 10.1611 16.1164 10.3242C16.1445 10.3457 18.998 12.5683 22.0849 12.0734C22.3455 12.0303 22.593 12.2065 22.6286 12.469Z" fill="#3E4347"/>
<path d="M18.5171 18.652C19.4785 18.652 20.2579 17.8726 20.2579 16.9112C20.2579 15.9498 19.4785 15.1704 18.5171 15.1704C17.5557 15.1704 16.7764 15.9498 16.7764 16.9112C16.7764 17.8726 17.5557 18.652 18.5171 18.652Z" fill="#3E4347"/>
<path d="M19.4008 15.9926C19.1892 15.7811 18.915 15.7122 18.7883 15.8389C18.6617 15.9655 18.7305 16.2397 18.9421 16.4513C19.1537 16.6629 19.4279 16.7318 19.5545 16.6051C19.6812 16.4785 19.6123 16.2042 19.4008 15.9926Z" fill="white"/>
<path d="M10.3019 11.6359C10.5578 11.5366 10.794 11.4156 11.0143 11.2778C12.0679 12.1299 12.7747 13.6739 12.7747 15.439C12.7747 18.1294 11.1465 20.3098 9.14321 20.3098C7.13996 20.3098 5.51074 18.1294 5.51074 15.439C5.51074 14.4575 5.7301 13.5445 6.10506 12.7796C8.63139 12.6643 10.48 11.575 10.3019 11.6359Z" fill="white"/>
<path d="M5.27675 12.469C5.23457 12.7305 5.4108 12.9714 5.66578 13.0146C7.95306 13.4101 10.8009 12.3612 12.3842 11.0751C12.5895 10.9054 12.6251 10.6082 12.462 10.402C12.2989 10.1967 11.9952 10.1611 11.7889 10.3242C11.7608 10.3457 8.90734 12.5683 5.82045 12.0734C5.55985 12.0303 5.31237 12.2065 5.27675 12.469Z" fill="#3E4347"/>
<path d="M9.38433 18.652C10.3457 18.652 11.1251 17.8726 11.1251 16.9112C11.1251 15.9498 10.3457 15.1704 9.38433 15.1704C8.42293 15.1704 7.64355 15.9498 7.64355 16.9112C7.64355 17.8726 8.42293 18.652 9.38433 18.652Z" fill="#3E4347"/>
<path d="M9.11795 15.8379C8.99129 15.7112 8.71708 15.7801 8.50549 15.9917C8.2939 16.2033 8.22505 16.4775 8.35171 16.6042C8.47838 16.7308 8.75258 16.662 8.96417 16.4504C9.17576 16.2388 9.24461 15.9646 9.11795 15.8379Z" fill="white"/>
</g>
<defs>
<clipPath id="clip0_307_171731">
<rect width="30" height="30" fill="white"/>
</clipPath>
</defs>
</svg>
