<svg width="40" height="40" viewBox="0 0 40 40" fill="none" xmlns="http://www.w3.org/2000/svg">
<circle cx="20" cy="20" r="20" fill="#E6E9FD"/>
<path d="M19.8261 9C17.2372 9 15.1305 11.0077 15.1305 13.4751V20C15.1305 22.4678 17.2372 24.4751 19.8261 24.4751C22.415 24.4751 24.5218 22.4678 24.5218 20V13.4751C24.5218 11.0077 22.415 9 19.8261 9ZM19.8261 23.5186C17.9812 23.5186 16.4552 22.1923 16.2115 20.4783H23.4402C23.1971 22.1928 21.671 23.5186 19.8261 23.5186ZM23.4783 19.5217H16.1739V13.4751C16.1739 11.5348 17.8122 9.95652 19.8261 9.95652C21.84 9.95652 23.4783 11.5348 23.4783 13.4751V19.5217Z" fill="#474747"/>
<path d="M27.1305 17.6087C26.8425 17.6087 26.6087 17.823 26.6087 18.087V20C26.6087 23.4282 23.5659 26.2174 19.8261 26.2174C16.0863 26.2174 13.0435 23.4282 13.0435 20V18.087C13.0435 17.823 12.8098 17.6087 12.5218 17.6087C12.2338 17.6087 12 17.823 12 18.087V20C12 23.794 15.2322 26.9018 19.3044 27.1495V30.0435H16.6957C16.4077 30.0435 16.1739 30.2577 16.1739 30.5217C16.1739 30.7857 16.4077 31 16.6957 31H22.9565C23.2445 31 23.4783 30.7857 23.4783 30.5217C23.4783 30.2577 23.2445 30.0435 22.9565 30.0435H20.3478V27.1495C24.42 26.9018 27.6522 23.794 27.6522 20V18.087C27.6522 17.823 27.4185 17.6087 27.1305 17.6087Z" fill="#474747"/>
<path d="M19.8261 9C17.2372 9 15.1305 11.0077 15.1305 13.4751V20C15.1305 22.4678 17.2372 24.4751 19.8261 24.4751C22.415 24.4751 24.5218 22.4678 24.5218 20V13.4751C24.5218 11.0077 22.415 9 19.8261 9ZM19.8261 23.5186C17.9812 23.5186 16.4552 22.1923 16.2115 20.4783H23.4402C23.1971 22.1928 21.671 23.5186 19.8261 23.5186ZM23.4783 19.5217H16.1739V13.4751C16.1739 11.5348 17.8122 9.95652 19.8261 9.95652C21.84 9.95652 23.4783 11.5348 23.4783 13.4751V19.5217Z" stroke="#474747" stroke-width="0.5"/>
<path d="M27.1305 17.6087C26.8425 17.6087 26.6087 17.823 26.6087 18.087V20C26.6087 23.4282 23.5659 26.2174 19.8261 26.2174C16.0863 26.2174 13.0435 23.4282 13.0435 20V18.087C13.0435 17.823 12.8098 17.6087 12.5218 17.6087C12.2338 17.6087 12 17.823 12 18.087V20C12 23.794 15.2322 26.9018 19.3044 27.1495V30.0435H16.6957C16.4077 30.0435 16.1739 30.2577 16.1739 30.5217C16.1739 30.7857 16.4077 31 16.6957 31H22.9565C23.2445 31 23.4783 30.7857 23.4783 30.5217C23.4783 30.2577 23.2445 30.0435 22.9565 30.0435H20.3478V27.1495C24.42 26.9018 27.6522 23.794 27.6522 20V18.087C27.6522 17.823 27.4185 17.6087 27.1305 17.6087Z" stroke="#474747" stroke-width="0.5"/>
</svg>
