<svg width="30" height="30" viewBox="0 0 30 30" fill="none" xmlns="http://www.w3.org/2000/svg">
<g clip-path="url(#clip0_307_172502)">
<path d="M16.3172 27.6126C15.5278 28.1657 14.475 28.1657 13.6865 27.6126C8.77775 24.1926 -5.97488 13.25 2.65394 4.36799C4.0602 2.91673 5.94741 1.97266 7.97055 1.97266C11.2003 1.97266 13.95 4.02299 15.0019 6.88989C16.0547 4.02299 18.8035 1.97266 22.0332 1.97266C24.0563 1.97266 25.9435 2.92517 27.3498 4.37737C35.9692 13.2687 21.226 24.1926 16.3172 27.6126Z" fill="#E24B4B"/>
<path d="M16.3177 27.6121C15.7824 27.9843 15.129 28.1109 14.5215 27.9656C21.5594 23.7899 29.5179 14.1495 27.3503 4.37598C35.9698 13.2683 21.2265 24.1921 16.3177 27.6121Z" fill="#D03F3F"/>
<path d="M21.7793 7.05888C19.7305 6.35311 17.3353 7.91256 16.4295 10.542C15.5238 13.1715 16.4504 15.8752 18.4992 16.581C20.5481 17.2867 22.9433 15.7273 23.849 13.0978C24.7548 10.4684 23.8282 7.76465 21.7793 7.05888Z" fill="#D03F3F"/>
<path d="M17.0997 10.7754C16.5616 12.9392 17.4841 15.162 19.166 15.7414C20.8413 16.3189 22.6376 15.0326 23.1757 12.8689C23.7157 10.6995 22.7923 8.47663 21.1169 7.89912C19.436 7.31974 17.6397 8.60601 17.0997 10.7754Z" fill="white"/>
<path d="M21.559 12.5581C21.559 13.64 20.6843 14.5147 19.6024 14.5147C18.528 14.5147 17.6533 13.64 17.6533 12.5581C17.6533 11.4838 18.528 10.6016 19.6024 10.6016C20.6852 10.6025 21.559 11.4838 21.559 12.5581Z" fill="#3E4347"/>
<path d="M20.5863 11.5813C20.3893 11.3843 20.1213 11.333 19.9877 11.4666C19.854 11.6002 19.9054 11.8683 20.1023 12.0652C20.2993 12.2622 20.5673 12.3135 20.7009 12.1799C20.8346 12.0463 20.7832 11.7783 20.5863 11.5813Z" fill="white"/>
<path d="M13.3576 10.5449C12.4518 7.91549 10.0566 6.35604 8.00777 7.06181C5.95893 7.76758 5.03229 10.4713 5.93807 13.1008C6.84385 15.7302 9.23904 17.2897 11.2879 16.5839C13.3367 15.8781 14.2634 13.1744 13.3576 10.5449Z" fill="#D03F3F"/>
<path d="M12.6873 10.7754C13.2254 12.9392 12.3029 15.162 10.621 15.7414C8.94567 16.3189 7.1494 15.0326 6.61127 12.8689C6.07127 10.6995 6.99472 8.47663 8.67004 7.89912C10.351 7.31974 12.1473 8.60601 12.6873 10.7754Z" fill="white"/>
<path d="M12.1352 12.5581C12.1352 13.64 11.2605 14.5147 10.1786 14.5147C9.10419 14.5147 8.22949 13.64 8.22949 12.5581C8.22949 11.4838 9.10419 10.6016 10.1786 10.6016C11.2605 10.6025 12.1352 11.4838 12.1352 12.5581Z" fill="#3E4347"/>
<path d="M11.1615 11.5789C10.9645 11.3819 10.6965 11.3305 10.5628 11.4642C10.4292 11.5978 10.4806 11.8658 10.6775 12.0628C10.8745 12.2598 11.1425 12.3111 11.2761 12.1775C11.4098 12.0438 11.3584 11.7758 11.1615 11.5789Z" fill="white"/>
<path opacity="0.2" d="M4.68422 6.76119C3.44109 7.86276 3.44952 9.37309 2.84764 8.70558C2.25701 8.03901 2.27295 6.47618 3.51609 5.38492C4.74891 4.28241 6.18517 4.44648 6.77674 5.11305C7.36737 5.78055 5.91705 5.65774 4.68422 6.76119Z" fill="white"/>
<path d="M19.4179 19.3656C18.5836 21.2162 16.9317 22.4866 14.9995 22.4866C13.0673 22.4866 11.4154 21.2162 10.581 19.3656C10.4535 19.0843 10.7535 18.8031 11.0347 18.9212C13.6748 20.0369 16.3242 20.0369 18.9736 18.9212C19.2548 18.8031 19.5445 19.0843 19.4179 19.3656Z" fill="#3E4347"/>
</g>
<defs>
<clipPath id="clip0_307_172502">
<rect width="30" height="30" fill="white"/>
</clipPath>
</defs>
</svg>
