<svg width="30" height="30" viewBox="0 0 30 30" fill="none" xmlns="http://www.w3.org/2000/svg">
<g clip-path="url(#clip0_307_171593)">
<path d="M2.60234 15.7968H0.511719L1.26172 1.6499H1.85234L2.60234 15.7968Z" fill="#3E4347"/>
<path d="M1.55992 2.60063C2.28014 2.60063 2.86398 2.01846 2.86398 1.30031C2.86398 0.58217 2.28014 0 1.55992 0C0.839708 0 0.255859 0.58217 0.255859 1.30031C0.255859 2.01846 0.839708 2.60063 1.55992 2.60063Z" fill="#FFD93B"/>
<path d="M1.55992 2.60063C2.28014 2.60063 2.86398 2.01846 2.86398 1.30031C2.86398 0.58217 2.28014 0 1.55992 0C0.839708 0 0.255859 0.58217 0.255859 1.30031C0.255859 2.01846 0.839708 2.60063 1.55992 2.60063Z" fill="#65B1EF"/>
<path d="M2.74277 1.84785C2.53652 2.28848 2.07715 2.59785 1.56152 2.59785C0.839648 2.59785 0.249023 2.0166 0.249023 1.3041C0.249023 0.788477 0.549023 0.338477 0.989648 0.141602C0.905273 0.310352 0.858398 0.497852 0.858398 0.694727C0.858398 1.40723 1.43965 1.98848 2.1709 1.98848C2.37715 1.98848 2.57402 1.9416 2.74277 1.84785Z" fill="#59A5E0"/>
<path d="M29.9922 14.1837V19.2649C29.9922 19.6868 29.6453 20.0243 29.2234 20.0243H27.6672C27.2453 20.0243 26.8984 19.6868 26.8984 19.2649V14.1837C26.8984 13.7618 27.2453 13.4243 27.6672 13.4243H29.2234C29.6453 13.4243 29.9922 13.7618 29.9922 14.1837Z" fill="#5A5F63"/>
<path d="M3.10254 14.1837V19.2649C3.10254 19.6868 2.75566 20.0243 2.33379 20.0243H0.777539C0.355664 20.0243 0.00878906 19.6868 0.00878906 19.2649V14.1837C0.00878906 13.7618 0.355664 13.4243 0.777539 13.4243H2.33379C2.75566 13.4243 3.10254 13.7618 3.10254 14.1837Z" fill="#5A5F63"/>
<path d="M15.0005 30.0001C22.3326 30.0001 28.2765 24.0563 28.2765 16.7242C28.2765 9.39208 22.3326 3.44824 15.0005 3.44824C7.66845 3.44824 1.72461 9.39208 1.72461 16.7242C1.72461 24.0563 7.66845 30.0001 15.0005 30.0001Z" fill="#DEE4E9"/>
<path d="M28.276 16.7242C28.276 24.0592 22.3304 30.0001 15.0001 30.0001C10.8263 30.0001 7.1007 28.0754 4.66602 25.0595C6.9432 26.9017 9.84383 28.0005 13.0004 28.0005C20.3307 28.0005 26.2763 22.0595 26.2763 14.7245C26.2763 11.567 25.1766 8.66732 23.3354 6.39014C26.3466 8.82576 28.276 12.5514 28.276 16.7242Z" fill="#D3D9DD"/>
<path d="M14.9997 3.44873C11.4278 3.44873 8.19156 4.86717 5.80469 7.16311V18.0887C5.80469 23.0809 9.85844 25.0881 14.86 25.0881C19.8606 25.0881 23.9153 23.08 23.9153 18.0887V6.90811C21.5566 4.76592 18.4356 3.44873 14.9997 3.44873Z" fill="#E9EFF4"/>
<path d="M14.2322 13.4244C14.2322 15.2197 12.7744 16.6691 10.9875 16.6691C9.19219 16.6691 7.73438 15.2197 7.73438 13.4244C7.73438 11.6291 9.19219 10.1797 10.9875 10.1797C12.7744 10.1806 14.2322 11.6291 14.2322 13.4244Z" fill="white"/>
<path d="M12.4735 13.4239C12.4735 14.2442 11.8079 14.9099 10.9875 14.9099C10.1579 14.9099 9.49316 14.2442 9.49316 13.4239C9.49316 12.6036 10.1588 11.938 10.9875 11.938C11.8088 11.9389 12.4735 12.6036 12.4735 13.4239Z" fill="#3E4347"/>
<path d="M11.7278 12.68C11.5605 12.5127 11.3456 12.4563 11.2479 12.554C11.1501 12.6518 11.2065 12.8667 11.3738 13.034C11.5411 13.2013 11.756 13.2577 11.8538 13.1599C11.9515 13.0622 11.8951 12.8473 11.7278 12.68Z" fill="white"/>
<path d="M22.2654 13.4244C22.2654 15.2197 20.8076 16.6691 19.0207 16.6691C17.2254 16.6691 15.7676 15.2197 15.7676 13.4244C15.7676 11.6291 17.2254 10.1797 19.0207 10.1797C20.8066 10.1806 22.2654 11.6291 22.2654 13.4244Z" fill="white"/>
<path d="M20.5067 13.4239C20.5067 14.2442 19.8411 14.9099 19.0207 14.9099C18.1911 14.9099 17.5264 14.2442 17.5264 13.4239C17.5264 12.6036 18.192 11.938 19.0207 11.938C19.842 11.9389 20.5067 12.6036 20.5067 13.4239Z" fill="#3E4347"/>
<path d="M19.76 12.6809C19.5927 12.5136 19.3778 12.4572 19.2801 12.555C19.1823 12.6527 19.2387 12.8676 19.406 13.0349C19.5733 13.2023 19.7882 13.2586 19.886 13.1609C19.9837 13.0631 19.9273 12.8483 19.76 12.6809Z" fill="white"/>
<path d="M20.6022 19.6695C19.3272 21.3663 17.2929 22.4632 15.0054 22.4632C12.7085 22.4632 10.6835 21.3663 9.39914 19.6695C9.08039 19.2382 9.54914 18.6663 10.046 18.8632C13.3554 20.1476 16.6554 20.1476 19.9554 18.8632C20.4522 18.6663 20.921 19.2382 20.6022 19.6695Z" fill="#3E4347"/>
</g>
<defs>
<clipPath id="clip0_307_171593">
<rect width="30" height="30" fill="white"/>
</clipPath>
</defs>
</svg>
