<svg width="40" height="40" viewBox="0 0 40 40" fill="none" xmlns="http://www.w3.org/2000/svg">
<circle cx="20" cy="20" r="20" fill="#4C5BD4"/>
<path d="M11.2484 10.3759L29.3084 19.0142C29.4907 19.1014 29.6446 19.2385 29.7524 19.4095C29.8601 19.5805 29.9173 19.7785 29.9173 19.9806C29.9173 20.1827 29.8601 20.3807 29.7524 20.5517C29.6446 20.7227 29.4907 20.8598 29.3084 20.947L11.2484 29.5853C11.0632 29.6741 10.8564 29.7077 10.6525 29.6823C10.4487 29.6569 10.2565 29.5734 10.0988 29.4418C9.94113 29.3102 9.82458 29.136 9.76306 28.94C9.70154 28.7441 9.69764 28.5346 9.75183 28.3364L12.0318 19.981L9.75183 11.6239C9.69808 11.4259 9.7023 11.2166 9.76401 11.0209C9.82572 10.8253 9.94231 10.6514 10.0999 10.5201C10.2575 10.3887 10.4496 10.3054 10.6531 10.28C10.8567 10.2546 11.0633 10.2881 11.2484 10.3767V10.3759ZM11.1155 11.7387L13.1924 19.3562H22.5713C22.7269 19.3562 22.8772 19.4127 22.9943 19.5152C23.1114 19.6176 23.1874 19.7591 23.2081 19.9133L23.2141 19.999C23.2143 20.1545 23.1582 20.3048 23.056 20.4221C22.9539 20.5393 22.8127 20.6156 22.6587 20.6367L22.5713 20.6427L13.1821 20.6419L11.1164 28.2233L28.3501 19.9802L11.1155 11.7379V11.7387Z" fill="white" stroke="white" stroke-width="0.5"/>
</svg>
