<svg width="30" height="30" viewBox="0 0 30 30" fill="none" xmlns="http://www.w3.org/2000/svg">
<path d="M14.9997 26.6596C22.3616 26.6596 28.3295 20.6916 28.3295 13.3298C28.3295 5.96795 22.3616 0 14.9997 0C7.63787 0 1.66992 5.96795 1.66992 13.3298C1.66992 20.6916 7.63787 26.6596 14.9997 26.6596Z" fill="#FFD93B"/>
<path d="M28.3296 13.3299C28.3296 20.6947 22.3599 26.6597 14.9998 26.6597C10.8094 26.6597 7.06795 24.7267 4.62305 21.6987C6.91046 23.5483 9.82222 24.6526 12.9918 24.6526C20.3527 24.6526 26.3216 18.6875 26.3216 11.3228C26.3216 8.15234 25.2172 5.24057 23.3676 2.9541C26.3928 5.39901 28.3296 9.13948 28.3296 13.3299Z" fill="#E9B02C"/>
<path d="M12.9982 11.8414C12.9982 13.6835 11.5048 15.1759 9.66365 15.1759C7.82248 15.1759 6.3291 13.6826 6.3291 11.8414C6.3291 10.0002 9.31304 7.77093 11.1523 7.86936C12.9907 7.96686 12.9982 9.99927 12.9982 11.8414Z" fill="white"/>
<path d="M10.0234 14.0433C10.9424 14.0433 11.6874 13.2983 11.6874 12.3793C11.6874 11.4603 10.9424 10.7153 10.0234 10.7153C9.10437 10.7153 8.35938 11.4603 8.35938 12.3793C8.35938 13.2983 9.10437 14.0433 10.0234 14.0433Z" fill="#3E4347"/>
<path d="M11.0422 12.0947C10.91 12.1931 10.6747 12.1247 10.5322 11.9344C10.3897 11.7441 10.385 11.5013 10.5266 11.401C10.6663 11.2922 10.8931 11.3625 11.0347 11.5519C11.1772 11.7422 11.1819 11.9859 11.0422 12.0947Z" fill="#5A5F63"/>
<path d="M16.4756 11.8414C16.4756 13.6835 17.969 15.1759 19.8101 15.1759C21.6513 15.1759 23.1447 13.6826 23.1447 11.8414C23.1447 10.0002 20.1608 7.77093 18.3215 7.86936C16.4831 7.96686 16.4756 9.99927 16.4756 11.8414Z" fill="white"/>
<path d="M19.4531 14.0433C20.3721 14.0433 21.1171 13.2983 21.1171 12.3793C21.1171 11.4603 20.3721 10.7153 19.4531 10.7153C18.5341 10.7153 17.7891 11.4603 17.7891 12.3793C17.7891 13.2983 18.5341 14.0433 19.4531 14.0433Z" fill="#3E4347"/>
<path d="M20.4738 12.0947C20.3416 12.1931 20.1063 12.1247 19.9639 11.9344C19.8214 11.745 19.8167 11.5013 19.9582 11.401C20.0979 11.2922 20.3248 11.3625 20.4663 11.5519C20.6088 11.7422 20.6135 11.9859 20.4738 12.0947Z" fill="#5A5F63"/>
<path d="M17.7076 19.7928C17.7076 21.6021 16.4983 23.074 14.9983 23.074C13.4984 23.074 12.2891 21.6021 12.2891 19.7928C12.2891 17.9742 13.4984 16.5117 14.9983 16.5117C16.4983 16.5117 17.7076 17.9742 17.7076 19.7928Z" fill="#3E4347"/>
<path d="M29.9725 20.1217C29.694 20.8529 26.667 23.16 25.8242 25.8599C25.4445 27.1658 25.2073 28.1539 24.9795 28.9488C24.8033 29.5797 24.2155 30.0091 23.5658 29.9978C22.1915 29.9725 20.8556 29.6097 19.5366 28.8954C18.9573 28.5888 18.6582 27.9251 18.8026 27.2858C18.962 26.5236 19.2404 25.6649 19.6472 24.7049C20.3007 23.1665 21.3159 21.766 22.6884 20.8079C26.3032 18.2674 30.37 19.4223 29.9725 20.1217Z" fill="#FFD93B"/>
<path d="M25.2694 24.5723C23.402 27.4653 23.9973 29.9402 19.1328 28.5706C19.2462 28.7 19.3775 28.8134 19.5359 28.8968C20.8549 29.6112 22.1908 29.973 23.5651 29.9993C24.2148 30.0105 24.8026 29.5821 24.9788 28.9503C25.2066 28.1544 25.4429 27.1663 25.8235 25.8604C26.5744 23.4539 29.0568 21.3615 29.7852 20.4175C29.7702 20.424 27.1313 21.6887 25.2694 24.5723Z" fill="#F4C534"/>
<path d="M0.0269941 20.1215C0.305421 20.8527 3.33249 23.1599 4.17527 25.8598C4.55494 27.1656 4.79212 28.1537 5.01992 28.9487C5.19523 29.5806 5.78302 30.0099 6.43268 29.9987C7.807 29.9734 9.14289 29.6106 10.4619 28.8962C11.0413 28.5897 11.3403 27.9259 11.1959 27.2866C11.0366 26.5244 10.7581 25.6657 10.3513 24.7057C9.69787 23.1674 8.68259 21.7668 7.31015 20.8087C3.69623 18.2672 -0.37049 19.4222 0.0269941 20.1215Z" fill="#FFD93B"/>
<path d="M4.72959 24.5728C6.59702 27.4658 6.00173 29.9407 10.8662 28.5711C10.7528 28.7004 10.6215 28.8139 10.4631 28.8973C9.14317 29.6107 7.80728 29.9735 6.43296 29.9988C5.7833 30.0101 5.19551 29.5817 5.01927 28.9498C4.79146 28.1539 4.55522 27.1658 4.17461 25.8599C3.4237 23.4534 0.9413 21.361 0.212891 20.417C0.228828 20.4245 2.86779 21.6891 4.72959 24.5728Z" fill="#F4C534"/>
<path d="M14.9991 23.0733C15.9085 23.0733 16.7063 22.5277 17.1975 21.6981C17.0081 21.1909 16.6575 20.7644 16.1916 20.5056C15.9263 20.3566 15.5026 20.4091 15.2373 20.5553C15.0582 20.6547 14.8398 20.7147 14.5848 20.7147C14.5313 20.7147 14.4817 20.711 14.432 20.7081C13.9717 20.6622 13.5011 20.8141 13.2358 21.1919C13.0933 21.3934 12.9873 21.6231 12.918 21.8687C13.4139 22.5981 14.1554 23.0733 14.9991 23.0733Z" fill="#E24B4B"/>
</svg>
