<svg width="30" height="30" viewBox="0 0 30 30" fill="none" xmlns="http://www.w3.org/2000/svg">
<g clip-path="url(#clip0_307_172081)">
<path d="M15 30C23.2843 30 30 23.2843 30 15C30 6.71573 23.2843 0 15 0C6.71573 0 0 6.71573 0 15C0 23.2843 6.71573 30 15 30Z" fill="#FFD93B"/>
<path d="M29.9998 14.9998C29.9998 23.2873 23.2826 29.9998 14.9998 29.9998C10.2842 29.9998 6.0748 27.8248 3.32324 24.417C5.89668 26.4982 9.17324 27.7404 12.7404 27.7404C21.0232 27.7404 27.7404 21.0279 27.7404 12.7404C27.7404 9.17324 26.4982 5.89668 24.417 3.32324C27.8201 6.0748 29.9998 10.2842 29.9998 14.9998Z" fill="#F4C534"/>
<path d="M6.68987 13.4059C6.55581 13.088 6.70487 12.7215 7.02269 12.5874C7.34144 12.4534 7.70706 12.6024 7.84113 12.9202C8.16831 13.6965 8.9455 14.1559 9.77331 14.0659C10.6011 13.9749 11.2593 13.3571 11.4102 12.5284C11.4721 12.189 11.7983 11.964 12.1368 12.0259C12.4761 12.0877 12.7021 12.413 12.6393 12.7524C12.388 14.1296 11.2911 15.1562 9.90925 15.308C8.533 15.4599 7.2355 14.6987 6.68987 13.4059Z" fill="#3E4347"/>
<path d="M20.0899 15.3078C18.708 15.1559 17.6111 14.1293 17.3598 12.7521C17.298 12.4128 17.523 12.0865 17.8623 12.0246C18.2017 11.9637 18.527 12.1878 18.5898 12.5271C18.7408 13.3559 19.3989 13.9737 20.2267 14.0646C21.0574 14.1546 21.8317 13.6953 22.1589 12.919C22.293 12.6012 22.6595 12.4521 22.9774 12.5862C23.2952 12.7203 23.4442 13.0868 23.3102 13.4046C22.7636 14.7012 21.4642 15.4596 20.0899 15.3078Z" fill="#3E4347"/>
<path d="M15.0002 24.7729C16.7575 24.7729 18.1821 23.3484 18.1821 21.5911C18.1821 19.8338 16.7575 18.4092 15.0002 18.4092C13.2429 18.4092 11.8184 19.8338 11.8184 21.5911C11.8184 23.3484 13.2429 24.7729 15.0002 24.7729Z" fill="#3E4347"/>
<path d="M22.6393 8.37676V9.4277H18.5537V8.48645C18.8771 8.11145 20.5525 6.17176 20.8909 5.83332C20.5084 5.85582 19.135 5.82582 18.7234 5.83332V4.85645H22.4996V5.70863C20.4493 8.07489 20.9265 7.52364 20.1409 8.37583H22.6393V8.37676Z" fill="#E24B4B"/>
<path d="M29.7098 5.68332V7.28738H23.4727V5.85113C23.9667 5.27926 26.5242 2.3177 27.0398 1.80113C26.4567 1.83488 24.3586 1.78988 23.7305 1.80113V0.30957H29.497V1.61082C26.3667 5.22301 27.0961 4.38207 25.8961 5.68332H29.7098Z" fill="#E24B4B"/>
</g>
<defs>
<clipPath id="clip0_307_172081">
<rect width="30" height="30" fill="white"/>
</clipPath>
</defs>
</svg>
