<svg width="30" height="30" viewBox="0 0 30 30" fill="none" xmlns="http://www.w3.org/2000/svg">
<g clip-path="url(#clip0_307_172091)">
<path d="M15 30C23.2843 30 30 23.2843 30 15C30 6.71573 23.2843 0 15 0C6.71573 0 0 6.71573 0 15C0 23.2843 6.71573 30 15 30Z" fill="#FFD93B"/>
<path d="M29.9998 15.0003C29.9998 23.2878 23.2826 30.0003 14.9998 30.0003C10.2842 30.0003 6.0748 27.8253 3.32324 24.4175C5.89668 26.4987 9.17324 27.7409 12.7404 27.7409C21.0232 27.7409 27.7404 21.0284 27.7404 12.7409C27.7404 9.17373 26.4982 5.89717 24.417 3.32373C27.8201 6.07529 29.9998 10.2847 29.9998 15.0003Z" fill="#F4C534"/>
<path d="M8.98659 20.2189C9.55284 20.0417 11.5516 22.0911 14.8553 21.9739C18.1582 22.092 20.3041 20.0426 20.8704 20.2198C21.6972 20.2901 19.9938 24.0645 14.9257 24.0776C9.85847 24.0645 8.15972 20.2901 8.98659 20.2189Z" fill="#3E4347"/>
<path d="M23.1677 11.2677C21.3461 8.87429 18.8842 9.23617 18.4098 9.33367C18.0695 9.4021 17.7414 9.18367 17.673 8.84617C17.6036 8.50773 17.823 8.17773 18.1605 8.10929C19.9061 7.75398 22.4008 8.19742 24.1633 10.5112C24.3723 10.7859 24.3189 11.1777 24.0442 11.3877C23.7686 11.5959 23.3758 11.5415 23.1677 11.2677Z" fill="#E9B02C"/>
<path d="M19.8366 15.7244C18.4922 15.7244 17.3007 14.8591 16.8704 13.571C16.7607 13.2438 16.9379 12.8894 17.266 12.7807C17.5932 12.6719 17.9476 12.8482 18.0563 13.1763C18.3151 13.9525 19.0304 14.4747 19.8366 14.4747C20.6429 14.4747 21.3572 13.9525 21.6169 13.1763C21.7266 12.8491 22.081 12.6738 22.4072 12.7807C22.7344 12.8903 22.9116 13.2438 22.8029 13.571C22.3726 14.8591 21.181 15.7244 19.8366 15.7244Z" fill="#3E4347"/>
<path d="M5.95664 11.3869C5.68195 11.1778 5.62851 10.7859 5.83757 10.5112C7.59914 8.19656 10.092 7.75406 11.8395 8.10844C12.1779 8.17781 12.3963 8.50781 12.327 8.84531C12.2576 9.18375 11.9276 9.40125 11.5901 9.33281C11.1148 9.23625 8.65289 8.87437 6.83226 11.2669C6.6232 11.5434 6.23039 11.595 5.95664 11.3869Z" fill="#E9B02C"/>
<path d="M10.1628 15.7245C8.81845 15.7245 7.62689 14.8592 7.19751 13.5711C7.08783 13.2439 7.26501 12.8895 7.59314 12.7808C7.92126 12.6702 8.2747 12.8492 8.38345 13.1764C8.6422 13.9527 9.35751 14.4749 10.1628 14.4749C10.9681 14.4749 11.6835 13.9527 11.9431 13.1764C12.0528 12.8492 12.4072 12.6739 12.7335 12.7808C13.0606 12.8905 13.2378 13.2439 13.1291 13.5711C12.6997 14.8592 11.5072 15.7245 10.1628 15.7245Z" fill="#3E4347"/>
</g>
<defs>
<clipPath id="clip0_307_172091">
<rect width="30" height="30" fill="white"/>
</clipPath>
</defs>
</svg>
