<svg width="30" height="30" viewBox="0 0 30 30" fill="none" xmlns="http://www.w3.org/2000/svg">
<g clip-path="url(#clip0_307_172267)">
<path d="M15 30C23.2843 30 30 23.2843 30 15C30 6.71573 23.2843 0 15 0C6.71573 0 0 6.71573 0 15C0 23.2843 6.71573 30 15 30Z" fill="#FFD93B"/>
<path d="M29.9998 14.9998C29.9998 23.2873 23.2826 29.9998 14.9998 29.9998C10.2842 29.9998 6.0748 27.8248 3.32324 24.417C5.89668 26.4982 9.17324 27.7404 12.7404 27.7404C21.0232 27.7404 27.7404 21.0279 27.7404 12.7404C27.7404 9.17324 26.4982 5.89668 24.417 3.32324C27.8201 6.0748 29.9998 10.2842 29.9998 14.9998Z" fill="#F4C534"/>
<path d="M12.5742 12.8139C12.5742 13.0521 12.5451 13.2855 12.4907 13.5068C11.8982 12.5055 10.8098 11.8343 9.56199 11.8343C8.31511 11.8343 7.22574 12.5055 6.63324 13.5068C6.57887 13.2855 6.5498 13.0521 6.5498 12.8139C6.5498 11.1536 7.89699 9.80176 9.56199 9.80176C11.227 9.8027 12.5742 11.1546 12.5742 12.8139Z" fill="#3E4347"/>
<path d="M23.4482 12.8139C23.4482 13.0521 23.4191 13.2855 23.3648 13.5068C22.7723 12.5055 21.6838 11.8343 20.436 11.8343C19.1891 11.8343 18.0998 12.5055 17.5073 13.5068C17.4529 13.2855 17.4238 13.0521 17.4238 12.8139C17.4238 11.1536 18.771 9.80176 20.436 9.80176C22.101 9.8027 23.4482 11.1546 23.4482 12.8139Z" fill="#3E4347"/>
<path d="M8.1667 20.8182C7.89858 20.537 7.90983 20.0917 8.19108 19.8236C8.47233 19.5564 8.91764 19.5667 9.18576 19.8479C11.9804 22.7832 18.0189 22.7832 20.8136 19.8479C21.0817 19.5667 21.5261 19.5564 21.8082 19.8236C22.0895 20.0917 22.1007 20.5361 21.8326 20.8182C18.4839 24.3329 11.5154 24.3339 8.1667 20.8182Z" fill="#3E4347"/>
<path d="M24.6462 16.562C24.0728 16.0475 23.0418 16.2615 22.3434 17.0399C21.6449 17.8184 21.5436 18.8665 22.117 19.381C22.6904 19.8954 23.7215 19.6815 24.4199 18.903C25.1183 18.1246 25.2196 17.0765 24.6462 16.562Z" fill="#E24B4B"/>
<path d="M7.61905 16.9992C6.8885 16.2508 5.84933 16.0803 5.29801 16.6185C4.74668 17.1566 4.89197 18.1996 5.62253 18.9481C6.35308 19.6965 7.39225 19.867 7.94358 19.3288C8.4949 18.7907 8.34961 17.7477 7.61905 16.9992Z" fill="#E24B4B"/>
<path d="M17.7409 7.07883C17.799 7.54664 18.1937 7.84383 18.6381 7.77539C20.3256 7.51758 22.7987 7.63008 24.2537 9.74883C24.2125 9.57258 23.2084 6.55383 18.7731 5.98008C18.19 5.90414 17.664 6.46383 17.7409 7.07883Z" fill="#E9B02C"/>
<path d="M12.2599 7.07883C12.2018 7.54664 11.8071 7.84383 11.3627 7.77539C9.6752 7.51758 7.20207 7.63008 5.74707 9.74883C5.78832 9.57258 6.79238 6.55383 11.2277 5.98008C11.8099 5.90414 12.3358 6.46383 12.2599 7.07883Z" fill="#E9B02C"/>
</g>
<defs>
<clipPath id="clip0_307_172267">
<rect width="30" height="30" fill="white"/>
</clipPath>
</defs>
</svg>
