<svg width="30" height="30" viewBox="0 0 30 30" fill="none" xmlns="http://www.w3.org/2000/svg">
<g clip-path="url(#clip0_307_171932)">
<path d="M15 30C23.2843 30 30 23.2843 30 15C30 6.71573 23.2843 0 15 0C6.71573 0 0 6.71573 0 15C0 23.2843 6.71573 30 15 30Z" fill="#FFD93B"/>
<path d="M29.9998 15.0003C29.9998 23.2878 23.2826 30.0003 14.9998 30.0003C10.2842 30.0003 6.0748 27.8253 3.32324 24.4175C5.89668 26.4987 9.17324 27.7409 12.7404 27.7409C21.0232 27.7409 27.7404 21.0284 27.7404 12.7409C27.7404 9.17373 26.4982 5.89717 24.417 3.32373C27.8201 6.07529 29.9998 10.2847 29.9998 15.0003Z" fill="#F4C534"/>
<path d="M11.3756 14.0479C11.2031 13.2811 10.6088 12.6089 10.1025 12.6089C9.59626 12.6089 9.00188 13.2811 8.82938 14.0479C8.73001 14.4904 8.29313 14.767 7.84876 14.6686C7.40719 14.5683 7.12875 14.1295 7.22813 13.6879C7.52438 12.3698 8.63251 10.9683 10.1025 10.9683C11.5725 10.9683 12.6806 12.3698 12.9769 13.6879C13.0763 14.1295 12.7988 14.5683 12.3563 14.6686C11.91 14.7679 11.475 14.4876 11.3756 14.0479Z" fill="#3E4347"/>
<path d="M21.1706 14.0479C20.9981 13.2811 20.4027 12.6089 19.8974 12.6089C19.3921 12.6089 18.7968 13.2811 18.6243 14.0479C18.5249 14.4895 18.0871 14.767 17.6437 14.6686C17.2021 14.5692 16.9237 14.1304 17.0231 13.6879C17.3202 12.3698 18.4284 10.9683 19.8974 10.9683C21.3665 10.9683 22.4746 12.3689 22.7718 13.6879C22.8712 14.1295 22.5937 14.5692 22.1512 14.6686C21.7031 14.7679 21.269 14.4848 21.1706 14.0479Z" fill="#3E4347"/>
<path d="M23.8012 19.2017C23.2566 22.8617 19.8328 26.0463 15.1697 26.037C10.4991 26.0463 7.07531 22.8607 6.53156 19.2017C6.46687 18.7948 6.85218 18.4179 7.25906 18.4788C12.48 19.2579 17.8537 19.2579 23.0747 18.4788C23.4806 18.417 23.8659 18.7948 23.8012 19.2017Z" fill="#3E4347"/>
<path d="M15.1698 24.7021C11.7123 24.7115 8.8398 22.6106 7.9248 19.7681C12.7154 20.4056 17.6176 20.4056 22.4082 19.7681C21.4942 22.6106 18.6235 24.7106 15.1698 24.7021Z" fill="white"/>
<path d="M19.557 23.8819L19.0254 19.4691L19.1379 19.4569C19.257 19.4504 19.3816 19.4382 19.5063 19.426L19.6066 19.4194L20.1813 23.8257L20.0754 23.8322C19.932 23.8444 19.7941 23.8576 19.6563 23.8697L19.557 23.8819Z" fill="#3E4347"/>
<path d="M13.3501 24.9132H13.2441L13.4945 19.5947L14.0757 19.6069L13.8816 24.9319L13.7757 24.9254C13.6313 24.9254 13.4945 24.9188 13.3501 24.9132Z" fill="#3E4347"/>
<path d="M10.1387 23.9757L10.7321 19.4194L10.838 19.426C10.9571 19.4382 11.0818 19.4513 11.2009 19.4569L11.3134 19.4691L10.763 24.0319L10.6627 24.0254C10.5249 24.0132 10.388 24.0001 10.2437 23.9879L10.1387 23.9757Z" fill="#3E4347"/>
<path d="M16.4577 24.9319L16.2637 19.6069L16.8449 19.5947L17.1009 24.9132H16.9884C16.8449 24.9197 16.7071 24.9254 16.5637 24.9254L16.4577 24.9319Z" fill="#3E4347"/>
<path d="M8.53809 22.319L8.65059 21.7068L8.7509 21.7133C13.0512 22.2383 17.4068 22.2318 21.7071 21.7012L21.8075 21.689L21.92 22.3012L21.8075 22.3199C17.4453 22.8571 13.0203 22.8636 8.65715 22.3321L8.53809 22.319Z" fill="#3E4347"/>
</g>
<defs>
<clipPath id="clip0_307_171932">
<rect width="30" height="30" fill="white"/>
</clipPath>
</defs>
</svg>
