<svg width="30" height="30" viewBox="0 0 30 30" fill="none" xmlns="http://www.w3.org/2000/svg">
<g clip-path="url(#clip0_307_171896)">
<path d="M15 30C23.2843 30 30 23.2843 30 15C30 6.71573 23.2843 0 15 0C6.71573 0 0 6.71573 0 15C0 23.2843 6.71573 30 15 30Z" fill="#FFD93B"/>
<path d="M29.9998 14.9998C29.9998 23.2873 23.2826 29.9998 14.9998 29.9998C10.2842 29.9998 6.0748 27.8248 3.32324 24.417C5.89668 26.4982 9.17324 27.7404 12.7404 27.7404C21.0232 27.7404 27.7404 21.0279 27.7404 12.7404C27.7404 9.17324 26.4982 5.89668 24.417 3.32324C27.8201 6.0748 29.9998 10.2842 29.9998 14.9998Z" fill="#F4C534"/>
<path d="M15.8963 12.5796C16.3923 15.1718 19.0791 17.1077 21.8963 16.8958C24.7238 16.683 26.6026 14.403 26.1057 11.8109C25.6079 9.21023 22.9229 7.28274 20.0963 7.49555C17.2782 7.70742 15.3985 9.97898 15.8963 12.5796Z" fill="white"/>
<path d="M19.735 14.1883C21.0207 14.1883 22.0629 13.1461 22.0629 11.8605C22.0629 10.5749 21.0207 9.53271 19.735 9.53271C18.4494 9.53271 17.4072 10.5749 17.4072 11.8605C17.4072 13.1461 18.4494 14.1883 19.735 14.1883Z" fill="#3E4347"/>
<path d="M19.4315 10.4972C19.2502 10.316 18.8653 10.4071 18.5717 10.7007C18.278 10.9944 18.1869 11.3793 18.3681 11.5605C18.5494 11.7418 18.9343 11.6506 19.2279 11.357C19.5216 11.0634 19.6127 10.6785 19.4315 10.4972Z" fill="white"/>
<path d="M14.1035 12.5796C13.6075 15.1718 10.9207 17.1077 8.10349 16.8958C5.27599 16.683 3.39724 14.403 3.89411 11.8109C4.39192 9.21023 7.07692 7.28274 9.90349 7.49555C12.7216 7.70742 14.6013 9.97898 14.1035 12.5796Z" fill="white"/>
<path d="M10.2643 14.1883C11.55 14.1883 12.5921 13.1461 12.5921 11.8605C12.5921 10.5749 11.55 9.53271 10.2643 9.53271C8.97872 9.53271 7.93652 10.5749 7.93652 11.8605C7.93652 13.1461 8.97872 14.1883 10.2643 14.1883Z" fill="#3E4347"/>
<path d="M9.96173 10.4958C9.7805 10.3145 9.39556 10.4057 9.10194 10.6993C8.80831 10.9929 8.7172 11.3778 8.89842 11.5591C9.07965 11.7403 9.46459 11.6492 9.75821 11.3556C10.0518 11.0619 10.143 10.677 9.96173 10.4958Z" fill="white"/>
<path d="M4.49902 7.46893C4.49902 7.46893 9.52965 8.50205 13.3106 5.42236C12.5653 8.49361 9.62809 9.17611 4.49902 7.46893Z" fill="#3E4347"/>
<path d="M25.501 7.46893C25.501 7.46893 20.4704 8.50205 16.6895 5.42236C17.4348 8.49361 20.372 9.17611 25.501 7.46893Z" fill="#3E4347"/>
<path d="M10.143 24.0099C11.1461 22.1536 12.9461 20.9161 15.0086 20.9161C17.0618 20.9161 18.8618 22.1442 19.8555 23.9911C20.193 24.6192 21.1399 24.2536 20.9618 23.5599C20.3149 20.963 17.9899 18.8911 15.0086 18.8911C12.018 18.8911 9.68362 20.9724 9.03674 23.5692C8.86799 24.263 9.80549 24.6286 10.143 24.0099Z" fill="#3E4347"/>
<path d="M4.39551 14.728C4.49301 14.7073 4.59988 14.6914 4.73676 14.6914C5.51488 14.6914 5.51488 15.0992 6.29207 15.0992C7.06832 15.0992 7.06832 14.6914 7.84551 14.6914C8.62176 14.6914 8.62176 15.0992 9.39801 15.0992C10.1743 15.0992 10.1743 14.6914 10.9505 14.6914C11.7258 14.6914 11.7258 15.0992 12.5011 15.0992C12.6099 15.0992 12.6999 15.0898 12.7824 15.0767C11.6264 16.2936 9.89395 17.0295 8.10426 16.8945C6.44113 16.7698 5.11176 15.927 4.39551 14.728Z" fill="#59A5E0"/>
<path d="M4.08398 17.3053C4.13086 17.8472 4.47492 18.2297 4.99992 18.2297C5.53992 18.2297 5.7893 17.5678 5.63461 17.1712C5.22305 16.1222 4.98586 15.0938 4.98586 15.0938C4.98586 15.0938 4.12242 16.4672 4.08398 17.3053Z" fill="#59A5E0"/>
<path d="M4.33398 20.6633C4.36023 20.968 4.55711 21.2305 4.85242 21.2305C5.15523 21.2305 5.33336 20.8865 5.20492 20.5883C4.95367 20.0071 4.83742 19.5562 4.83742 19.5562C4.83742 19.5562 4.35555 20.1927 4.33398 20.6633Z" fill="#59A5E0"/>
<path d="M5.06413 20.8038C5.111 20.8319 5.09225 20.9069 5.02663 20.9819C4.961 21.0569 4.87662 21.085 4.82975 21.0569C4.78287 21.0288 4.80162 20.9444 4.86725 20.8788C4.93288 20.8038 5.01725 20.7663 5.06413 20.8038Z" fill="white"/>
<path d="M5.27951 17.8414C5.15763 17.9727 5.00763 18.0383 4.93263 17.9821C4.84826 17.9352 4.86701 17.7852 4.98888 17.6539C5.10138 17.5227 5.26076 17.4664 5.34513 17.5227C5.42013 17.5789 5.39201 17.7196 5.27951 17.8414Z" fill="white"/>
</g>
<defs>
<clipPath id="clip0_307_171896">
<rect width="30" height="30" fill="white"/>
</clipPath>
</defs>
</svg>
