<svg width="30" height="30" viewBox="0 0 30 30" fill="none" xmlns="http://www.w3.org/2000/svg">
<g clip-path="url(#clip0_307_171816)">
<path d="M15 30C23.2843 30 30 23.2843 30 15C30 6.71573 23.2843 0 15 0C6.71573 0 0 6.71573 0 15C0 23.2843 6.71573 30 15 30Z" fill="#FFD93B"/>
<path d="M29.9998 14.9998C29.9998 23.2873 23.2826 29.9998 14.9998 29.9998C10.2842 29.9998 6.0748 27.8248 3.32324 24.417C5.89668 26.4982 9.17324 27.7404 12.7404 27.7404C21.0232 27.7404 27.7404 21.0279 27.7404 12.7404C27.7404 9.17324 26.4982 5.89668 24.417 3.32324C27.8201 6.0748 29.9998 10.2842 29.9998 14.9998Z" fill="#F4C534"/>
<path d="M19.2432 25.0789C18.2401 23.832 16.712 23.0352 14.9963 23.0352C13.2807 23.0352 11.7526 23.832 10.7495 25.0695C10.4776 25.407 9.96195 25.1633 10.0463 24.732C10.487 22.5758 12.4276 20.6914 14.9963 20.6914C17.5838 20.6914 19.5338 22.6039 19.9557 24.7789C20.0307 25.183 19.5057 25.3986 19.2432 25.0789Z" fill="#3E4347"/>
<path d="M15.7742 13.0263C16.0836 16.7051 18.8239 19.6966 21.912 19.6966C24.9805 19.6966 27.2361 16.7051 26.9267 13.0263C26.8104 11.5648 26.2976 10.2195 25.542 9.1151C25.3001 8.75698 24.8258 8.6501 24.4573 8.87323C23.5086 9.46385 22.3376 9.82198 20.9342 9.82198C19.5983 9.82198 18.4658 9.49291 17.5461 8.95104C17.1495 8.71854 16.6461 8.86385 16.4426 9.27073C15.9186 10.3348 15.6673 11.6323 15.7742 13.0263Z" fill="#F4C534"/>
<path d="M20.9157 11.1011C22.4269 11.1011 23.6681 10.6857 24.6516 10.0107C25.2375 10.8657 25.6519 11.8886 25.7456 13.0285C25.9856 15.9348 24.2166 18.286 21.7913 18.286C19.3557 18.286 17.1994 15.9348 16.9594 13.0285C16.8722 11.972 17.0766 11.0148 17.4582 10.1964C18.3957 10.7626 19.5469 11.1011 20.9157 11.1011Z" fill="white"/>
<path d="M23.2155 14.4224C23.2155 15.6759 22.2086 16.6828 20.9449 16.6828C19.6914 16.6828 18.6846 15.6759 18.6846 14.4215C18.6846 13.1578 19.6914 12.1509 20.9449 12.1509C22.2077 12.1518 23.2155 13.1587 23.2155 14.4224Z" fill="#3E4347"/>
<path d="M22.2903 14.1271C22.1028 14.3146 21.709 14.2293 21.4184 13.9387C21.1362 13.6565 21.0509 13.2637 21.2393 13.0752C21.4362 12.8783 21.829 12.9637 22.1112 13.2458C22.4009 13.5374 22.4862 13.9312 22.2903 14.1271Z" fill="white"/>
<path d="M14.2258 13.0264C13.9164 16.7052 11.1761 19.6967 8.08799 19.6967C5.01955 19.6967 2.76393 16.7052 3.0733 13.0264C3.18955 11.5649 3.70237 10.2195 4.45799 9.11517C4.7008 8.75705 5.17518 8.65111 5.54268 8.8733C6.49143 9.46392 7.66237 9.82205 9.0658 9.82205C10.4017 9.82205 11.5342 9.49299 12.4539 8.95111C12.8505 8.71861 13.3539 8.86392 13.5574 9.2708C14.0814 10.3349 14.3327 11.6324 14.2258 13.0264Z" fill="#F4C534"/>
<path d="M9.08422 11.1011C7.57297 11.1011 6.33172 10.6857 5.34828 10.0107C4.76235 10.8657 4.34797 11.8886 4.25422 13.0285C4.01422 15.9348 5.78328 18.286 8.2086 18.286C10.6442 18.286 12.8005 15.9348 13.0405 13.0285C13.1277 11.972 12.9233 11.0148 12.5417 10.1964C11.6042 10.7626 10.453 11.1011 9.08422 11.1011Z" fill="white"/>
<path d="M6.78516 14.4224C6.78516 15.6759 7.79203 16.6828 9.05578 16.6828C10.3092 16.6828 11.3161 15.6759 11.3161 14.4215C11.3161 13.1578 10.3092 12.1509 9.05578 12.1509C7.79297 12.1518 6.78516 13.1587 6.78516 14.4224Z" fill="#3E4347"/>
<path d="M7.7094 14.1271C7.8969 14.3146 8.29065 14.2293 8.58128 13.9387C8.86347 13.6565 8.94878 13.2637 8.76034 13.0752C8.56347 12.8783 8.17065 12.9637 7.88846 13.2458C7.59877 13.5374 7.51346 13.9312 7.7094 14.1271Z" fill="white"/>
</g>
<defs>
<clipPath id="clip0_307_171816">
<rect width="30" height="30" fill="white"/>
</clipPath>
</defs>
</svg>
