<svg width="30" height="30" viewBox="0 0 30 30" fill="none" xmlns="http://www.w3.org/2000/svg">
<g clip-path="url(#clip0_307_172054)">
<path d="M15 30C23.2843 30 30 23.2843 30 15C30 6.71573 23.2843 0 15 0C6.71573 0 0 6.71573 0 15C0 23.2843 6.71573 30 15 30Z" fill="#FFD93B"/>
<path d="M29.9998 15.0003C29.9998 23.2878 23.2826 30.0003 14.9998 30.0003C10.2842 30.0003 6.0748 27.8253 3.32324 24.4175C5.89668 26.4987 9.17324 27.7409 12.7404 27.7409C21.0232 27.7409 27.7404 21.0284 27.7404 12.7409C27.7404 9.17373 26.4982 5.89717 24.417 3.32373C27.8201 6.07529 29.9998 10.2847 29.9998 15.0003Z" fill="#F4C534"/>
<path d="M14.6275 25.1652C16.3677 25.1652 17.7785 23.6235 17.7785 21.7218C17.7785 19.82 16.3677 18.2783 14.6275 18.2783C12.8873 18.2783 11.4766 19.82 11.4766 21.7218C11.4766 23.6235 12.8873 25.1652 14.6275 25.1652Z" fill="#3E4347"/>
<path d="M19.819 15.1619C21.0533 15.1619 22.054 14.1612 22.054 12.9269C22.054 11.6925 21.0533 10.6919 19.819 10.6919C18.5846 10.6919 17.584 11.6925 17.584 12.9269C17.584 14.1612 18.5846 15.1619 19.819 15.1619Z" fill="#3E4347"/>
<path d="M21.0694 11.7878C20.8759 11.5278 20.5826 11.4185 20.4144 11.5437C20.2462 11.6688 20.2667 11.9811 20.4602 12.2411C20.6537 12.5011 20.9469 12.6104 21.1151 12.4852C21.2834 12.3601 21.2629 12.0478 21.0694 11.7878Z" fill="#5A5F63"/>
<path d="M23.4349 12.2943C23.0833 10.2712 21.1033 8.83214 18.9292 9.37683C18.6349 9.45183 18.3386 9.27277 18.2655 8.97933C18.1924 8.68589 18.3696 8.3887 18.663 8.31558C21.4633 7.61245 24.0536 9.46495 24.513 12.1059C24.5645 12.4031 24.3649 12.6862 24.0677 12.7387C23.7724 12.7903 23.4874 12.5934 23.4349 12.2943Z" fill="#3E4347"/>
<path d="M10.1813 15.1619C11.4156 15.1619 12.4163 14.1612 12.4163 12.9269C12.4163 11.6925 11.4156 10.6919 10.1813 10.6919C8.94693 10.6919 7.94629 11.6925 7.94629 12.9269C7.94629 14.1612 8.94693 15.1619 10.1813 15.1619Z" fill="#3E4347"/>
<path d="M9.58462 11.5471C9.4164 11.4219 9.12317 11.5312 8.92967 11.7912C8.73617 12.0512 8.71567 12.3635 8.88389 12.4887C9.05211 12.6138 9.34534 12.5046 9.53884 12.2445C9.73234 11.9845 9.75284 11.6723 9.58462 11.5471Z" fill="#5A5F63"/>
<path d="M5.93194 12.7388C5.63475 12.6873 5.43506 12.4042 5.48663 12.106C5.946 9.46229 8.53819 7.61261 11.3366 8.31573C11.6291 8.38885 11.8073 8.68698 11.7341 8.97948C11.661 9.27198 11.3657 9.45198 11.0704 9.37698C8.90006 8.83229 6.91725 10.2676 6.56475 12.2945C6.51225 12.5935 6.22725 12.7904 5.93194 12.7388Z" fill="#3E4347"/>
</g>
<defs>
<clipPath id="clip0_307_172054">
<rect width="30" height="30" fill="white"/>
</clipPath>
</defs>
</svg>
