<svg width="30" height="30" viewBox="0 0 30 30" fill="none" xmlns="http://www.w3.org/2000/svg">
<g clip-path="url(#clip0_307_171780)">
<path d="M15 30C23.2843 30 30 23.2843 30 15C30 6.71573 23.2843 0 15 0C6.71573 0 0 6.71573 0 15C0 23.2843 6.71573 30 15 30Z" fill="#FFD93B"/>
<path d="M23.888 20.6743C22.4508 24.1731 19.0148 26.6321 15.0014 26.6321C10.988 26.6321 7.55201 24.1731 6.10545 20.6743C5.96951 20.349 6.19545 19.9693 6.54795 19.8971C12.1805 18.8481 17.8214 18.8481 23.4445 19.8971C23.797 19.9693 24.023 20.349 23.888 20.6743Z" fill="#3E4347"/>
<path d="M29.9998 15.0003C29.9998 23.2878 23.2826 30.0003 14.9998 30.0003C10.2842 30.0003 6.0748 27.8253 3.32324 24.4175C5.89668 26.4987 9.17324 27.7409 12.7404 27.7409C21.0232 27.7409 27.7404 21.0284 27.7404 12.7409C27.7404 9.17373 26.4982 5.89717 24.417 3.32373C27.8201 6.07529 29.9998 10.2847 29.9998 15.0003Z" fill="#F4C534"/>
<path d="M6.75391 19.8638C7.82078 21.6001 11.1592 21.7866 15.1427 21.7866C19.0736 21.7866 22.4195 21.6001 23.5314 19.936C23.5014 19.9247 23.477 19.9041 23.4452 19.8976C17.8895 18.8607 12.318 18.8532 6.75391 19.8638Z" fill="white"/>
<path d="M20.8841 16.7739C23.5071 16.7739 25.6335 14.6488 25.6335 12.0273C25.6335 9.40587 23.5071 7.28076 20.8841 7.28076C18.2611 7.28076 16.1348 9.40587 16.1348 12.0273C16.1348 14.6488 18.2611 16.7739 20.8841 16.7739Z" fill="white"/>
<path d="M20.8823 14.6185C22.3124 14.6185 23.4717 13.4584 23.4717 12.0273C23.4717 10.5962 22.3124 9.43604 20.8823 9.43604C19.4523 9.43604 18.293 10.5962 18.293 12.0273C18.293 13.4584 19.4523 14.6185 20.8823 14.6185Z" fill="#3E4347"/>
<path d="M22.3264 10.6851C22.0529 10.4116 21.6815 10.3394 21.497 10.5239C21.3125 10.7084 21.3846 11.0798 21.6581 11.3533C21.9316 11.6269 22.3029 11.699 22.4875 11.5145C22.672 11.33 22.5999 10.9587 22.3264 10.6851Z" fill="white"/>
<path d="M9.11852 16.7739C11.7415 16.7739 13.8679 14.6488 13.8679 12.0273C13.8679 9.40587 11.7415 7.28076 9.11852 7.28076C6.49551 7.28076 4.36914 9.40587 4.36914 12.0273C4.36914 14.6488 6.49551 16.7739 9.11852 16.7739Z" fill="white"/>
<path d="M9.11672 14.6185C10.5468 14.6185 11.7061 13.4584 11.7061 12.0273C11.7061 10.5962 10.5468 9.43604 9.11672 9.43604C7.68665 9.43604 6.52734 10.5962 6.52734 12.0273C6.52734 13.4584 7.68665 14.6185 9.11672 14.6185Z" fill="#3E4347"/>
<path d="M10.5598 10.6837C10.2863 10.4101 9.91496 10.3379 9.73041 10.5225C9.54586 10.707 9.61798 11.0783 9.89149 11.3519C10.165 11.6254 10.5363 11.6976 10.7209 11.5131C10.9054 11.3285 10.8333 10.9572 10.5598 10.6837Z" fill="white"/>
</g>
<defs>
<clipPath id="clip0_307_171780">
<rect width="30" height="30" fill="white"/>
</clipPath>
</defs>
</svg>
