<svg width="30" height="30" viewBox="0 0 30 30" fill="none" xmlns="http://www.w3.org/2000/svg">
<g clip-path="url(#clip0_307_172354)">
<path d="M28.6919 12.2843C29.8169 21.3095 22.226 28.8864 13.2054 27.7492C7.05539 26.9739 2.08948 22.0089 1.31135 15.8599C0.168545 6.82522 7.77445 -0.776942 16.811 0.373366C22.9628 1.15618 27.9241 6.13053 28.6919 12.2843Z" fill="#FFD93B"/>
<path d="M28.7095 15.6838C27.9895 21.9866 22.8904 27.0725 16.5848 27.7747C11.6124 28.3288 7.09175 26.2391 4.25488 22.7263C6.99706 24.9444 10.6074 26.1266 14.4961 25.6972C20.8233 24.9988 25.9373 19.8838 26.6367 13.5566C27.066 9.6679 25.8839 6.05854 23.6657 3.31543C27.1823 6.15979 29.2795 10.6963 28.7095 15.6838Z" fill="#F4C534"/>
<path d="M19.4529 20.9118V26.7693C19.4529 28.0977 18.5988 29.323 17.3135 29.6765C15.7695 30.1077 14.2254 30.1077 12.6814 29.6765C11.396 29.323 10.542 28.0977 10.542 26.7693V20.7215C10.542 18.1162 12.776 16.0377 15.4329 16.288C17.7541 16.5121 19.4529 18.5821 19.4529 20.9118Z" fill="#FFD93B"/>
<path d="M14.9968 29.1374C14.3068 29.1374 13.6056 29.0399 12.9128 28.8458C12.024 28.6011 11.4053 27.748 11.4053 26.7693V20.7224C11.4053 18.7415 13.0178 17.1309 15.0006 17.1309C15.1168 17.1309 15.234 17.1355 15.3531 17.1468C17.1681 17.323 18.5912 18.9768 18.5912 20.9127V26.7693C18.5912 27.748 17.9724 28.6021 17.0856 28.8449C16.389 29.0399 15.6877 29.1374 14.9968 29.1374Z" fill="#3E4347"/>
<path d="M14.9968 29.1379C15.6877 29.1379 16.389 29.0404 17.0855 28.8454C18.5283 28.4489 19.4236 26.3348 17.4446 24.6117C16.508 23.8139 15.9849 24.6736 14.2383 24.6736C13.3758 24.6736 11.9152 24.5545 11.4043 26.4614V26.7707C11.4043 27.7495 12.023 28.6035 12.9118 28.8473C13.6055 29.0404 14.3068 29.1379 14.9968 29.1379Z" fill="#E24B4B"/>
<path d="M13.1124 8.57651C13.7105 11.8409 8.52143 16.4646 8.52143 16.4646C8.52143 16.4646 2.03396 13.9793 1.43677 10.7149C1.13021 9.04432 2.23646 7.44214 3.90614 7.13558C5.18395 6.90214 6.42332 7.49651 7.06831 8.53526C7.30363 7.33526 8.25143 6.34058 9.52924 6.10621C11.2036 5.79964 12.8058 6.90589 13.1124 8.57651Z" fill="#E24B4B"/>
<path d="M16.8869 8.57651C16.2887 11.8409 21.4787 16.4646 21.4787 16.4646C21.4787 16.4646 27.9662 13.9793 28.5634 10.7149C28.869 9.04432 27.7628 7.44214 26.0921 7.13651C24.8143 6.90214 23.5759 7.49651 22.93 8.53526C22.6946 7.33526 21.7468 6.34058 20.469 6.10621C18.7956 5.79964 17.1934 6.90589 16.8869 8.57651Z" fill="#E24B4B"/>
<path d="M17.6416 0.802616C17.6416 0.802616 21.6316 1.01824 23.8694 5.03541C23.8694 5.03541 22.1172 -2.40456 17.6416 0.802616Z" fill="#3E4347"/>
<path d="M12.3577 0.802616C12.3577 0.802616 8.36769 1.01824 6.12988 5.03541C6.12988 5.03541 7.88207 -2.40456 12.3577 0.802616Z" fill="#3E4347"/>
</g>
<defs>
<clipPath id="clip0_307_172354">
<rect width="30" height="30" fill="white"/>
</clipPath>
</defs>
</svg>
