<svg width="30" height="30" viewBox="0 0 30 30" fill="none" xmlns="http://www.w3.org/2000/svg">
<g clip-path="url(#clip0_307_172229)">
<path d="M15 30C23.2843 30 30 23.2843 30 15C30 6.71573 23.2843 0 15 0C6.71573 0 0 6.71573 0 15C0 23.2843 6.71573 30 15 30Z" fill="#FFD93B"/>
<path d="M29.9998 14.9998C29.9998 23.2873 23.2826 29.9998 14.9998 29.9998C10.2842 29.9998 6.0748 27.8248 3.32324 24.417C5.89668 26.4982 9.17324 27.7404 12.7404 27.7404C21.0232 27.7404 27.7404 21.0279 27.7404 12.7404C27.7404 9.17324 26.4982 5.89668 24.417 3.32324C27.8201 6.0748 29.9998 10.2842 29.9998 14.9998Z" fill="#F4C534"/>
<path d="M15 25.9921C16.4502 25.9921 17.6259 24.8164 17.6259 23.3662C17.6259 21.9159 16.4502 20.7402 15 20.7402C13.5497 20.7402 12.374 21.9159 12.374 23.3662C12.374 24.8164 13.5497 25.9921 15 25.9921Z" fill="#3E4347"/>
<path d="M23.4394 14.6569C23.4394 16.5281 21.9112 18.0487 20.04 18.0487C18.1687 18.0487 16.6406 16.5281 16.6406 14.6569C16.6406 12.7781 18.1687 11.25 20.04 11.25C21.9112 11.25 23.4394 12.7781 23.4394 14.6569Z" fill="white"/>
<path d="M20.0361 16.2264C20.9043 16.2264 21.6082 15.5225 21.6082 14.6542C21.6082 13.7859 20.9043 13.082 20.0361 13.082C19.1678 13.082 18.4639 13.7859 18.4639 14.6542C18.4639 15.5225 19.1678 16.2264 20.0361 16.2264Z" fill="#3E4347"/>
<path d="M20.8868 14.5042C20.7461 14.597 20.523 14.523 20.3946 14.3373C20.2661 14.1517 20.2811 13.9258 20.4218 13.833C20.5624 13.7402 20.7855 13.8142 20.914 13.9998C21.0368 14.1855 21.0283 14.4114 20.8868 14.5042Z" fill="#5A5F63"/>
<path d="M24.2919 10.3423C24.4026 10.8945 24.3754 11.4307 24.2319 11.9304C23.5663 10.076 21.6473 8.92479 19.6504 9.28479L19.626 9.28947C18.9107 9.42166 18.5273 8.48604 19.1498 8.10448C19.6448 7.80073 20.2344 7.61416 20.8757 7.59635C22.5107 7.55323 23.9741 8.74291 24.2919 10.3423Z" fill="#E9B02C"/>
<path d="M6.55957 14.6569C6.55957 16.5281 8.08769 18.0487 9.95894 18.0487C11.8302 18.0487 13.3583 16.5281 13.3583 14.6569C13.3583 12.7781 11.8302 11.25 9.95894 11.25C8.08769 11.25 6.55957 12.7781 6.55957 14.6569Z" fill="white"/>
<path d="M9.96379 16.2264C10.8321 16.2264 11.536 15.5225 11.536 14.6542C11.536 13.7859 10.8321 13.082 9.96379 13.082C9.09549 13.082 8.3916 13.7859 8.3916 14.6542C8.3916 15.5225 9.09549 16.2264 9.96379 16.2264Z" fill="#3E4347"/>
<path d="M9.11318 14.5042C9.25381 14.597 9.47693 14.523 9.60537 14.3373C9.73381 14.1517 9.71881 13.9258 9.57818 13.833C9.43756 13.7402 9.21443 13.8142 9.086 13.9998C8.96318 14.1855 8.97162 14.4114 9.11318 14.5042Z" fill="#5A5F63"/>
<path d="M5.70869 10.3423C5.59807 10.8945 5.62525 11.4317 5.76869 11.9304C6.43431 10.076 8.35337 8.92479 10.3502 9.28479L10.3746 9.28947C11.0899 9.42166 11.4734 8.48604 10.8509 8.10448C10.3559 7.80073 9.76618 7.61416 9.12494 7.59635C7.48994 7.55323 6.0265 8.74291 5.70869 10.3423Z" fill="#E9B02C"/>
</g>
<defs>
<clipPath id="clip0_307_172229">
<rect width="30" height="30" fill="white"/>
</clipPath>
</defs>
</svg>
