<svg width="30" height="30" viewBox="0 0 30 30" fill="none" xmlns="http://www.w3.org/2000/svg">
<path d="M15.0008 27.8493C22.6912 27.8493 28.9255 21.615 28.9255 13.9247C28.9255 6.23428 22.6912 0 15.0008 0C7.31046 0 1.07617 6.23428 1.07617 13.9247C1.07617 21.615 7.31046 27.8493 15.0008 27.8493Z" fill="#FFD93B"/>
<path d="M28.9251 13.9243C28.9251 21.6174 22.6898 27.849 15.0005 27.849C10.6233 27.849 6.71488 25.8296 4.16113 22.6665C6.54988 24.5987 9.59206 25.7518 12.9033 25.7518C20.5927 25.7518 26.828 19.5202 26.828 11.8271C26.828 8.51589 25.6748 5.47371 23.7427 3.08496C26.902 5.63871 28.9251 9.54714 28.9251 13.9243Z" fill="#F4C534"/>
<path d="M19.061 21.3096C19.061 23.5493 17.2422 25.3624 15.0053 25.3624C12.7572 25.3624 10.9385 23.5493 10.9385 21.3096C10.9385 19.07 12.7572 17.2568 15.0053 17.2568C17.2422 17.2568 19.061 19.07 19.061 21.3096Z" fill="#3E4347"/>
<path d="M5.7778 14.4171C5.38217 14.2737 5.1778 13.8368 5.32123 13.4421C5.94186 11.7284 7.57592 10.5771 9.38904 10.5771C11.2003 10.5771 12.8353 11.7284 13.4568 13.4421C13.6003 13.8378 13.3968 14.2746 13.0012 14.4181C12.6084 14.5606 12.1687 14.3581 12.0253 13.9615C11.6203 12.8478 10.5618 12.1006 9.38904 12.1006C8.21529 12.1006 7.15592 12.8487 6.75279 13.9615C6.60842 14.3571 6.17061 14.5596 5.7778 14.4171Z" fill="#3E4347"/>
<path d="M17.0005 14.4171C16.6048 14.2737 16.4005 13.8368 16.5439 13.4421C17.1645 11.7284 18.7986 10.5771 20.6117 10.5771C22.4229 10.5771 24.0579 11.7284 24.6795 13.4421C24.8229 13.8378 24.6195 14.2746 24.2239 14.4181C23.8311 14.5606 23.3914 14.3581 23.2479 13.9615C22.8429 12.8478 21.7845 12.1006 20.6117 12.1006C19.4379 12.1006 18.3786 12.8487 17.9755 13.9615C17.8311 14.3571 17.3933 14.5596 17.0005 14.4171Z" fill="#3E4347"/>
<path d="M28.9252 9.91609C28.9252 8.79859 26.903 5.58203 26.903 5.58203C26.903 5.58203 24.8809 8.79953 24.8809 9.91609C24.8809 11.0327 25.7865 11.9383 26.903 11.9383C28.0196 11.9383 28.9252 11.0327 28.9252 9.91609Z" fill="#65B1EF"/>
<path d="M25.0371 3.01218C25.0371 2.23593 23.6309 0 23.6309 0C23.6309 0 22.2246 2.23593 22.2246 3.01218C22.2246 3.78843 22.8537 4.41843 23.6309 4.41843C24.408 4.41843 25.0371 3.78937 25.0371 3.01218Z" fill="#65B1EF"/>
<path d="M12.5842 22.9498C12.1726 22.8214 11.7123 23.038 11.6392 23.4673C11.462 28.2852 13.6154 30.013 15.0001 29.9999C16.3867 30.013 18.5363 28.2842 18.361 23.4673C18.2879 23.038 17.8267 22.8223 17.416 22.9498C15.8439 23.4045 14.1564 23.4045 12.5842 22.9498Z" fill="#E24B4B"/>
<path d="M11.5771 19.144C12.5259 19.3709 13.71 19.5068 14.9999 19.5068C16.2899 19.5068 17.474 19.3709 18.4227 19.144C17.7027 18.0125 16.4446 17.2568 15.0056 17.2568C13.559 17.2568 12.2981 18.0125 11.5771 19.144Z" fill="white"/>
</svg>
