<svg width="30" height="30" viewBox="0 0 30 30" fill="none" xmlns="http://www.w3.org/2000/svg">
<g clip-path="url(#clip0_307_171991)">
<path d="M15 30C23.2843 30 30 23.2843 30 15C30 6.71573 23.2843 0 15 0C6.71573 0 0 6.71573 0 15C0 23.2843 6.71573 30 15 30Z" fill="#FFD93B"/>
<path d="M24.7025 19.4792C23.24 23.4167 19.4478 26.2198 14.9994 26.2198C10.5509 26.2198 6.76342 23.4167 5.29623 19.4792C5.11811 18.9917 5.46498 18.4761 5.98529 18.4761C11.9947 19.3433 18.0087 19.3433 24.0134 18.4761C24.5337 18.4761 24.8853 18.9917 24.7025 19.4792Z" fill="#3E4347"/>
<path d="M29.9998 15.0003C29.9998 23.2878 23.2826 30.0003 14.9998 30.0003C10.2842 30.0003 6.0748 27.8253 3.32324 24.4175C5.89668 26.4987 9.17324 27.7409 12.7404 27.7409C21.0232 27.7409 27.7404 21.0284 27.7404 12.7409C27.7404 9.17373 26.4982 5.89717 24.417 3.32373C27.8201 6.07529 29.9998 10.2847 29.9998 15.0003Z" fill="#F4C534"/>
<path d="M21.6618 18.7695C17.2246 19.243 12.7828 19.243 8.34277 18.7695C8.54809 20.6792 11.4478 21.3402 14.999 21.3402C18.5568 21.3402 21.4565 20.6802 21.6618 18.7695Z" fill="white"/>
<path d="M14.9998 26.2203C16.2719 26.2203 17.4879 25.9841 18.6129 25.565C18.431 24.8731 18.0363 24.2675 17.4982 23.8297C16.9966 23.4219 16.2982 23.3047 15.7216 23.5906C15.3701 23.7641 14.9529 23.8672 14.4748 23.8672C14.381 23.8672 14.2873 23.8625 14.1982 23.8531C13.6029 23.8016 13.0029 24.0078 12.656 24.4953C12.387 24.8806 12.1995 25.325 12.1113 25.8041C13.0282 26.0713 13.9957 26.2203 14.9998 26.2203Z" fill="#E24B4B"/>
<path d="M12.5593 13.6732C12.1712 13.6732 11.8562 13.3582 11.8562 12.9701C11.8562 11.9857 11.0556 11.1851 10.0721 11.1851C9.08871 11.1851 8.28809 11.9857 8.28809 12.9701C8.28809 13.3582 7.97309 13.6732 7.58496 13.6732C7.19684 13.6732 6.88184 13.3582 6.88184 12.9701C6.88184 11.2104 8.3134 9.77881 10.0721 9.77881C11.8309 9.77881 13.2625 11.2104 13.2625 12.9701C13.2625 13.3582 12.9475 13.6732 12.5593 13.6732Z" fill="#3E4347"/>
<path d="M22.4167 13.6732C22.0286 13.6732 21.7136 13.3582 21.7136 12.9701C21.7136 11.9857 20.913 11.1851 19.9295 11.1851C18.9452 11.1851 18.1445 11.9857 18.1445 12.9701C18.1445 13.3582 17.8295 13.6732 17.4414 13.6732C17.0533 13.6732 16.7383 13.3582 16.7383 12.9701C16.7383 11.2104 18.1698 9.77881 19.9295 9.77881C21.6883 9.77881 23.1198 11.2104 23.1198 12.9701C23.1198 13.3582 22.8048 13.6732 22.4167 13.6732Z" fill="#3E4347"/>
<path d="M21.3033 5.91916C21.3033 5.29479 20.1736 3.45166 20.1736 3.45166C20.1736 3.45166 19.0439 5.29572 19.0439 5.91916C19.0439 6.5426 19.5502 7.04885 20.1736 7.04885C20.798 7.04885 21.3033 6.54354 21.3033 5.91916Z" fill="#38C0DC"/>
<path d="M20.8999 6.00987C20.7987 5.9284 20.6103 5.99447 20.4792 6.15744C20.348 6.32041 20.3238 6.51857 20.4251 6.60004C20.5263 6.68151 20.7147 6.61544 20.8458 6.45247C20.977 6.2895 21.0012 6.09135 20.8999 6.00987Z" fill="#45CBEA"/>
<path d="M26.427 9.86639C26.427 8.83982 24.567 5.8042 24.567 5.8042C24.567 5.8042 22.707 8.83982 22.707 9.86639C22.707 10.8929 23.5395 11.7264 24.567 11.7264C25.5945 11.7264 26.427 10.8939 26.427 9.86639Z" fill="#38C0DC"/>
<path d="M25.6718 10.7429C25.4571 11.0129 25.1524 11.1169 24.9855 10.9857C24.8121 10.8544 24.8543 10.5216 25.069 10.2582C25.2912 9.98818 25.5959 9.87662 25.7693 10.0154C25.9352 10.1466 25.8931 10.4794 25.6718 10.7429Z" fill="#45CBEA"/>
</g>
<defs>
<clipPath id="clip0_307_171991">
<rect width="30" height="30" fill="white"/>
</clipPath>
</defs>
</svg>
