<svg width="30" height="30" viewBox="0 0 30 30" fill="none" xmlns="http://www.w3.org/2000/svg">
<g clip-path="url(#clip0_307_171716)">
<path d="M15 30C23.2843 30 30 23.2843 30 15C30 6.71573 23.2843 0 15 0C6.71573 0 0 6.71573 0 15C0 23.2843 6.71573 30 15 30Z" fill="#FFD93B"/>
<path d="M14.9998 30.0003C10.2842 30.0003 6.0748 27.8253 3.32324 24.4175C5.89668 26.4987 9.17324 27.7409 12.7404 27.7409C25.3911 27.7409 32.2751 13.04 24.417 3.32373C35.3417 12.1569 29.1645 30.0003 14.9998 30.0003Z" fill="#F4C534"/>
<path d="M14.1446 13.7927C14.1446 16.578 11.8824 18.8392 9.09051 18.8392C6.30519 18.8392 4.04395 16.577 4.04395 13.7927C4.04395 10.9998 6.30613 8.74609 9.09051 8.74609C11.8833 8.74609 14.1446 10.9998 14.1446 13.7927Z" fill="white"/>
<path d="M12.6572 7.65156C11.9953 9.32312 10.6547 6.60907 7.15968 7.6675C5.80874 8.05094 4.54686 8.96781 3.64218 10.4734C3.5278 10.7012 3.25686 10.7594 3.06093 10.6375C2.69155 10.4191 2.93061 10.0722 3.11811 9.69625C3.98905 8.10719 5.33811 7.01782 6.74999 6.48157C9.18561 5.54407 13.2853 6.06719 12.6572 7.65156Z" fill="#3E4347"/>
<path d="M10.5101 11.9559C10.5101 13.2074 9.4957 14.2218 8.23664 14.2218C6.98508 14.2218 5.9707 13.2074 5.9707 11.9559C5.9707 10.7043 6.98508 9.68994 8.23664 9.68994C9.4957 9.68994 10.5101 10.7043 10.5101 11.9559Z" fill="#3E4347"/>
<path d="M9.34331 10.8524C9.08117 10.5903 8.73541 10.5111 8.57102 10.6754C8.40664 10.8398 8.48588 11.1856 8.74802 11.4477C9.01015 11.7099 9.35592 11.7891 9.5203 11.6247C9.68468 11.4603 9.60544 11.1146 9.34331 10.8524Z" fill="white"/>
<path d="M15.8545 13.7927C15.8545 16.578 18.1167 18.8392 20.9086 18.8392C23.6939 18.8392 25.9551 16.577 25.9551 13.7927C25.9551 10.9998 23.6929 8.74609 20.9086 8.74609C18.1157 8.74609 15.8545 10.9998 15.8545 13.7927Z" fill="white"/>
<path d="M17.3429 7.65156C18.0048 9.32312 19.3454 6.60907 22.8404 7.6675C24.1923 8.05094 25.4542 8.96781 26.3579 10.4734C26.4723 10.7012 26.7432 10.7594 26.9392 10.6375C27.3085 10.4191 27.0695 10.0722 26.882 9.69625C26.011 8.10719 24.662 7.01782 23.2501 6.48157C20.8145 5.54407 16.7148 6.06719 17.3429 7.65156Z" fill="#3E4347"/>
<path d="M22.3206 11.9559C22.3206 13.2074 21.3063 14.2218 20.0472 14.2218C18.7956 14.2218 17.7812 13.2074 17.7812 11.9559C17.7812 10.7043 18.7956 9.68994 20.0472 9.68994C21.3063 9.68994 22.3206 10.7043 22.3206 11.9559Z" fill="#3E4347"/>
<path d="M21.1529 10.8524C20.8907 10.5903 20.545 10.511 20.3806 10.6754C20.2162 10.8398 20.2955 11.1856 20.5576 11.4477C20.8197 11.7099 21.1655 11.7891 21.3299 11.6247C21.4943 11.4603 21.415 11.1146 21.1529 10.8524Z" fill="white"/>
<path d="M21.0858 22.7726C20.497 22.3564 19.8577 22.3161 19.2764 22.2195C11.3517 21.6926 9.64831 24.3476 9.64831 24.3476C8.91613 24.9026 8.063 23.7917 8.81394 23.2226C10.9214 23.2226 12.0858 17.9155 19.4827 20.8508C20.0321 21.0308 20.948 21.4133 21.5264 21.4133C22.7789 21.4423 22.2108 23.5226 21.0858 22.7726Z" fill="#3E4347"/>
</g>
<defs>
<clipPath id="clip0_307_171716">
<rect width="30" height="30" fill="white"/>
</clipPath>
</defs>
</svg>
