<svg width="40" height="40" viewBox="0 0 40 40" fill="none" xmlns="http://www.w3.org/2000/svg">
<circle cx="20" cy="20" r="20" fill="#E6E9FD"/>
<path d="M10 22C10.5304 22 11.0391 21.7893 11.4142 21.4142C11.7893 21.0391 12 20.5304 12 20C12 19.4696 11.7893 18.9609 11.4142 18.5858C11.0391 18.2107 10.5304 18 10 18C9.46957 18 8.96086 18.2107 8.58579 18.5858C8.21071 18.9609 8 19.4696 8 20C8 20.5304 8.21071 21.0391 8.58579 21.4142C8.96086 21.7893 9.46957 22 10 22ZM20 22C20.5304 22 21.0391 21.7893 21.4142 21.4142C21.7893 21.0391 22 20.5304 22 20C22 19.4696 21.7893 18.9609 21.4142 18.5858C21.0391 18.2107 20.5304 18 20 18C19.4696 18 18.9609 18.2107 18.5858 18.5858C18.2107 18.9609 18 19.4696 18 20C18 20.5304 18.2107 21.0391 18.5858 21.4142C18.9609 21.7893 19.4696 22 20 22ZM30 22C30.5304 22 31.0391 21.7893 31.4142 21.4142C31.7893 21.0391 32 20.5304 32 20C32 19.4696 31.7893 18.9609 31.4142 18.5858C31.0391 18.2107 30.5304 18 30 18C29.4696 18 28.9609 18.2107 28.5858 18.5858C28.2107 18.9609 28 19.4696 28 20C28 20.5304 28.2107 21.0391 28.5858 21.4142C28.9609 21.7893 29.4696 22 30 22Z" fill="#474747" stroke="#474747"/>
</svg>
