<svg width="30" height="30" viewBox="0 0 30 30" fill="none" xmlns="http://www.w3.org/2000/svg">
<path d="M15.0002 28.1624C22.777 28.1624 29.0814 21.8581 29.0814 14.0812C29.0814 6.30438 22.777 0 15.0002 0C7.22332 0 0.918945 6.30438 0.918945 14.0812C0.918945 21.8581 7.22332 28.1624 15.0002 28.1624Z" fill="#FFD93B"/>
<path d="M29.0751 14.0767C29.0751 21.8541 22.7713 28.1532 14.9995 28.1532C10.5745 28.1532 6.62386 26.1123 4.04199 22.9145C6.45699 24.8673 9.53198 26.0335 12.8789 26.0335C20.6516 26.0335 26.9544 19.7345 26.9544 11.957C26.9544 8.60917 25.7891 5.53511 23.8354 3.12012C27.0304 5.70105 29.0751 9.65073 29.0751 14.0767Z" fill="#F4C534"/>
<path d="M10.0337 14.1734C11.179 14.1734 12.1075 13.2449 12.1075 12.0996C12.1075 10.9543 11.179 10.0259 10.0337 10.0259C8.88841 10.0259 7.95996 10.9543 7.95996 12.0996C7.95996 13.2449 8.88841 14.1734 10.0337 14.1734Z" fill="#3E4347"/>
<path d="M11.2089 11.1694C11.0606 10.9648 10.8044 10.8975 10.6367 11.019C10.469 11.1406 10.4533 11.405 10.6016 11.6095C10.7499 11.8141 11.0061 11.8814 11.1738 11.7599C11.3415 11.6383 11.3572 11.374 11.2089 11.1694Z" fill="#5A5F63"/>
<path d="M19.9653 14.1734C21.1106 14.1734 22.0391 13.2449 22.0391 12.0996C22.0391 10.9543 21.1106 10.0259 19.9653 10.0259C18.82 10.0259 17.8916 10.9543 17.8916 12.0996C17.8916 13.2449 18.82 14.1734 19.9653 14.1734Z" fill="#3E4347"/>
<path d="M19.3633 11.018C19.1956 10.8965 18.9394 10.9638 18.7911 11.1684C18.6428 11.373 18.6585 11.6374 18.8262 11.7589C18.9939 11.8805 19.2501 11.8132 19.3984 11.6086C19.5467 11.404 19.531 11.1396 19.3633 11.018Z" fill="#5A5F63"/>
<path d="M21.9724 17.4843C21.4474 20.3324 18.6377 22.7662 15.0002 22.7577C11.3628 22.7662 8.55401 20.3315 8.02807 17.4843C7.95119 17.099 8.30932 16.7671 8.69276 16.8403C12.8581 17.6306 17.1359 17.6315 21.3012 16.8412C21.6902 16.7671 22.0493 17.099 21.9724 17.4843Z" fill="#3E4347"/>
<path d="M19.0341 21.6447C19.1794 23.229 18.5944 25.0825 18.1875 26.8853C17.6588 28.809 16.2713 30.1534 14.5069 29.9856C12.9975 29.8468 11.8594 28.4696 11.3747 26.7446C10.9716 24.9868 10.4185 23.1887 10.561 21.6447C10.5929 21.3128 10.7504 21.0493 10.9894 20.8684C11.5594 20.4456 12.5269 20.7512 13.4204 20.9922C13.4232 20.9931 13.425 20.9931 13.4279 20.994C14.0775 21.1684 14.6719 21.1459 15.1557 21.0156C15.9544 20.8365 16.7625 20.484 17.5088 20.5037C18.2532 20.5347 18.9657 20.8947 19.0341 21.6447Z" fill="#E24B4B"/>
<g opacity="0.2">
<path opacity="0.2" d="M17.9891 21.405C17.72 21.1928 17.3903 21.1622 17.2528 21.3366C17.1153 21.5111 17.222 21.8245 17.4912 22.0367C17.7603 22.2489 18.09 22.2795 18.2275 22.1051C18.365 21.9306 18.2583 21.6172 17.9891 21.405Z" fill="white"/>
</g>
</svg>
