<svg width="30" height="30" viewBox="0 0 30 30" fill="none" xmlns="http://www.w3.org/2000/svg">
<g clip-path="url(#clip0_307_172411)">
<path d="M15 30C23.2843 30 30 23.2843 30 15C30 6.71573 23.2843 0 15 0C6.71573 0 0 6.71573 0 15C0 23.2843 6.71573 30 15 30Z" fill="#FFD93B"/>
<path d="M29.9998 15.0003C29.9998 23.2878 23.2826 30.0003 14.9998 30.0003C10.2842 30.0003 6.0748 27.8253 3.32324 24.4175C5.89668 26.4987 9.17324 27.7409 12.7404 27.7409C21.0232 27.7409 27.7404 21.0284 27.7404 12.7409C27.7404 9.17373 26.4982 5.89717 24.417 3.32373C27.8201 6.07529 29.9998 10.2847 29.9998 15.0003Z" fill="#F4C534"/>
<path d="M24.5946 21.5113C23.929 24.6988 19.6633 26.9863 15.004 26.9863C10.3258 26.9863 6.0696 24.6988 5.40397 21.5113C5.22585 20.6488 5.3196 19.7957 5.6571 18.9988C5.82585 18.5769 6.36022 18.455 6.72585 18.7175C8.98522 20.3582 12.9133 20.9863 14.9758 20.9863C17.0571 20.9863 21.004 20.3582 23.2727 18.7175C23.6383 18.455 24.1633 18.5769 24.3415 18.9894C24.679 19.7957 24.7727 20.6497 24.5946 21.5113Z" fill="#3E4347"/>
<path d="M7.86105 16.0815C10.583 16.0815 12.7895 13.8749 12.7895 11.153C12.7895 8.43115 10.583 6.22461 7.86105 6.22461C5.13915 6.22461 2.93262 8.43115 2.93262 11.153C2.93262 13.8749 5.13915 16.0815 7.86105 16.0815Z" fill="white"/>
<path d="M8.32938 14.2393C9.7755 14.2393 10.9478 13.067 10.9478 11.6209C10.9478 10.1748 9.7755 9.00244 8.32938 9.00244C6.88325 9.00244 5.71094 10.1748 5.71094 11.6209C5.71094 13.067 6.88325 14.2393 8.32938 14.2393Z" fill="#3E4347"/>
<path d="M9.87426 11.3075C9.6577 11.5194 9.21332 11.4144 8.87489 11.076C8.53645 10.7375 8.43614 10.2969 8.65176 10.086C8.86926 9.87314 9.31739 9.97439 9.65582 10.3128C9.99426 10.6513 10.0908 11.0956 9.87426 11.3075Z" fill="white"/>
<path d="M22.1384 16.0815C24.8603 16.0815 27.0668 13.8749 27.0668 11.153C27.0668 8.43115 24.8603 6.22461 22.1384 6.22461C19.4165 6.22461 17.21 8.43115 17.21 11.153C17.21 13.8749 19.4165 16.0815 22.1384 16.0815Z" fill="white"/>
<path d="M21.6663 14.2393C23.1124 14.2393 24.2847 13.067 24.2847 11.6209C24.2847 10.1748 23.1124 9.00244 21.6663 9.00244C20.2202 9.00244 19.0479 10.1748 19.0479 11.6209C19.0479 13.067 20.2202 14.2393 21.6663 14.2393Z" fill="#3E4347"/>
<path d="M23.2151 11.3073C22.9985 11.5192 22.5542 11.4142 22.2157 11.0758C21.8773 10.7373 21.777 10.2967 21.9926 10.0858C22.2091 9.87388 22.6573 9.97513 22.9957 10.3136C23.3342 10.6511 23.4317 11.0955 23.2151 11.3073Z" fill="white"/>
<path d="M11.7663 22.5185C12.1197 22.225 12.3053 21.5482 12.3963 20.7522C11.3603 20.5872 10.2532 20.3238 9.20409 19.9507C9.08315 20.9501 9.09815 21.8791 9.45159 22.3057C9.82284 22.7519 11.3191 22.8897 11.7663 22.5185Z" fill="white"/>
<path d="M13.7207 20.9182C13.7985 21.9194 14.1407 22.7998 15.037 23.0707C15.981 23.3548 19.2285 22.9076 20.0601 22.3779C20.8466 21.8773 20.9394 20.9426 20.7473 19.9629C18.7063 20.6801 16.4029 20.9866 14.9741 20.9866C14.6123 20.9866 14.1791 20.9594 13.7207 20.9182Z" fill="white"/>
<path d="M20.3553 24.2741C19.8519 23.5598 19.1282 23.3985 18.1785 23.406C17.5728 23.4107 16.9813 23.5635 16.415 23.7773C16.0428 23.9179 15.6219 23.9995 15.1475 23.9995C14.6825 23.9995 14.27 23.9207 13.9035 23.7848C13.3485 23.5795 12.77 23.4351 12.1785 23.4116C11.0947 23.3685 10.295 23.4829 9.73723 24.2732C9.41191 24.7335 9.25535 25.2295 9.24316 25.7235C10.8875 26.5213 12.9003 26.9863 15.0032 26.9863C17.1388 26.9863 19.1863 26.5016 20.8485 25.6738C20.8269 25.1966 20.6703 24.7195 20.3553 24.2741Z" fill="#E24B4B"/>
</g>
<defs>
<clipPath id="clip0_307_172411">
<rect width="30" height="30" fill="white"/>
</clipPath>
</defs>
</svg>
