<svg width="30" height="30" viewBox="0 0 30 30" fill="none" xmlns="http://www.w3.org/2000/svg">
<g clip-path="url(#clip0_307_172044)">
<path d="M15 30C23.2843 30 30 23.2843 30 15C30 6.71573 23.2843 0 15 0C6.71573 0 0 6.71573 0 15C0 23.2843 6.71573 30 15 30Z" fill="#FFD93B"/>
<path d="M29.9998 15.0003C29.9998 23.2878 23.2826 30.0003 14.9998 30.0003C10.2842 30.0003 6.0748 27.8253 3.32324 24.4175C5.89668 26.4987 9.17324 27.7409 12.7404 27.7409C21.0232 27.7409 27.7404 21.0284 27.7404 12.7409C27.7404 9.17373 26.4982 5.89717 24.417 3.32373C27.8201 6.07529 29.9998 10.2847 29.9998 15.0003Z" fill="#F4C534"/>
<path d="M19.4634 20.1821C17.8575 21.2096 15.8212 21.8181 13.9688 21.8293C14.1544 22.4012 14.2941 22.9881 14.3794 23.5862C14.6212 25.1284 15.5128 26.8074 17.0831 27.1037C18.6319 27.4103 20.7141 25.8006 20.07 22.7753C19.8844 21.9034 19.7344 21.0278 19.4634 20.1821Z" fill="#E24B4B"/>
<path d="M21.0412 18.3389C20.8518 18.3389 20.6746 18.4186 20.5406 18.5517C19.1043 19.9879 17.1346 20.8467 15.0009 20.8467C12.8662 20.8467 10.8974 19.9879 9.46024 18.5517C9.32618 18.4176 9.14899 18.3389 8.95962 18.3389C8.32681 18.3389 8.01931 19.1029 8.46649 19.5511C10.1596 21.2442 12.4837 22.2539 15.0009 22.2539C17.5171 22.2539 19.8412 21.2451 21.5353 19.5511C21.9815 19.1029 21.6731 18.3389 21.0412 18.3389Z" fill="#3E4347"/>
<g opacity="0.2">
<path opacity="0.2" d="M19.0138 24.5188C18.7429 24.381 18.3474 24.615 18.1305 25.0414C17.9136 25.4678 17.9574 25.9252 18.2283 26.063C18.4992 26.2008 18.8946 25.9668 19.1115 25.5404C19.3284 25.114 19.2847 24.6566 19.0138 24.5188Z" fill="white"/>
</g>
<path d="M12.7143 12.8234C12.0093 11.8615 10.738 11.2221 9.28863 11.2221C7.83269 11.2287 6.56144 11.8681 5.85645 12.8299C5.88926 10.9653 7.41176 9.46338 9.28863 9.46338C11.1524 9.46338 12.6814 10.9587 12.7143 12.8234Z" fill="#3E4347"/>
<path d="M24.1469 12.8234C23.4419 11.8615 22.1706 11.2221 20.7212 11.2221C19.2653 11.2287 17.9941 11.8681 17.2891 12.8299C17.3219 10.9653 18.8444 9.46338 20.7212 9.46338C22.585 9.46338 24.1141 10.9587 24.1469 12.8234Z" fill="#3E4347"/>
</g>
<defs>
<clipPath id="clip0_307_172044">
<rect width="30" height="30" fill="white"/>
</clipPath>
</defs>
</svg>
