<svg width="30" height="30" viewBox="0 0 30 30" fill="none" xmlns="http://www.w3.org/2000/svg">
<g clip-path="url(#clip0_307_172029)">
<path d="M15 30C23.2843 30 30 23.2843 30 15C30 6.71573 23.2843 0 15 0C6.71573 0 0 6.71573 0 15C0 23.2843 6.71573 30 15 30Z" fill="#FFD93B"/>
<path d="M29.9998 15.0003C29.9998 23.2878 23.2826 30.0003 14.9998 30.0003C10.2842 30.0003 6.0748 27.8253 3.32324 24.4175C5.89668 26.4987 9.17324 27.7409 12.7404 27.7409C21.0232 27.7409 27.7404 21.0284 27.7404 12.7409C27.7404 9.17373 26.4982 5.89717 24.417 3.32373C27.8201 6.07529 29.9998 10.2847 29.9998 15.0003Z" fill="#F4C534"/>
<path d="M16.9106 13.9767C16.8909 13.9767 16.8703 13.9758 16.8506 13.9739C16.4962 13.9411 16.2356 13.627 16.2684 13.2727C16.38 12.0727 17.5509 11.168 18.9919 11.168C20.4328 11.168 21.6037 12.0727 21.7153 13.2717C21.7481 13.6261 21.4875 13.9402 21.1331 13.973C20.7769 14.003 20.4647 13.7452 20.4309 13.3908C20.3831 12.8752 19.7372 12.4561 18.9909 12.4561C18.2447 12.4561 17.5987 12.8752 17.5509 13.3908C17.52 13.7255 17.2397 13.9767 16.9106 13.9767Z" fill="#3E4347"/>
<path d="M10.7332 15.0469C12.0825 15.0469 13.1763 13.9531 13.1763 12.6038C13.1763 11.2545 12.0825 10.1606 10.7332 10.1606C9.38386 10.1606 8.29004 11.2545 8.29004 12.6038C8.29004 13.9531 9.38386 15.0469 10.7332 15.0469Z" fill="#3E4347"/>
<path d="M12.0026 11.334C11.7167 11.048 11.3564 10.9448 11.1979 11.1033C11.0393 11.2618 11.1426 11.6221 11.4286 11.9081C11.7145 12.194 12.0748 12.2973 12.2333 12.1387C12.3919 11.9802 12.2886 11.6199 12.0026 11.334Z" fill="#5A5F63"/>
<path d="M23.1691 18.0843C24.7104 17.249 22.8101 23.8462 14.9997 24.1546C7.18943 23.8471 5.29005 17.2499 6.83036 18.0843C7.93005 18.448 11.1344 21.0571 14.9997 20.8902C18.8651 21.0562 22.0685 18.448 23.1691 18.0843Z" fill="#3E4347"/>
</g>
<defs>
<clipPath id="clip0_307_172029">
<rect width="30" height="30" fill="white"/>
</clipPath>
</defs>
</svg>
