<svg width="30" height="30" viewBox="0 0 30 30" fill="none" xmlns="http://www.w3.org/2000/svg">
<g clip-path="url(#clip0_307_172122)">
<path d="M14.9988 28.1441C22.7706 28.1441 29.0708 21.8438 29.0708 14.072C29.0708 6.30027 22.7706 0 14.9988 0C7.22703 0 0.926758 6.30027 0.926758 14.072C0.926758 21.8438 7.22703 28.1441 14.9988 28.1441Z" fill="#FFD93B"/>
<path d="M29.0735 14.0753C29.0735 21.852 22.7696 28.1511 14.9977 28.1511C10.5726 28.1511 6.62194 26.1102 4.04004 22.9123C6.45507 24.8652 9.5301 26.0314 12.877 26.0314C20.6499 26.0314 26.9528 19.7323 26.9528 11.9556C26.9528 8.60778 25.7875 5.53368 23.8337 3.11865C27.0287 5.70056 29.0735 9.65029 29.0735 14.0753Z" fill="#F4C534"/>
<path d="M21.7069 17.4191C22.9256 17.9845 21.0806 23.6798 15.0281 23.7277C8.97548 23.6808 7.13046 17.9845 8.34922 17.4191C9.3908 16.7488 11.9136 18.4963 15.0281 18.5188C18.1697 18.5432 20.6662 16.7488 21.7069 17.4191Z" fill="#3E4347"/>
<path d="M17.8316 21.307C17.1566 21.156 16.4169 21.501 15.7372 21.7373C15.2797 21.9145 14.6938 21.982 14.0581 21.847C14.046 21.8451 14.0347 21.8423 14.0235 21.8395C12.9275 21.5667 11.5025 21.2498 11.21 22.2642C11.2081 22.2707 11.2072 22.2782 11.2062 22.2857C10.9606 23.6142 11.3328 25.2098 11.6806 26.7952C12.1475 28.5033 13.28 29.8543 14.7472 29.9865C16.461 30.1496 17.8326 28.8408 18.3491 26.932C18.7044 25.3017 19.1066 23.6526 18.8535 22.2857C18.756 21.7551 18.3238 21.4307 17.8316 21.307Z" fill="#E24B4B"/>
<g opacity="0.2">
<path opacity="0.2" d="M17.9505 22.4587C17.7405 22.6181 17.3674 22.6031 17.1377 22.454C16.8996 22.305 16.8714 22.1071 17.0608 21.9834C17.2427 21.8587 17.5849 21.8221 17.8446 21.9393C18.1127 22.0528 18.1708 22.3021 17.9505 22.4587Z" fill="white"/>
</g>
<path d="M6.22179 13.6813C6.04554 13.385 6.14211 13.0006 6.4393 12.8244C7.81181 12.0088 9.3062 11.4237 10.8981 11.0797C10.0684 10.489 9.1712 9.97435 8.21588 9.54216C7.90181 9.40059 7.76118 9.03028 7.90369 8.71527C8.04619 8.40027 8.41557 8.26152 8.73057 8.40308C10.2296 9.08184 11.6003 9.94998 12.8041 10.985C12.9916 11.1462 13.0656 11.4031 12.9944 11.6403C12.9231 11.8775 12.7187 12.0491 12.4722 12.08C10.5437 12.3181 8.67901 12.9463 7.0768 13.8988C6.77867 14.0769 6.39523 13.9747 6.22179 13.6813Z" fill="#3E4347"/>
<path d="M22.9193 13.8988C21.2955 12.9331 19.4796 12.3209 17.5249 12.08C17.2792 12.0491 17.0749 11.8775 17.0027 11.6403C16.9305 11.4031 17.0055 11.1472 17.193 10.985C18.3968 9.94998 19.7674 9.0809 21.2655 8.40308C21.5815 8.26152 21.9499 8.40027 22.0924 8.71527C22.2349 9.02934 22.0952 9.39966 21.7802 9.54216C20.8259 9.97435 19.9277 10.489 19.098 11.0797C20.6899 11.4237 22.1843 12.0088 23.5559 12.8244C23.8531 13.0006 23.9506 13.3841 23.7734 13.6813C23.6018 13.9747 23.2193 14.0769 22.9193 13.8988Z" fill="#3E4347"/>
</g>
<defs>
<clipPath id="clip0_307_172122">
<rect width="30" height="30" fill="white"/>
</clipPath>
</defs>
</svg>
