<svg width="30" height="30" viewBox="0 0 30 30" fill="none" xmlns="http://www.w3.org/2000/svg">
<g clip-path="url(#clip0_307_172157)">
<path d="M15 30C23.2843 30 30 23.2843 30 15C30 6.71573 23.2843 0 15 0C6.71573 0 0 6.71573 0 15C0 23.2843 6.71573 30 15 30Z" fill="#FFD93B"/>
<path d="M29.9999 14.9999C29.9999 23.2874 23.2808 29.9999 14.9999 29.9999C10.2814 29.9999 6.07488 27.8249 3.3252 24.4189C5.89395 26.5002 9.1752 27.7443 12.7377 27.7443C21.0252 27.7443 27.7377 21.0318 27.7377 12.7443C27.7377 9.1752 26.5002 5.90051 24.4189 3.3252C27.8183 6.07488 29.9999 10.2871 29.9999 14.9999Z" fill="#F4C534"/>
<path d="M12.9875 13.9992C12.9875 15.0492 12.1438 15.9051 11.0872 15.9051C10.0307 15.9051 9.18129 15.0492 9.18129 13.9992C9.18129 13.8239 9.2066 13.6495 9.24973 13.4929H7.13098C6.74379 13.4929 6.43066 13.1808 6.43066 12.7926C6.43066 12.4045 6.74379 12.0933 7.13191 12.0933H11.0882C12.1438 12.0933 12.9875 12.9436 12.9875 13.9992Z" fill="#3E4347"/>
<path d="M23.5696 13.9992C23.5696 15.0492 22.7258 15.9051 21.6693 15.9051C20.6193 15.9051 19.7633 15.0492 19.7633 13.9992C19.7633 13.8239 19.7886 13.6495 19.8318 13.4929H17.713C17.3258 13.4929 17.0127 13.1808 17.0127 12.7926C17.0127 12.4045 17.3258 12.0933 17.713 12.0933H21.6693C22.7258 12.0933 23.5696 12.9436 23.5696 13.9992Z" fill="#3E4347"/>
<path d="M12.8878 9.11899C13.1437 9.2943 13.2065 9.63743 13.0312 9.8943C12.8625 10.1502 12.5128 10.2131 12.2559 10.0443C10.3743 8.76274 7.80559 9.25024 6.52497 11.1252C6.35153 11.3756 6.01778 11.4468 5.74403 11.2752C5.49372 11.0999 5.42528 10.7502 5.60059 10.4999C7.22528 8.11212 10.4934 7.49337 12.8878 9.11899Z" fill="#E9B02C"/>
<path d="M24.2499 11.2746C24.0024 11.4396 23.6564 11.3861 23.4746 11.1246C22.193 9.24958 19.6243 8.76208 17.7436 10.0436C17.4877 10.2124 17.1371 10.1496 16.9683 9.89365C16.793 9.63771 16.8558 9.29365 17.1118 9.11833C19.4996 7.49364 22.7742 8.11239 24.3989 10.4993C24.5742 10.7496 24.5058 11.0993 24.2499 11.2746Z" fill="#E9B02C"/>
<path d="M21.0684 23.3452C20.4365 23.7127 18.2568 22.0017 15.1678 22.0945C12.0778 22.0008 9.89902 23.7117 9.26715 23.3452C8.49371 23.0555 10.2637 19.4386 15.1678 19.4302C20.0718 19.4386 21.8428 23.0564 21.0684 23.3452Z" fill="#3E4347"/>
</g>
<defs>
<clipPath id="clip0_307_172157">
<rect width="30" height="30" fill="white"/>
</clipPath>
</defs>
</svg>
