<svg width="30" height="30" viewBox="0 0 30 30" fill="none" xmlns="http://www.w3.org/2000/svg">
<g clip-path="url(#clip0_307_172214)">
<path d="M15 30C23.2843 30 30 23.2843 30 15C30 6.71573 23.2843 0 15 0C6.71573 0 0 6.71573 0 15C0 23.2843 6.71573 30 15 30Z" fill="#FFD93B"/>
<path d="M7.15273 17.4229C6.84804 18.4073 7.40491 19.462 8.38929 19.7666C9.38022 20.0732 10.4283 19.5145 10.733 18.5301C11.0396 17.5392 10.6215 16.0579 9.63053 15.7513C8.6471 15.4476 7.45929 16.432 7.15273 17.4229Z" fill="#F4C534"/>
<path d="M22.848 17.4229C23.1527 18.4073 22.5958 19.462 21.6114 19.7666C20.6205 20.0732 19.5724 19.5145 19.2677 18.5301C18.9611 17.5392 19.3793 16.0579 20.3702 15.7513C21.3536 15.4476 22.5414 16.432 22.848 17.4229Z" fill="#F4C534"/>
<path d="M29.9998 15.0003C29.9998 23.2878 23.2826 30.0003 14.9998 30.0003C10.2842 30.0003 6.0748 27.8253 3.32324 24.4175C5.89668 26.4987 9.17324 27.7409 12.7404 27.7409C21.0232 27.7409 27.7404 21.0284 27.7404 12.7409C27.7404 9.17373 26.4982 5.89717 24.417 3.32373C27.8201 6.07529 29.9998 10.2847 29.9998 15.0003Z" fill="#F4C534"/>
<path d="M19.6984 22.4465C19.6984 22.9246 19.314 23.309 18.8359 23.309H11.1672C10.6891 23.309 10.3047 22.9246 10.3047 22.4465C10.3047 21.9684 10.6891 21.584 11.1672 21.584H18.8359C19.314 21.584 19.6984 21.9684 19.6984 22.4465Z" fill="#3E4347"/>
<path d="M19.781 17.4975C21.5191 17.4975 22.9282 16.0884 22.9282 14.3503C22.9282 12.6122 21.5191 11.2031 19.781 11.2031C18.0428 11.2031 16.6338 12.6122 16.6338 14.3503C16.6338 16.0884 18.0428 17.4975 19.781 17.4975Z" fill="white"/>
<path d="M19.7818 16.0504C20.7195 16.0504 21.4796 15.2903 21.4796 14.3526C21.4796 13.4149 20.7195 12.6548 19.7818 12.6548C18.8441 12.6548 18.084 13.4149 18.084 14.3526C18.084 15.2903 18.8441 16.0504 19.7818 16.0504Z" fill="#3E4347"/>
<path d="M20.6988 14.1901C20.547 14.2904 20.306 14.2098 20.1673 14.0091C20.0285 13.8085 20.0445 13.5648 20.1973 13.4635C20.3492 13.3632 20.5901 13.4438 20.7288 13.6445C20.861 13.846 20.8516 14.0898 20.6988 14.1901Z" fill="#5A5F63"/>
<path d="M23.8036 13.1002C23.1914 11.1314 21.2649 9.84796 19.1386 10.1742C18.7983 10.2239 18.4702 9.98952 18.4177 9.64452C18.3642 9.29858 18.6014 8.97608 18.9474 8.92265C21.7289 8.50077 24.2208 10.1836 25.0111 12.7252C25.1142 13.0589 24.9286 13.4133 24.5949 13.5173C24.2705 13.6195 23.9096 13.4395 23.8036 13.1002Z" fill="#E9B02C"/>
<path d="M10.2175 17.4975C11.9556 17.4975 13.3647 16.0884 13.3647 14.3503C13.3647 12.6122 11.9556 11.2031 10.2175 11.2031C8.47936 11.2031 7.07031 12.6122 7.07031 14.3503C7.07031 16.0884 8.47936 17.4975 10.2175 17.4975Z" fill="white"/>
<path d="M10.2203 16.0504C11.1579 16.0504 11.9181 15.2903 11.9181 14.3526C11.9181 13.4149 11.1579 12.6548 10.2203 12.6548C9.2826 12.6548 8.52246 13.4149 8.52246 14.3526C8.52246 15.2903 9.2826 16.0504 10.2203 16.0504Z" fill="#3E4347"/>
<path d="M9.30207 14.1901C9.45395 14.2904 9.69489 14.2098 9.83364 14.0091C9.97239 13.8085 9.95645 13.5648 9.80364 13.4635C9.65176 13.3632 9.41082 13.4438 9.27207 13.6445C9.13989 13.846 9.14926 14.0898 9.30207 14.1901Z" fill="#5A5F63"/>
<path d="M5.40309 13.5174C5.06934 13.4133 4.88277 13.0589 4.98684 12.7252C5.78184 10.1695 8.28309 8.50548 11.0515 8.92361C11.3965 8.97611 11.6346 9.29861 11.5812 9.64455C11.5278 9.99048 11.1978 10.2249 10.8603 10.1752C8.71902 9.84798 6.80371 11.1445 6.19434 13.102C6.09121 13.4367 5.73309 13.6214 5.40309 13.5174Z" fill="#E9B02C"/>
</g>
<defs>
<clipPath id="clip0_307_172214">
<rect width="30" height="30" fill="white"/>
</clipPath>
</defs>
</svg>
