<svg width="30" height="30" viewBox="0 0 30 30" fill="none" xmlns="http://www.w3.org/2000/svg">
<g clip-path="url(#clip0_307_171679)">
<path d="M25.0452 18.1836C24.4115 18.7957 24.1209 19.6891 24.2765 20.5609L25.2524 26.2615C25.6264 28.442 23.3316 30.1135 21.3592 29.086L16.2407 26.3862C15.4617 25.9812 14.5271 25.9812 13.749 26.3862L8.63059 29.086C6.66853 30.1135 4.36336 28.442 4.74771 26.2615L5.72359 20.5609C5.86889 19.6891 5.57828 18.7957 4.95488 18.1836L0.81233 14.1451C-0.776634 12.5983 0.0961244 9.89848 2.29724 9.57694L8.01844 8.74637C8.89026 8.62169 9.64865 8.07141 10.033 7.28208L12.5978 2.09053C13.5737 0.107844 16.4189 0.107844 17.405 2.09053L19.9596 7.28208C20.3542 8.07141 21.1014 8.62169 21.9741 8.74637L27.7057 9.57694C29.8965 9.89848 30.7786 12.5983 29.1906 14.1451L25.0452 18.1836Z" fill="#FFD93B"/>
<path d="M14.0243 14.1843C14.0243 16.0789 12.7643 17.6182 11.2194 17.6182C9.66328 17.6182 8.4043 16.078 8.4043 14.1843C8.4043 12.2898 9.66422 10.7505 11.2194 10.7505C12.7643 10.7496 14.0243 12.2898 14.0243 14.1843Z" fill="white"/>
<path d="M11.5577 16.5708C12.3447 16.5708 12.9826 15.9346 12.9826 15.1497C12.9826 14.3648 12.3447 13.7285 11.5577 13.7285C10.7708 13.7285 10.1328 14.3648 10.1328 15.1497C10.1328 15.9346 10.7708 16.5708 11.5577 16.5708Z" fill="#3E4347"/>
<path d="M12.3062 14.4061C12.1447 14.2446 11.9218 14.2058 11.8083 14.3192C11.6948 14.4327 11.7337 14.6556 11.8952 14.8171C12.0566 14.9785 12.2795 15.0174 12.393 14.9039C12.5065 14.7904 12.4676 14.5675 12.3062 14.4061Z" fill="white"/>
<path d="M15.9717 14.1843C15.9717 16.0789 17.2316 17.6182 18.7765 17.6182C20.3327 17.6182 21.5916 16.078 21.5916 14.1843C21.5916 12.2898 20.3317 10.7505 18.7765 10.7505C17.2316 10.7496 15.9717 12.2898 15.9717 14.1843Z" fill="white"/>
<path d="M18.4396 16.5708C19.2265 16.5708 19.8645 15.9346 19.8645 15.1497C19.8645 14.3648 19.2265 13.7285 18.4396 13.7285C17.6526 13.7285 17.0146 14.3648 17.0146 15.1497C17.0146 15.9346 17.6526 16.5708 18.4396 16.5708Z" fill="#3E4347"/>
<path d="M19.187 14.4061C19.0256 14.2446 18.8027 14.2058 18.6892 14.3192C18.5757 14.4327 18.6146 14.6556 18.776 14.8171C18.9375 14.9785 19.1604 15.0174 19.2739 14.9039C19.3873 14.7904 19.3485 14.5675 19.187 14.4061Z" fill="white"/>
<path d="M20.0747 20.0941C18.4351 22.0383 17.4573 23.1239 15.0003 23.1239C12.5348 23.1239 11.5636 22.0383 9.92406 20.0941C9.56783 19.6769 9.95875 19.0413 10.4978 19.1632C13.4985 19.8504 16.5077 19.8588 19.5 19.1716C20.04 19.0498 20.4309 19.676 20.0747 20.0941Z" fill="#3E4347"/>
<path d="M19.462 19.1793C16.4922 19.8552 13.5046 19.8467 10.5264 19.1689C11.6222 20.4907 12.0225 20.7992 15.0036 20.7992C17.9678 20.7992 18.3737 20.4917 19.462 19.1793Z" fill="white"/>
</g>
<defs>
<clipPath id="clip0_307_171679">
<rect width="30" height="30" fill="white"/>
</clipPath>
</defs>
</svg>
