<svg width="30" height="30" viewBox="0 0 30 30" fill="none" xmlns="http://www.w3.org/2000/svg">
<g clip-path="url(#clip0_307_172458)">
<path d="M14.8412 2.05028C14.4624 2.06153 14.0883 1.99309 13.7189 1.2046C13.0673 0.114221 12.4307 1.21867 11.811 0.700195C11.1922 0.991776 8.8605 2.02872 8.31766 2.44124C8.04576 2.82845 7.00132 4.13635 6.751 4.22635C6.25034 4.57981 5.01839 4.98296 4.02739 5.27642C3.09733 5.55206 2.54511 6.76901 2.38291 7.37468C2.02101 8.84008 0.695304 11.7896 0.496542 12.6016C0.400911 12.865 0.459977 13.1444 0.586548 13.4088H14.8412V2.05028Z" fill="#E24B4B"/>
<path d="M29.9831 15.7135C29.6269 23.3546 23.3358 29.6456 15.6947 29.9831C7.08794 30.3769 0 23.5233 0 15.0009C0 14.0259 0.0937559 13.0602 0.271892 12.1414C0.328146 11.8226 0.562535 11.5695 0.862554 11.457C5.98162 9.5256 9.57247 5.6066 11.682 0.778174C11.8132 0.48753 12.057 0.281268 12.3664 0.225014C13.2196 0.0750047 14.1009 0 15.0009 0C23.514 0 30.3853 7.10669 29.9831 15.7135Z" fill="#8CC63E"/>
<path d="M30.0005 14.9986C30.0005 23.2866 23.2829 29.9995 14.9996 29.9995C10.2836 29.9995 6.074 27.8244 3.32227 24.4164C5.89586 26.4977 9.17263 27.74 12.74 27.74C21.0234 27.74 27.741 21.0271 27.741 12.7391C27.741 9.17165 26.4987 5.89489 24.4173 3.32129C27.8207 6.07302 30.0005 10.2827 30.0005 14.9986Z" fill="#7FB239"/>
<path d="M20.3584 25.1018C16.7863 24.1483 13.2132 24.1483 9.64114 25.1018C9.12735 25.2415 8.65764 24.7934 8.76827 24.273C9.36268 21.3825 11.9297 19.2046 14.9965 19.2046C18.0698 19.2046 20.6303 21.3835 21.2322 24.273C21.3409 24.7934 20.8722 25.2415 20.3584 25.1018Z" fill="#3E4347"/>
<path d="M18.6314 24.7233C18.5789 23.9892 18.3126 23.3048 17.8776 22.7516C17.3938 22.1253 16.521 21.8703 15.8009 22.1938C15.319 22.4047 14.7584 22.5079 14.1152 22.4507L14.0965 22.4488C12.8758 22.3344 11.7076 23.0629 11.4675 24.2667C11.4394 24.412 11.4263 24.563 11.415 24.7149C13.8208 24.2864 16.2266 24.2883 18.6314 24.7233Z" fill="#E24B4B"/>
<path d="M20.272 22.0182C19.1282 20.324 17.1959 19.2046 14.9955 19.2046C12.7997 19.2046 10.8646 20.325 9.72168 22.0201C13.2394 20.6166 16.7562 20.6166 20.272 22.0182Z" fill="white"/>
<path d="M18.2993 22.759C18.2843 21.5336 17.1846 20.2866 17.1846 20.2866L18.5562 20.3748C19.1347 21.9152 18.2993 22.759 18.2993 22.759Z" fill="white"/>
<path d="M11.6996 22.759C11.7146 21.5336 12.8144 20.2866 12.8144 20.2866L11.4427 20.3748C10.8633 21.9152 11.6996 22.759 11.6996 22.759Z" fill="white"/>
<path d="M10.967 22.9971C10.967 22.9971 10.3144 23.6618 10.5685 24.8853C10.8901 24.8141 11.2107 24.7522 11.5323 24.6969C11.2548 24.2318 10.9745 23.6121 10.967 22.9971Z" fill="white"/>
<path d="M18.4668 24.6969C18.7884 24.7522 19.109 24.8141 19.4306 24.8853C19.6847 23.6627 19.0321 22.9971 19.0321 22.9971C19.0256 23.6121 18.7452 24.2318 18.4668 24.6969Z" fill="white"/>
<path d="M14.9418 23.6279C13.2663 23.6279 11.7559 23.777 10.6777 24.1323C10.7527 24.3555 10.8034 24.5871 10.8418 24.8205C13.6029 24.2486 16.3631 24.2458 19.1242 24.813C19.2001 24.6021 19.2826 24.393 19.3923 24.1989C18.3048 23.7967 16.7165 23.6279 14.9418 23.6279Z" fill="white"/>
<path d="M19.0206 27.518C18.9634 27.2705 19.1678 25.6898 19.1603 25.6626C19.1247 25.5379 19.0469 25.5529 18.94 25.5744C18.8153 25.596 18.6906 25.4938 18.6906 25.3691C18.6503 25.6016 18.6296 26.151 18.4046 26.1764C18.3165 26.1839 18.2359 26.1173 18.2068 26.0301C18.1487 25.9017 18.3503 23.5399 18.354 23.5287C18.4346 23.3009 18.5818 23.6384 18.7131 23.6384C18.8012 23.6384 18.8743 23.5428 18.955 23.5793C19.0459 23.6253 18.9765 23.7546 18.9765 23.8503C18.9765 23.9675 19.0862 24.0481 19.1744 24.1287C20.1728 25.0269 19.0478 26.1689 19.5634 27.0558C19.6291 27.1805 19.7247 27.2836 19.7978 27.4008C20.1925 28.0721 19.1706 28.3281 19.0206 27.518Z" fill="#E24B4B"/>
<path d="M9.24922 17.7462C11.3468 17.7462 13.0473 16.0441 13.0473 13.9444C13.0473 11.8447 11.3468 10.1426 9.24922 10.1426C7.15162 10.1426 5.45117 11.8447 5.45117 13.9444C5.45117 16.0441 7.15162 17.7462 9.24922 17.7462Z" fill="white"/>
<path d="M20.7473 17.7462C22.8449 17.7462 24.5453 16.0441 24.5453 13.9444C24.5453 11.8447 22.8449 10.1426 20.7473 10.1426C18.6497 10.1426 16.9492 11.8447 16.9492 13.9444C16.9492 16.0441 18.6497 17.7462 20.7473 17.7462Z" fill="white"/>
<path d="M2.29492 10.1417V10.2233V15.6733C2.29492 15.6733 2.70839 16.6728 3.32249 15.8505C3.93659 15.0283 3.11529 15.1052 3.11529 13.9435C3.11529 12.7819 2.90058 11.9034 3.81845 11.3568C4.73632 10.8102 5.41981 10.888 5.86983 9.7742C6.31986 8.66038 6.76801 9.61762 6.33861 10.5946C5.90921 11.5715 6.04141 12.3919 6.51206 12.3919C6.98272 12.3919 7.2171 12.1575 7.0024 11.5124C6.7877 10.8674 6.72864 9.24635 6.98272 8.58256C7.23679 7.91877 11.8711 3.08472 11.693 0.754883L6.59269 6.25741" fill="#E24B4B"/>
<path d="M22.7264 12.8164C22.7264 13.8665 21.8732 14.7197 20.8232 14.7197C19.7731 14.7197 18.9199 13.8665 18.9199 12.8164C18.9199 11.757 19.7731 10.9038 20.8232 10.9038C21.8732 10.9038 22.7264 11.757 22.7264 12.8164Z" fill="#3E4347"/>
<path d="M21.975 12.6042C21.8456 12.7336 21.5222 12.6323 21.2644 12.3736C21.0056 12.1148 20.9043 11.7923 21.0337 11.6629C21.1725 11.5242 21.495 11.6254 21.7538 11.8842C22.0125 12.1429 22.1138 12.4664 21.975 12.6042Z" fill="white"/>
<path d="M10.9764 15.0962C10.9764 16.1463 10.1232 16.9995 9.07317 16.9995C8.0231 16.9995 7.16992 16.1463 7.16992 15.0962C7.16992 14.0368 8.0231 13.1836 9.07317 13.1836C10.1242 13.1836 10.9764 14.0368 10.9764 15.0962Z" fill="#3E4347"/>
<path d="M10.226 14.884C10.0966 15.0134 9.77315 14.9121 9.51532 14.6534C9.25656 14.3946 9.1553 14.0721 9.28468 13.9427C9.42344 13.8039 9.74596 13.9052 10.0047 14.164C10.2635 14.4227 10.3647 14.7452 10.226 14.884Z" fill="white"/>
<path d="M14.2881 2.5367C16.8064 2.52357 22.638 4.2243 25.5979 8.9824C24.1362 7.77764 21.7136 5.40656 14.2881 2.5367Z" fill="#3E4347"/>
<path d="M23.1575 6.58872C23.21 6.47621 17.7393 3.45915 17.5996 3.52196C19.38 3.95512 21.918 5.35208 23.1575 6.58872Z" fill="#E24B4B"/>
<path d="M19.6982 4.4165C19.6982 4.4165 20.0433 5.45344 19.9429 6.21474C19.8417 6.97604 19.897 7.85828 20.1398 8.43207C20.3827 9.00585 20.9639 8.61958 20.7502 8.25581C20.5364 7.89203 20.3602 7.6267 20.5917 7.11949C20.8233 6.61227 20.9452 6.36944 20.978 6.14911C21.0108 5.92879 21.309 6.14911 21.2208 6.45757C21.1327 6.76603 21.0221 7.07542 21.1102 7.2845C21.1983 7.49451 21.3643 7.307 21.6062 7.43919C21.8481 7.57139 21.8509 7.68765 22.0374 7.86109C22.224 8.03454 22.389 8.02329 22.389 8.40957C22.389 8.79584 22.2128 9.22618 22.3009 9.78871C22.389 10.3512 22.2456 10.6616 22.7256 10.9035C23.2056 11.1454 23.3594 10.55 23.0069 10.054C22.6543 9.55808 22.4331 8.81834 22.6647 8.11236C22.8962 7.40638 23.4035 6.87666 23.0837 6.51288C22.765 6.14911 19.6982 4.4165 19.6982 4.4165Z" fill="#E24B4B"/>
<path d="M16.276 2.02539C15.9169 2.46136 15.48 3.36516 14.999 3.83019C15.0562 3.09608 15.7397 2.1154 16.276 2.02539Z" fill="#3E4347"/>
<path d="M23.8545 8.78359C24.1873 8.35138 24.6139 7.41382 25.0733 6.93848C25.0377 7.70821 24.357 8.68234 23.8545 8.78359Z" fill="#3E4347"/>
<path d="M18.2471 2.53762C17.2617 3.0889 16.822 3.9749 16.2764 4.88714C16.2998 3.69738 17.3874 2.53199 18.2471 2.53762Z" fill="#3E4347"/>
<path d="M22.1689 7.86173C23.1187 7.33013 23.5931 6.42633 24.1397 5.51221C24.1163 6.69541 23.0306 7.86735 22.1689 7.86173Z" fill="#3E4347"/>
<path d="M19.7796 3.20072C18.842 3.76045 18.4136 4.51612 17.8379 5.3468C17.9007 4.2086 19.0202 3.19322 19.7796 3.20072Z" fill="#3E4347"/>
<path d="M20.5371 6.62361C21.4747 6.06389 21.9153 5.29134 22.4788 4.47754C22.4132 5.67386 21.2572 6.63017 20.5371 6.62361Z" fill="#3E4347"/>
</g>
<defs>
<clipPath id="clip0_307_172458">
<rect width="30" height="30" fill="white"/>
</clipPath>
</defs>
</svg>
